<svg width="49" height="49" viewBox="0 0 49 49" fill="none" xmlns="http://www.w3.org/2000/svg">
<g clip-path="url(#clip0_1_6217)">
<path d="M45.2069 37.4072C52.3893 26.0018 48.9659 10.9334 37.5604 3.75105C26.155 -3.43133 11.0866 -0.00787968 3.90426 11.3975C-3.27812 22.803 0.145335 37.8714 11.5508 45.0537C22.9562 52.2361 38.0246 48.8127 45.2069 37.4072Z" fill="#C2D953"/>
<path fill-rule="evenodd" clip-rule="evenodd" d="M27.064 38.3121C26.2014 38.4685 25.3127 38.5501 24.405 38.5501C16.2228 38.5501 9.58979 31.9171 9.58979 23.7349C9.58979 15.5527 16.2228 8.91968 24.405 8.91968C32.5872 8.91968 39.2202 15.5527 39.2202 23.7349C39.2202 25.1859 39.0116 26.5883 38.6227 27.9135H42.5481C42.8562 26.5703 43.019 25.1716 43.019 23.7349C43.019 13.4547 34.6852 5.12091 24.405 5.12091C14.1248 5.12091 5.79102 13.4547 5.79102 23.7349C5.79102 34.0151 14.1248 42.3489 24.405 42.3489C25.3078 42.3489 26.1956 42.2846 27.064 42.1604V38.3121Z" fill="white"/>
<path d="M22.4159 26.7755V15.0919H26.3165V23.8002H31.3238V26.7755H22.4159Z" fill="white"/>
<path d="M30.103 37.0306L33.5219 40.4495L42.2591 31.7123" stroke="#313131" stroke-width="3.03902"/>
</g>
<defs>
<clipPath id="clip0_1_6217">
<rect width="48.81" height="48.81" fill="white"/>
</clipPath>
</defs>
</svg>
