<svg width="164" height="178" viewBox="0 0 164 178" fill="none" xmlns="http://www.w3.org/2000/svg">
<path opacity="0.7" d="M77.4346 141.716C106.75 140.171 129.262 115.152 127.716 85.8364C126.17 56.5206 101.152 34.0087 71.8363 35.5546C42.5205 37.1005 20.0086 62.1189 21.5545 91.4347C23.1005 120.75 48.1189 143.262 77.4346 141.716Z" fill="#CCCCCC"/>
<path d="M57.673 133.95C85.3489 143.741 115.721 129.242 125.512 101.566C135.302 73.8899 120.803 43.5175 93.1272 33.7271C65.4514 23.9367 35.0789 38.4357 25.2885 66.1116C15.4981 93.7874 29.9972 124.16 57.673 133.95Z" fill="url(#paint0_linear_79_1680)"/>
<g filter="url(#filter0_d_79_1680)">
<path d="M60.9631 123.11L60.8491 122.918C60.8491 122.918 60.6464 122.634 60.5958 122.434C57.994 116.421 51.5429 73.7315 56.0128 61.0958C60.74 47.7327 74.9949 40.256 88.1225 44.0209L89.1384 44.3196L90.216 44.7008C102.854 50.0204 109.281 64.8436 104.535 78.2606C100.065 90.8962 68.2049 120.033 62.4009 123.073C62.2359 123.196 62.0631 123.256 61.9267 123.299L61.7174 123.377L61.3941 123.262C61.3941 123.262 61.3941 123.262 61.3672 123.253L60.99 123.119L60.9631 123.11ZM88.5235 46.315L88.4426 46.2864C76.0984 42.1924 62.4494 49.1559 57.9795 61.7915C53.7956 73.6189 59.4995 112.679 62.2075 120.791C69.4141 116.187 98.4015 89.4287 102.595 77.5744C107.065 64.9387 100.804 50.932 88.6581 46.3626L88.5504 46.3245L88.5235 46.315Z" fill="white"/>
<path d="M73.1788 89.6911C62.483 85.9074 56.945 73.8844 60.843 62.8652C64.7411 51.8461 76.6075 45.9799 87.3033 49.7635C97.9992 53.5472 103.537 65.5703 99.6391 76.5895C95.741 87.6086 83.8747 93.4748 73.1788 89.6911ZM86.6076 51.7303C76.9894 48.3278 66.2901 53.6369 62.7828 63.5515C59.2755 73.466 64.2564 84.3219 73.8746 87.7244C83.4928 91.1269 94.192 85.8178 97.6993 75.9032C101.207 65.9887 96.2258 55.1327 86.6076 51.7303Z" fill="white"/>
</g>
<defs>
<filter id="filter0_d_79_1680" x="54.4768" y="43.0485" width="51.6213" height="82.8175" filterUnits="userSpaceOnUse" color-interpolation-filters="sRGB">
<feFlood flood-opacity="0" result="BackgroundImageFix"/>
<feColorMatrix in="SourceAlpha" type="matrix" values="0 0 0 0 0 0 0 0 0 0 0 0 0 0 0 0 0 0 127 0" result="hardAlpha"/>
<feOffset dy="2.48947"/>
<feComposite in2="hardAlpha" operator="out"/>
<feColorMatrix type="matrix" values="0 0 0 0 0 0 0 0 0 0 0 0 0 0 0 0 0 0 0.66 0"/>
<feBlend mode="normal" in2="BackgroundImageFix" result="effect1_dropShadow_79_1680"/>
<feBlend mode="normal" in="SourceGraphic" in2="effect1_dropShadow_79_1680" result="shape"/>
</filter>
<linearGradient id="paint0_linear_79_1680" x1="93.1272" y1="33.7271" x2="57.673" y2="133.95" gradientUnits="userSpaceOnUse">
<stop stop-color="#BEE0FF"/>
<stop offset="1" stop-color="#3380C5"/>
</linearGradient>
</defs>
</svg>
