<svg width="93" height="37" viewBox="0 0 93 37" fill="none" xmlns="http://www.w3.org/2000/svg">
<path d="M88.9082 37H85.99C85.6398 37 85.3577 36.6338 85.3577 36.1792C85.3577 35.7246 85.6398 35.3584 85.99 35.3584H88.9082C89.2583 35.3584 89.5404 35.7246 89.5404 36.1792C89.5404 36.6338 89.2583 37 88.9082 37ZM81.1263 37H78.208C77.8579 37 77.5758 36.6338 77.5758 36.1792C77.5758 35.7246 77.8579 35.3584 78.208 35.3584H81.1263C81.4764 35.3584 81.7585 35.7246 81.7585 36.1792C81.7585 36.6338 81.4764 37 81.1263 37ZM73.3444 37H70.4261C70.076 37 69.7939 36.6338 69.7939 36.1792C69.7939 35.7246 70.076 35.3584 70.4261 35.3584H73.3444C73.6945 35.3584 73.9766 35.7246 73.9766 36.1792C73.9766 36.6338 73.6945 37 73.3444 37ZM65.5625 37H62.6442C62.2941 37 62.012 36.6338 62.012 36.1792C62.012 35.7246 62.2941 35.3584 62.6442 35.3584H65.5625C65.9126 35.3584 66.1947 35.7246 66.1947 36.1792C66.1947 36.6338 65.9126 37 65.5625 37ZM57.7806 37H54.8623C54.5122 37 54.2301 36.6338 54.2301 36.1792C54.2301 35.7246 54.5122 35.3584 54.8623 35.3584H57.7806C58.1307 35.3584 58.4128 35.7246 58.4128 36.1792C58.4128 36.6338 58.1307 37 57.7806 37ZM49.9987 37H47.0804C46.7303 37 46.4482 36.6338 46.4482 36.1792C46.4482 35.7246 46.7303 35.3584 47.0804 35.3584H49.9987C50.3488 35.3584 50.6309 35.7246 50.6309 36.1792C50.6309 36.6338 50.3488 37 49.9987 37ZM42.2168 37H39.2985C38.9484 37 38.6663 36.6338 38.6663 36.1792C38.6663 35.7246 38.9484 35.3584 39.2985 35.3584H42.2168C42.5669 35.3584 42.849 35.7246 42.849 36.1792C42.849 36.6338 42.5669 37 42.2168 37ZM34.4349 37H31.5166C31.1665 37 30.8844 36.6338 30.8844 36.1792C30.8844 35.7246 31.1665 35.3584 31.5166 35.3584H34.4349C34.785 35.3584 35.0671 35.7246 35.0671 36.1792C35.0671 36.6338 34.785 37 34.4349 37ZM26.653 37H23.7347C23.3846 37 23.1025 36.6338 23.1025 36.1792C23.1025 35.7246 23.3846 35.3584 23.7347 35.3584H26.653C27.0031 35.3584 27.2852 35.7246 27.2852 36.1792C27.2852 36.6338 27.0031 37 26.653 37ZM18.871 37H15.9528C15.6027 37 15.3206 36.6338 15.3206 36.1792C15.3206 35.7246 15.6027 35.3584 15.9528 35.3584H18.871C19.2212 35.3584 19.5033 35.7246 19.5033 36.1792C19.5033 36.6338 19.2212 37 18.871 37ZM11.0891 37H8.17094C7.82075 37 7.53866 36.6338 7.53866 36.1792C7.53866 35.7246 7.82075 35.3584 8.17094 35.3584H11.0891C11.4393 35.3584 11.7214 35.7246 11.7214 36.1792C11.7214 36.6338 11.4393 37 11.0891 37ZM3.30725 37H1.36177C1.01159 37 0.729492 36.6338 0.729492 36.1792V32.3908C0.729492 31.9362 1.01159 31.57 1.36177 31.57C1.71196 31.57 1.99405 31.9362 1.99405 32.3908V35.3584H3.30725C3.65743 35.3584 3.93953 35.7246 3.93953 36.1792C3.93953 36.6338 3.65743 37 3.30725 37ZM91.8264 34.4744C91.4762 34.4744 91.1941 34.1082 91.1941 33.6536V29.8652C91.1941 29.4106 91.4762 29.0444 91.8264 29.0444C92.1766 29.0444 92.4587 29.4106 92.4587 29.8652V33.6536C92.4587 34.1082 92.1766 34.4744 91.8264 34.4744ZM1.36177 26.8976C1.01159 26.8976 0.729492 26.5314 0.729492 26.0768V22.2884C0.729492 21.8338 1.01159 21.4676 1.36177 21.4676C1.71196 21.4676 1.99405 21.8338 1.99405 22.2884V26.0768C1.99405 26.5314 1.71196 26.8976 1.36177 26.8976ZM91.8264 24.372C91.4762 24.372 91.1941 24.0058 91.1941 23.5512V19.7628C91.1941 19.3082 91.4762 18.942 91.8264 18.942C92.1766 18.942 92.4587 19.3082 92.4587 19.7628V23.5512C92.4587 24.0058 92.1766 24.372 91.8264 24.372ZM1.36177 16.7952C1.01159 16.7952 0.729492 16.429 0.729492 15.9744V12.186C0.729492 11.7314 1.01159 11.3652 1.36177 11.3652C1.71196 11.3652 1.99405 11.7314 1.99405 12.186V15.9744C1.99405 16.429 1.71196 16.7952 1.36177 16.7952ZM91.8264 14.2696C91.4762 14.2696 91.1941 13.9034 91.1941 13.4488V9.66041C91.1941 9.2058 91.4762 8.83959 91.8264 8.83959C92.1766 8.83959 92.4587 9.2058 92.4587 9.66041V13.4488C92.4587 13.9034 92.1766 14.2696 91.8264 14.2696ZM1.36177 6.69283C1.01159 6.69283 0.729492 6.32662 0.729492 5.87201V2.08362C0.729492 1.62901 1.01159 1.2628 1.36177 1.2628C1.71196 1.2628 1.99405 1.62901 1.99405 2.08362V5.87201C1.99405 6.32662 1.71196 6.69283 1.36177 6.69283ZM91.8264 4.16724C91.4762 4.16724 91.1941 3.80102 91.1941 3.34642V1.64164H90.8536C90.5035 1.64164 90.2214 1.27543 90.2214 0.820819C90.2214 0.366212 90.5035 0 90.8536 0H91.8264C92.1766 0 92.4587 0.366212 92.4587 0.820819V3.34642C92.4587 3.80102 92.1766 4.16724 91.8264 4.16724ZM85.99 1.64164H83.0717C82.7216 1.64164 82.4395 1.27543 82.4395 0.820819C82.4395 0.366212 82.7216 0 83.0717 0H85.99C86.3401 0 86.6222 0.366212 86.6222 0.820819C86.6222 1.27543 86.3401 1.64164 85.99 1.64164ZM78.208 1.64164H75.2898C74.9397 1.64164 74.6576 1.27543 74.6576 0.820819C74.6576 0.366212 74.9397 0 75.2898 0H78.208C78.5582 0 78.8403 0.366212 78.8403 0.820819C78.8403 1.27543 78.5582 1.64164 78.208 1.64164ZM70.4261 1.64164H67.5079C67.1577 1.64164 66.8757 1.27543 66.8757 0.820819C66.8757 0.366212 67.1577 0 67.5079 0H70.4261C70.7763 0 71.0584 0.366212 71.0584 0.820819C71.0584 1.27543 70.7763 1.64164 70.4261 1.64164ZM62.6442 1.64164H59.726C59.3758 1.64164 59.0938 1.27543 59.0938 0.820819C59.0938 0.366212 59.3758 0 59.726 0H62.6442C62.9944 0 63.2765 0.366212 63.2765 0.820819C63.2765 1.27543 62.9944 1.64164 62.6442 1.64164ZM54.8623 1.64164H51.9441C51.5939 1.64164 51.3119 1.27543 51.3119 0.820819C51.3119 0.366212 51.5939 0 51.9441 0H54.8623C55.2125 0 55.4946 0.366212 55.4946 0.820819C55.4946 1.27543 55.2125 1.64164 54.8623 1.64164ZM47.0804 1.64164H44.1622C43.812 1.64164 43.5299 1.27543 43.5299 0.820819C43.5299 0.366212 43.812 0 44.1622 0H47.0804C47.4306 0 47.7127 0.366212 47.7127 0.820819C47.7127 1.27543 47.4306 1.64164 47.0804 1.64164ZM39.2985 1.64164H36.3803C36.0301 1.64164 35.748 1.27543 35.748 0.820819C35.748 0.366212 36.0301 0 36.3803 0H39.2985C39.6487 0 39.9308 0.366212 39.9308 0.820819C39.9308 1.27543 39.6487 1.64164 39.2985 1.64164ZM31.5166 1.64164H28.5984C28.2482 1.64164 27.9661 1.27543 27.9661 0.820819C27.9661 0.366212 28.2482 0 28.5984 0H31.5166C31.8668 0 32.1489 0.366212 32.1489 0.820819C32.1489 1.27543 31.8668 1.64164 31.5166 1.64164ZM23.7347 1.64164H20.8165C20.4663 1.64164 20.1842 1.27543 20.1842 0.820819C20.1842 0.366212 20.4663 0 20.8165 0H23.7347C24.0849 0 24.367 0.366212 24.367 0.820819C24.367 1.27543 24.0849 1.64164 23.7347 1.64164ZM15.9528 1.64164H13.0346C12.6844 1.64164 12.4023 1.27543 12.4023 0.820819C12.4023 0.366212 12.6844 0 13.0346 0H15.9528C16.303 0 16.5851 0.366212 16.5851 0.820819C16.5851 1.27543 16.303 1.64164 15.9528 1.64164ZM8.17094 1.64164H5.25272C4.90254 1.64164 4.62044 1.27543 4.62044 0.820819C4.62044 0.366212 4.90254 0 5.25272 0H8.17094C8.52112 0 8.80322 0.366212 8.80322 0.820819C8.80322 1.27543 8.52112 1.64164 8.17094 1.64164Z" fill="white"/>
<path d="M30.6205 27V10.9H34.0705L40.9205 20.525V10.9H44.9705V27H41.4955L34.6455 17.4V27H30.6205ZM55.0401 27.25C52.4234 27.25 50.4317 26.5833 49.0651 25.25C47.6984 23.9167 47.0151 21.8417 47.0151 19.025C47.0151 16.0417 47.6984 13.9 49.0651 12.6C50.4317 11.3 52.4234 10.65 55.0401 10.65C57.6567 10.65 59.6484 11.3 61.0151 12.6C62.3817 13.9 63.0651 16.0417 63.0651 19.025C63.0651 21.8417 62.3817 23.9167 61.0151 25.25C59.6484 26.5833 57.6567 27.25 55.0401 27.25ZM55.0401 23.825C56.3901 23.825 57.3734 23.4417 57.9901 22.675C58.6234 21.8917 58.9401 20.675 58.9401 19.025C58.9401 17.225 58.6234 15.9583 57.9901 15.225C57.3734 14.475 56.3901 14.1 55.0401 14.1C53.6734 14.1 52.6734 14.475 52.0401 15.225C51.4234 15.9583 51.1151 17.225 51.1151 19.025C51.1151 20.675 51.4234 21.8917 52.0401 22.675C52.6734 23.4417 53.6734 23.825 55.0401 23.825Z" fill="#0A4472"/>
</svg>
