<svg width="225" height="250" viewBox="0 0 225 250" fill="none" xmlns="http://www.w3.org/2000/svg">
<path d="M6.29443 35.07C6.29443 35.07 -1.93499 222.878 0.425562 236.245C3.15427 251.789 59.5908 250.649 115.161 249.24C168.934 247.872 221.862 246.566 224.526 241.986C226.583 238.442 221.278 35.07 221.278 35.07H6.31611H6.29443Z" fill="white"/>
<path d="M6.35938 35.1112C6.35938 35.1112 -1.91335 222.836 0.555481 236.059C3.4791 251.623 59.8507 250.545 115.204 249.177C168.956 247.851 221.819 246.483 224.461 241.903C226.497 238.359 221.234 35.1112 221.234 35.1112H6.35938Z" fill="#FEFEFE"/>
<path d="M6.40268 35.1318C6.40268 35.1318 -1.91335 222.774 0.685423 235.851C3.80395 251.436 60.0889 250.441 115.226 249.094C168.956 247.83 221.754 246.379 224.374 241.799C226.41 238.235 221.191 35.1318 221.191 35.1318H6.40268Z" fill="#FDFDFD"/>
<path d="M6.44622 35.1529C6.44622 35.1529 -1.93482 222.712 0.815544 235.644C4.12897 251.271 60.349 250.317 115.27 249.033C168.978 247.81 221.711 246.318 224.31 241.696C226.324 238.131 221.148 35.1529 221.148 35.1529H6.44622Z" fill="#FCFCFC"/>
<path d="M6.48936 35.1736C6.48936 35.1736 -1.91332 222.65 0.945327 235.437C4.45366 251.084 60.587 250.214 115.291 248.95C168.977 247.768 221.624 246.214 224.223 241.592C226.237 238.028 221.104 35.1736 221.104 35.1736H6.48936Z" fill="#FBFBFB"/>
<path d="M6.5327 35.1944C6.5327 35.1944 -1.91327 222.588 1.07531 235.23C4.77856 250.898 60.847 250.089 115.335 248.867C169.021 247.727 221.581 246.11 224.158 241.489C226.15 237.903 221.061 35.1944 221.061 35.1944H6.5327Z" fill="#FAFAFA"/>
<path d="M6.59756 35.2358C6.59756 35.2358 -1.89173 222.567 1.20513 235.043C5.10329 250.753 61.1067 250.007 115.356 248.825C169.021 247.748 221.516 246.048 224.093 241.427C226.085 237.841 221.039 35.2565 221.039 35.2565H6.57595L6.59756 35.2358Z" fill="#F9F9F9"/>
<path d="M6.64083 35.2565C6.64083 35.2565 -1.87016 222.505 1.33499 234.836C5.4497 250.587 61.3449 249.882 115.399 248.742C169.042 247.706 221.472 245.945 224.028 241.302C225.999 237.717 221.018 35.2565 221.018 35.2565H6.64083Z" fill="#F8F8F8"/>
<path d="M6.68432 35.2773C6.68432 35.2773 -1.84831 222.443 1.46512 234.629C5.77474 250.421 61.605 249.779 115.443 248.68C169.064 247.685 221.429 245.862 223.963 241.219C225.912 237.634 220.974 35.298 220.974 35.298H6.68432V35.2773Z" fill="#F7F7F7"/>
<path d="M6.72751 35.298C6.72751 35.298 -1.82682 222.401 1.59489 234.401C6.09942 250.235 61.843 249.634 115.464 248.577C169.064 247.623 221.364 245.737 223.876 241.095C225.825 237.489 220.931 35.298 220.931 35.298H6.72751Z" fill="#F6F6F6"/>
<path d="M6.77087 35.3395C6.77087 35.3395 -1.8051 222.36 1.72489 234.214C6.44599 250.09 62.103 249.53 115.508 248.514C169.086 247.623 221.321 245.654 223.811 241.012C225.739 237.406 220.888 35.3395 220.888 35.3395H6.77087Z" fill="#F5F5F5"/>
<path d="M6.81414 35.3602C6.81414 35.3602 -1.78343 222.298 1.83319 234.007C6.77085 249.924 62.3195 249.426 115.508 248.452C169.086 247.603 221.213 245.572 223.703 240.908C225.63 237.302 220.823 35.3602 220.823 35.3602H6.79253H6.81414Z" fill="#F4F4F4"/>
<path d="M6.87908 35.3809C6.87908 35.3809 -1.74012 222.235 1.98478 233.8C7.139 249.779 62.601 249.302 115.573 248.369C169.129 247.561 221.191 245.468 223.66 240.805C225.565 237.178 220.823 35.3809 220.823 35.3809H6.87908Z" fill="#F3F3F3"/>
<path d="M6.9228 35.4016C6.9228 35.4016 -1.69645 222.194 2.11508 233.593C7.46421 249.613 62.8396 249.198 115.616 248.286C169.151 247.52 221.148 245.364 223.595 240.701C225.501 237.074 220.78 35.4016 220.78 35.4016H6.9228Z" fill="#F2F2F2"/>
<path d="M6.96559 35.4223C6.96559 35.4223 -1.65364 222.132 2.24451 233.385C7.81021 249.468 63.099 249.074 115.637 248.224C169.15 247.52 221.082 245.302 223.508 240.618C225.392 236.991 220.736 35.4223 220.736 35.4223H6.96559Z" fill="#F1F1F1"/>
<path d="M7.00908 35.4638C7.00908 35.4638 -1.61014 222.09 2.37464 233.199C8.1569 249.323 63.3374 248.991 115.681 248.162C169.172 247.499 221.039 245.219 223.443 240.535C225.306 236.888 220.693 35.4638 220.693 35.4638H7.00908Z" fill="#F0F0F0"/>
<path d="M7.05261 35.4845C7.05261 35.4845 -1.56667 222.049 2.48307 232.992C8.50355 249.178 63.5758 248.867 115.681 248.079C169.151 247.457 220.953 245.116 223.357 240.411C225.219 236.763 220.65 35.4638 220.65 35.4638H7.05261V35.4845Z" fill="#EFEFEF"/>
<path d="M7.11747 35.5052C7.11747 35.5052 -1.50179 221.987 2.63458 232.784C8.87163 249.032 63.8356 248.763 115.746 248.017C169.216 247.437 220.909 245.033 223.313 240.328C225.154 236.681 220.65 35.5052 220.65 35.5052H7.13908H7.11747Z" fill="#EEEEEE"/>
<path d="M7.16067 35.526C7.16067 35.526 -1.45858 221.925 2.76442 232.577C9.21803 248.887 64.0954 248.639 115.789 247.934C169.237 247.416 220.866 244.929 223.248 240.225C225.089 236.577 220.606 35.526 220.606 35.526H7.18235H7.16067Z" fill="#EDEDED"/>
<path d="M7.20379 35.5674C7.20379 35.5674 -1.39378 221.904 2.89419 232.391C9.58601 248.763 64.3334 248.452 115.811 247.893C169.237 247.312 220.801 244.867 223.161 240.162C224.981 236.494 220.563 35.5881 220.563 35.5881H7.20379V35.5674Z" fill="#ECECEC"/>
<path d="M7.24713 35.5881C7.24713 35.5881 -1.32883 221.842 3.02411 232.163C9.95416 248.597 64.5933 248.307 115.854 247.789C169.259 247.25 220.758 244.742 223.096 240.017C224.916 236.349 220.519 35.5674 220.519 35.5674H7.24713V35.5881Z" fill="#EBEBEB"/>
<path d="M7.29069 35.6088C7.29069 35.6088 -1.26355 221.779 3.1327 231.955C10.2793 248.452 64.8101 248.204 115.854 247.706C169.237 247.209 220.671 244.639 222.988 239.914C224.786 236.245 220.455 35.5881 220.455 35.5881H7.26908L7.29069 35.6088Z" fill="#EAEAEA"/>
<path d="M7.334 35.6295C7.334 35.6295 -1.19863 221.738 3.26259 231.748C10.6474 248.307 65.0699 248.079 115.897 247.644C169.259 247.188 220.628 244.556 222.923 239.831C224.699 236.142 220.433 35.6295 220.433 35.6295H7.334Z" fill="#E9E9E9"/>
<path d="M7.39921 35.6503C7.39921 35.6503 -1.11182 221.676 3.41437 231.541C11.0374 248.183 65.3301 247.955 115.941 247.561C169.302 247.147 220.585 244.452 222.859 239.727C224.635 236.038 220.39 35.6503 220.39 35.6503H7.37753H7.39921Z" fill="#E8E8E8"/>
<path d="M7.44247 35.6917C7.44247 35.6917 -1.04681 221.634 3.54435 231.354C11.4056 248.058 65.5899 247.872 115.984 247.499C169.324 247.126 220.52 244.369 222.794 239.644C224.548 235.955 220.368 35.6917 220.368 35.6917H7.44247Z" fill="#E7E7E7"/>
<path d="M7.48564 35.7125C7.48564 35.7125 -0.960313 221.572 3.67416 231.147C11.7953 247.913 65.828 247.748 116.028 247.437C169.346 247.105 220.476 244.307 222.729 239.541C224.483 235.831 220.325 35.7125 220.325 35.7125H7.48564Z" fill="#E6E6E6"/>
<path d="M7.52856 35.7332C7.52856 35.7332 -0.895805 221.51 3.78198 230.94C12.1414 247.768 66.0658 247.623 116.027 247.354C169.324 247.064 220.389 244.204 222.62 239.437C224.352 235.727 220.259 35.7332 220.259 35.7332H7.50688H7.52856Z" fill="#E5E5E5"/>
<path d="M7.57203 35.7539C7.57203 35.7539 -0.808999 221.448 3.9121 230.733C12.5313 247.644 66.3042 247.52 116.071 247.271C169.345 247.022 220.346 244.1 222.577 239.333C224.309 235.624 220.26 35.7539 220.26 35.7539H7.59371H7.57203Z" fill="#E4E4E4"/>
<path d="M7.63718 35.7954C7.63718 35.7954 -0.700526 221.406 4.06388 230.546C12.9214 247.52 66.5859 247.416 116.114 247.229C169.367 247.022 220.303 244.038 222.512 239.271C224.223 235.561 220.216 35.8161 220.216 35.8161H7.63718V35.7954Z" fill="#E3E3E3"/>
<path d="M7.68016 35.8161C7.68016 35.8161 -0.61421 221.344 4.19351 230.339C13.3109 247.375 66.8239 247.292 116.157 247.147C169.41 246.981 220.259 243.934 222.447 239.147C224.136 235.416 220.194 35.8161 220.194 35.8161H7.70184H7.68016Z" fill="#E2E2E2"/>
<path d="M7.72387 35.8368C7.72387 35.8368 -0.52723 221.282 4.3238 230.111C13.701 247.229 67.0841 246.898 116.201 247.064C169.432 247.229 220.216 243.831 222.382 239.043C224.071 235.313 220.152 35.8368 220.152 35.8368H7.74549H7.72387Z" fill="#E1E1E1"/>
<path d="M7.76715 35.8576C7.76715 35.8576 -0.440644 221.22 4.43205 229.904C14.0691 247.084 67.3006 246.774 116.201 246.981C169.411 247.209 220.108 243.727 222.274 238.94C223.941 235.209 220.087 35.8576 220.087 35.8576H7.76715Z" fill="#E0E0E0"/>
<path d="M7.8105 35.8782C7.8105 35.8782 -0.332303 221.158 4.56204 229.696C14.4807 246.939 67.5605 246.649 116.244 246.898C169.432 247.167 220.065 243.623 222.209 238.836C223.876 235.085 220.065 35.8782 220.065 35.8782H7.8105Z" fill="#DFDFDF"/>
<path d="M7.87515 35.9197C7.87515 35.9197 -0.224393 221.116 4.71327 229.51C14.8918 246.815 67.8417 246.566 116.287 246.856C169.454 247.167 220.021 243.561 222.144 238.753C223.789 235.002 220.021 35.9197 220.021 35.9197H7.85347H7.87515Z" fill="#DEDEDE"/>
<path d="M7.91865 35.9405C7.91865 35.9405 -0.115908 221.054 4.84341 229.303C15.3035 246.67 68.0801 246.442 116.331 246.774C169.475 247.147 219.978 243.458 222.079 238.649C223.725 234.898 220 35.9405 220 35.9405H7.91865Z" fill="#DDDDDD"/>
<path d="M7.96221 35.9612C7.96221 35.9612 -0.0290098 220.992 4.97362 229.095C15.6935 246.546 68.3403 246.318 116.374 246.691C169.519 247.105 219.935 243.354 222.014 238.546C223.638 234.774 219.957 35.9612 219.957 35.9612H7.96221Z" fill="#DCDCDC"/>
<path d="M8.00525 35.9819C8.00525 35.9819 0.0789914 220.909 5.08162 228.888C16.0831 246.4 68.5565 246.214 116.374 246.628C169.497 247.105 219.848 243.292 221.906 238.463C223.508 234.691 219.891 36.0026 219.891 36.0026H7.98357L8.00525 35.9819Z" fill="#DBDBDB"/>
<path d="M8.0487 36.0233C8.0487 36.0233 0.187427 220.868 5.21171 228.701C16.4947 246.276 68.8166 246.4 116.417 246.566C169.519 246.753 219.783 243.209 221.841 238.38C223.443 234.608 219.87 36.0233 219.87 36.0233H8.0487Z" fill="#DADADA"/>
<path d="M8.09179 36.0441C8.09179 36.0441 0.295504 220.805 5.34145 228.494C16.9276 246.131 69.0546 246.276 116.439 246.504C169.519 246.753 219.718 243.126 221.776 238.276C223.356 234.505 219.826 36.0441 219.826 36.0441H8.09179Z" fill="#D9D9D9"/>
<path d="M8.15686 36.0648C8.15686 36.0648 0.425564 220.723 5.49316 228.287C17.3609 245.965 69.3362 246.173 116.504 246.421C169.562 246.711 219.697 243.022 221.732 238.173C223.313 234.38 219.827 36.0648 219.827 36.0648H8.17854H8.15686Z" fill="#D8D8D8"/>
<path d="M8.20015 36.0855C8.20015 36.0855 0.533777 220.66 5.62303 228.059C17.7939 245.799 69.5744 246.027 116.525 246.318C169.584 246.649 219.632 242.898 221.646 238.048C223.205 234.256 219.762 36.0648 219.762 36.0648H8.20015V36.0855Z" fill="#D7D7D7"/>
<path d="M8.2436 36.127C8.2436 36.127 0.642195 220.598 5.73145 227.873C18.1839 245.675 69.8128 245.945 116.547 246.276C169.584 246.649 219.567 242.836 221.559 237.986C223.118 234.194 219.718 36.127 219.718 36.127H8.2436Z" fill="#D7D7D7"/>
<path d="M8.28677 36.1477C8.28677 36.1477 0.772005 220.536 5.86126 227.665C18.6169 245.509 70.0508 245.82 116.59 246.193C169.605 246.608 219.523 242.732 221.494 237.862C223.032 234.049 219.675 36.127 219.675 36.127H8.28677V36.1477Z" fill="#D6D6D6"/>
<path d="M8.33012 36.1684C8.33012 36.1684 0.880284 220.453 5.99119 227.458C19.05 245.364 70.3107 245.717 116.612 246.11C169.605 246.587 219.458 242.629 221.407 237.758C222.945 233.945 219.632 36.1477 219.632 36.1477H8.33012V36.1684Z" fill="#D5D5D5"/>
<path d="M8.39542 36.1891C8.39542 36.1891 1.01057 220.391 6.14314 227.251C19.5268 245.198 70.571 245.592 116.677 246.048C169.649 246.566 219.415 242.546 221.364 237.675C222.88 233.862 219.632 36.1891 219.632 36.1891H8.4171H8.39542Z" fill="#D4D4D4"/>
<path d="M8.43869 36.2098C8.43869 36.2098 1.14048 220.308 6.27305 227.044C19.9599 245.033 70.8308 245.489 116.699 245.965C169.649 246.525 219.35 242.442 221.278 237.572C222.772 233.738 219.567 36.2098 219.567 36.2098H8.43869Z" fill="#D3D3D3"/>
<path d="M8.48186 36.2513C8.48186 36.2513 1.24861 220.246 6.38118 226.857C20.3929 244.888 71.0472 245.385 116.721 245.903C169.67 246.504 219.285 242.359 221.191 237.489C222.685 233.655 219.523 36.2513 219.523 36.2513H8.46018H8.48186Z" fill="#D2D2D2"/>
<path d="M8.52479 36.272C8.52479 36.272 1.37819 220.163 6.51076 226.65C20.8473 244.722 71.3067 245.281 116.764 245.841C169.692 246.504 219.242 242.297 221.126 237.385C222.598 233.551 219.48 36.272 219.48 36.272H8.50311H8.52479Z" fill="#D1D1D1"/>
<path d="M8.56845 36.2928C8.56845 36.2928 1.5085 220.101 6.64106 226.443C21.3024 244.556 71.5453 245.157 116.786 245.758C169.692 246.463 219.177 242.193 221.061 237.282C222.534 233.448 219.459 36.2928 219.459 36.2928H8.56845Z" fill="#D0D0D0"/>
<path d="M8.61155 36.3135C8.61155 36.3135 1.63818 220.018 6.77074 226.235C21.757 244.369 71.8049 245.053 116.829 245.696C169.714 246.442 219.133 242.11 220.996 237.199C222.447 233.344 219.437 36.3342 219.437 36.3342H8.63316L8.61155 36.3135Z" fill="#CFCFCF"/>
<path d="M8.67666 36.3549C8.67666 36.3549 1.76828 219.956 6.9225 226.049C22.2552 244.224 72.0649 244.95 116.872 245.634C169.735 246.442 219.09 242.028 220.931 237.116C222.382 233.261 219.393 36.3757 219.393 36.3757H8.67666V36.3549Z" fill="#CECECE"/>
<path d="M8.71976 36.3757C8.71976 36.3757 1.898 219.873 7.03057 225.821C22.6881 244.017 72.303 244.825 116.894 245.53C169.757 246.38 219.003 241.903 220.844 236.971C222.274 233.116 219.35 36.3549 219.35 36.3549H8.71976V36.3757Z" fill="#CDCDCD"/>
<path d="M8.76327 36.3963C8.76327 36.3963 2.02815 219.79 7.16072 225.613C23.1648 243.81 72.5414 244.701 116.937 245.468C169.779 246.359 218.96 241.82 220.78 236.888C222.187 233.012 219.307 36.3963 219.307 36.3963H8.76327Z" fill="#CCCCCC"/>
<path d="M8.80661 36.4171C8.80661 36.4171 2.15807 219.707 7.29063 225.406C23.6412 243.623 72.8013 244.597 116.959 245.385C169.779 246.338 218.895 241.717 220.693 236.784C222.101 232.909 219.264 36.4171 219.264 36.4171H8.80661Z" fill="#CBCBCB"/>
<path d="M8.85004 36.4379C8.85004 36.4379 2.28815 219.603 7.42071 225.199C24.1395 243.416 73.0396 244.494 117.002 245.302C169.8 246.297 218.852 241.613 220.628 236.681C222.014 232.805 219.242 36.4379 219.242 36.4379H8.87172H8.85004Z" fill="#CACACA"/>
<path d="M8.91463 36.4793C8.91463 36.4793 2.43938 219.541 7.57195 225.013C24.6372 243.25 73.3208 244.39 117.045 245.261C169.822 246.297 218.808 241.551 220.563 236.598C221.949 232.701 219.198 36.4793 219.198 36.4793H8.91463Z" fill="#C9C9C9"/>
<path d="M8.95841 36.5C8.95841 36.5 2.56971 219.458 7.68062 224.805C25.114 243.022 73.5378 244.287 117.067 245.178C169.822 246.276 218.744 241.447 220.476 236.494C221.841 232.598 219.155 36.5 219.155 36.5H8.95841Z" fill="#C8C8C8"/>
<path d="M9.00134 36.5208C9.00134 36.5208 2.69936 219.355 7.81027 224.598C25.6118 242.815 73.7973 244.162 117.11 245.116C169.865 246.255 218.679 241.364 220.411 236.411C221.775 232.515 219.112 36.5415 219.112 36.5415H9.00134V36.5208Z" fill="#C7C7C7"/>
<path d="M9.04463 36.5414C9.04463 36.5414 2.82929 219.272 7.9402 224.391C26.1099 242.587 74.0572 244.059 117.132 245.033C169.865 246.214 218.614 241.261 220.324 236.308C221.667 232.411 219.068 36.5622 219.068 36.5622H9.04463V36.5414Z" fill="#C6C6C6"/>
<path d="M9.08803 36.583C9.08803 36.583 2.95927 219.21 8.07018 224.204C26.6297 242.38 74.2955 243.976 117.175 244.971C169.887 246.214 218.57 241.199 220.281 236.225C221.602 232.308 219.068 36.6037 219.068 36.6037H9.10964L9.08803 36.583Z" fill="#C5C5C5"/>
<path d="M9.15312 36.6036C9.15312 36.6036 3.11093 219.106 8.22184 223.997C27.1495 242.152 74.5771 243.851 117.219 244.908C169.909 246.193 218.527 241.116 220.216 236.121C221.537 232.204 219.025 36.6036 219.025 36.6036H9.15312Z" fill="#C4C4C4"/>
<path d="M9.19618 36.6243C9.19618 36.6243 3.26234 219.002 8.32994 223.769C27.6475 241.882 74.7935 243.727 117.24 244.805C169.908 246.152 218.462 240.991 220.13 235.997C221.429 232.08 218.982 36.6036 218.982 36.6036H9.19618V36.6243Z" fill="#C3C3C3"/>
<path d="M9.23967 36.6451C9.23967 36.6451 3.39247 218.919 8.46007 223.562C28.1674 241.634 75.0535 243.623 117.262 244.722C169.909 246.11 218.397 240.888 220.043 235.893C221.343 231.955 218.917 36.6244 218.917 36.6244H9.21805L9.23967 36.6451Z" fill="#C2C2C2"/>
<path d="M9.28318 36.6658C9.28318 36.6658 3.52256 218.816 8.59016 223.355C28.709 241.364 75.2919 243.499 117.305 244.66C169.952 246.09 218.354 240.805 219.978 235.81C221.256 231.872 218.895 36.6658 218.895 36.6658H9.28318Z" fill="#C1C1C1"/>
<path d="M9.32662 36.7072C9.32662 36.7072 3.65265 218.733 8.72025 223.168C29.2289 241.116 75.5519 243.416 117.349 244.597C169.974 246.09 218.289 240.722 219.913 235.706C221.191 231.769 218.874 36.6865 218.874 36.6865H9.3483L9.32662 36.7072Z" fill="#C0C0C0"/>
<path d="M9.36958 36.728C9.36958 36.728 3.78225 218.629 8.84984 222.961C29.7699 240.846 75.7898 243.313 117.37 244.515C169.974 246.048 218.224 240.618 219.827 235.603C221.083 231.644 218.809 36.7073 218.809 36.7073H9.36958V36.728Z" fill="#BFBFBF"/>
<path d="M9.43495 36.7487C9.43495 36.7487 3.93417 218.546 8.98011 222.754C30.3117 240.556 76.05 243.188 117.414 244.452C169.995 246.048 218.181 240.535 219.762 235.52C220.996 231.562 218.787 36.7487 218.787 36.7487H9.43495Z" fill="#BEBEBE"/>
<path d="M9.47794 36.7695C9.47794 36.7695 4.06381 218.443 9.10975 222.546C30.8528 240.266 76.288 243.085 117.435 244.369C169.995 246.007 218.116 240.432 219.675 235.416C220.909 231.458 218.722 36.7695 218.722 36.7695H9.45626H9.47794Z" fill="#BDBDBD"/>
<path d="M9.52132 36.8109C9.52132 36.8109 4.19383 218.36 9.23978 222.36C31.3943 239.997 76.5479 243.085 117.479 244.328C170.017 246.131 218.073 240.37 219.61 235.354C220.823 231.396 218.701 36.8316 218.701 36.8316H9.52132V36.8109Z" fill="#BCBCBC"/>
<path d="M9.56469 36.8316C9.56469 36.8316 4.34544 218.236 9.36972 222.153C31.9574 239.665 76.7861 242.96 117.522 244.245C170.039 246.09 218.029 240.266 219.545 235.23C220.758 231.251 218.679 36.8316 218.679 36.8316H9.5863H9.56469Z" fill="#BBBBBB"/>
<path d="M9.60786 36.8524C9.60786 36.8524 4.47532 218.132 9.4996 221.945C32.5204 239.354 77.0459 242.857 117.543 244.162C170.06 246.048 217.964 240.183 219.48 235.126C220.671 231.147 218.635 36.8524 218.635 36.8524H9.62954H9.60786Z" fill="#BABABA"/>
<path d="M9.67275 36.8731C9.67275 36.8731 4.62683 218.028 9.62946 221.717C33.0833 239.002 77.284 242.711 117.587 244.079C170.082 246.007 217.899 240.079 219.415 235.023C220.606 231.043 218.614 36.8731 218.614 36.8731H9.69443H9.67275Z" fill="#B9B9B9"/>
<path d="M9.71636 36.8938C9.71636 36.8938 4.75708 217.925 9.75971 221.51C33.6467 238.649 77.5442 242.587 117.609 243.996C170.082 245.986 217.834 239.976 219.329 234.919C220.498 230.919 218.549 36.8938 218.549 36.8938H9.69475H9.71636Z" fill="#B8B8B8"/>
<path d="M9.75973 36.9352C9.75973 36.9352 4.88704 217.821 9.88966 221.323C34.2098 238.318 77.7824 242.504 117.652 243.934C170.104 245.965 217.791 239.893 219.264 234.815C220.412 230.815 218.527 36.9145 218.527 36.9145H9.75973V36.9352Z" fill="#B7B7B7"/>
<path d="M9.80267 36.956C9.80267 36.956 5.01662 217.717 10.0192 221.116C34.7942 237.945 78.042 242.38 117.695 243.872C170.125 245.945 217.747 239.81 219.198 234.732C220.346 230.733 218.484 36.956 218.484 36.956H9.80267Z" fill="#B6B6B6"/>
<path d="M9.84612 36.9767C9.84612 36.9767 5.12504 217.593 10.1277 220.909C35.3357 237.572 78.2587 242.276 117.695 243.789C170.104 245.903 217.661 239.706 219.09 234.629C220.216 230.608 218.419 36.9767 218.419 36.9767H9.82451H9.84612Z" fill="#B5B5B5"/>
<path d="M9.88934 36.9974C9.88934 36.9974 5.25483 217.489 10.2575 220.702C35.9203 237.178 78.5185 242.152 117.738 243.706C170.147 245.882 217.618 239.603 219.025 234.525C220.151 230.505 218.397 36.9974 218.397 36.9974H9.88934Z" fill="#B4B4B4"/>
<path d="M9.9545 37.0389C9.9545 37.0389 5.40664 217.386 10.4093 220.515C36.5269 236.805 78.7786 242.069 117.782 243.665C170.169 245.882 217.553 239.541 218.96 234.442C220.065 230.422 218.354 37.0389 218.354 37.0389H9.93282H9.9545Z" fill="#B3B3B3"/>
<path d="M9.99772 37.0596C9.99772 37.0596 5.5365 217.282 10.5391 220.308C37.1115 236.39 79.0384 241.945 117.825 243.582C170.19 245.841 217.509 239.437 218.895 234.339C220 230.297 218.332 37.0596 218.332 37.0596H9.99772Z" fill="#B2B2B2"/>
<path d="M10.0412 37.0803C10.0412 37.0803 5.6449 217.158 10.6692 220.101C37.6964 235.955 79.2767 241.841 117.847 243.52C170.19 245.82 217.445 239.354 218.809 234.256C219.892 230.214 218.268 37.101 218.268 37.101H10.0195L10.0412 37.0803Z" fill="#B1B1B1"/>
<path d="M10.0842 37.101C10.0842 37.101 5.7746 217.033 10.7772 219.894C38.2592 235.52 79.5146 241.717 117.868 243.437C170.19 245.799 217.379 239.25 218.744 234.152C219.805 230.111 218.246 37.1218 218.246 37.1218H10.0842V37.101Z" fill="#B0B0B0"/>
<path d="M10.1278 37.1217C10.1278 37.1217 5.90488 216.909 10.9075 219.686C77.1761 256.162 216.34 242.898 218.657 234.048C219.719 230.007 218.203 37.1424 218.203 37.1424H10.1278V37.1217Z" fill="#AFAFAF"/>
<path d="M5.12244 35.07V221.655C119.512 265.467 220.084 237.095 220.084 237.095V35.07H5.12244Z" fill="#F1F1F1"/>
<path d="M5.12231 221.655C55.9932 241.634 97.2487 245.8 136.49 246.131C184.762 246.546 220.084 237.095 220.084 237.095C220.084 237.095 218.568 229.924 212.872 227.002C187.881 243.064 167.784 245.675 144.676 245.758C87.6332 245.945 40.119 217.448 24.7213 195.563C9.36694 204.951 5.14399 221.655 5.14399 221.655H5.12231Z" fill="url(#paint0_radial_1_5212)"/>
<path opacity="0.2" d="M150.22 35.07H81.2665C81.2448 45.3702 81.3314 59.5252 81.3747 60.7273L84.6232 64.0847L149.138 62.1987L150.22 35.07Z" fill="black"/>
<path d="M94.2404 54.9451C94.2404 55.1316 94.2837 55.3182 94.327 55.5047L96.2977 55.4425C97.4888 55.4011 98.6366 54.3855 98.9398 53.1213L107.754 16.2727C108.079 14.9463 107.148 13.7443 106.108 13.1432C104.527 12.2314 103.531 10.6563 103.488 8.89467C103.401 6.05538 105.74 3.67203 108.707 3.58913L115.442 3.38188C118.409 3.29898 120.899 5.53726 120.986 8.37655C121.051 10.1382 120.163 11.7754 118.647 12.7909C117.629 13.4541 116.806 14.6976 117.196 16.024L128.349 52.2716C128.739 53.5151 129.93 54.4684 131.056 54.427L132.94 54.3648C132.962 54.1783 132.984 53.9918 132.984 53.8052V53.142L131.013 53.2042C130.515 53.2042 129.8 52.6861 129.562 51.9193L118.409 15.6717C118.192 14.9463 118.712 14.2209 119.34 13.8064C121.224 12.563 122.307 10.5319 122.242 8.35583C122.134 4.83262 119.059 2.07622 115.377 2.17985L108.642 2.38709C104.96 2.49072 102.08 5.43363 102.188 8.95684C102.253 11.1329 103.466 13.1225 105.437 14.2417C106.086 14.6147 106.671 15.3193 106.498 16.0447L97.6837 52.8934C97.5105 53.598 96.8391 54.2405 96.2544 54.2612L94.2404 54.3234V54.9866V54.9451Z" fill="#5E5E5E"/>
<path d="M98.9396 53.1213C98.918 53.2457 98.8746 53.37 98.8313 53.4736C98.9179 53.4115 99.0262 53.3286 99.1128 53.2457L108.035 15.7753C108.1 15.4851 108.1 15.195 108.057 14.9256C107.819 14.138 107.234 13.4748 106.584 13.0811C105.805 12.6251 105.198 11.9827 104.787 11.2158C104.354 10.5319 104.115 9.74438 104.094 8.91539C104.05 7.81698 104.419 6.78074 105.068 5.95175C105.935 4.70826 107.342 3.87927 108.966 3.83782L115.182 3.6513C117.911 3.5684 120.206 5.72377 120.293 8.48017C120.358 10.1796 119.535 11.7754 118.127 12.7287C117.326 13.2883 116.633 14.2624 116.698 15.3608C116.698 15.4022 116.698 15.4437 116.72 15.5059L128.002 52.2716C128.154 52.4167 128.306 52.541 128.479 52.6446C128.414 52.5203 128.371 52.3752 128.327 52.2302L117.174 15.9825C116.763 14.6769 117.607 13.4127 118.625 12.7495C120.141 11.7547 121.029 10.0967 120.964 8.3351C120.878 5.4958 118.387 3.25753 115.42 3.34043L108.685 3.54767C105.718 3.63057 103.379 6.01392 103.466 8.85321C103.531 10.6148 104.505 12.2106 106.086 13.1018C107.147 13.7028 108.057 14.9048 107.732 16.2312L98.9179 53.0799L98.9396 53.1213Z" fill="#303030"/>
<path d="M104.441 13.2676C103.596 12.2106 103.098 10.905 103.033 9.49569C102.925 6.05537 105.567 3.17463 108.923 3.07101L115.095 2.88448C118.452 2.78086 121.289 5.51653 121.398 8.95684C121.441 10.3868 121.008 11.734 120.206 12.8324C121.419 11.6303 122.069 10.0345 122.026 8.3351C121.917 4.89479 118.907 2.17984 115.29 2.28346L108.685 2.46999C105.09 2.57361 102.253 5.45435 102.362 8.91539C102.405 10.5941 103.163 12.1485 104.419 13.2676H104.441Z" fill="#9C9C9C"/>
<path d="M81.5063 60.7273L77.8463 25.4745C77.7814 23.5885 77.9979 21.5782 78.3444 20.9772L78.9508 19.8995L145.999 17.9306C145.999 17.9306 146.302 18.4073 146.67 18.9669C147.039 19.5472 147.385 21.5368 147.45 23.4227L146.042 58.8206L81.5279 60.7066L81.5063 60.7273Z" fill="url(#paint1_linear_1_5212)"/>
<path opacity="0.4" d="M145.826 52.5202L147.385 24.7698C127.158 49.1836 90.0389 41.018 82.849 54.3647L145.847 52.5202H145.826Z" fill="black"/>
<path d="M92.5726 51.7742L92.7459 57.0798C92.8108 58.9035 94.4134 60.3543 96.3191 60.2921L101.885 60.1263L101.777 56.6653C101.733 55.3803 102.794 54.3234 104.115 54.2819L123.086 53.7223C124.429 53.6809 125.534 54.6964 125.577 55.9606L125.685 59.4217L131.251 59.2559C133.157 59.1937 134.673 57.6601 134.608 55.8363L134.434 50.5307L92.5726 51.7535V51.7742Z" fill="#030603"/>
<path d="M92.7458 57.0797C92.7458 57.287 92.7891 57.4942 92.8324 57.6808L94.9547 57.6186C96.2325 57.5771 97.4885 56.4787 97.8134 55.1109L107.342 15.2986C107.689 13.8479 106.693 12.5629 105.566 11.8997C103.856 10.9257 102.794 9.20552 102.729 7.29884C102.621 4.23158 105.155 1.66171 108.36 1.55808L115.637 1.35083C118.842 1.24721 121.527 3.67201 121.635 6.73927C121.7 8.64595 120.748 10.4283 119.102 11.506C118.019 12.2106 117.109 13.5784 117.542 14.9877L129.605 54.1783C130.016 55.5254 131.316 56.5616 132.529 56.5202L134.564 56.458C134.586 56.2508 134.608 56.0642 134.608 55.8363V55.1109L132.485 55.1731C131.966 55.1731 131.186 54.6135 130.926 53.7845L118.863 14.594C118.625 13.8064 119.21 13.0189 119.881 12.5837C121.917 11.2573 123.086 9.03972 123.021 6.6771C122.892 2.88447 119.578 -0.120624 115.593 0.00372433L108.317 0.210972C104.354 0.335321 101.213 3.50621 101.343 7.31957C101.408 9.68219 102.729 11.8168 104.852 13.0189C105.566 13.4127 106.173 14.1795 106 14.967L96.4707 54.7793C96.2975 55.5461 95.5611 56.23 94.9114 56.2508L92.7241 56.3129V57.0383L92.7458 57.0797Z" fill="#AAAAAA"/>
<path d="M97.8134 55.1109C97.7917 55.2353 97.7268 55.3803 97.6835 55.5047C97.7918 55.4218 97.9001 55.3596 97.9867 55.256L107.645 14.7598C107.71 14.4489 107.732 14.138 107.667 13.8479C107.429 12.9982 106.779 12.2935 106.064 11.8583C105.242 11.3609 104.57 10.6563 104.115 9.84802C103.661 9.10193 103.379 8.27293 103.357 7.38177C103.314 6.17973 103.726 5.08132 104.397 4.19015C105.328 2.84304 106.866 1.95188 108.62 1.88971L115.333 1.68246C118.279 1.59956 120.769 3.94146 120.856 6.88437C120.921 8.72888 120.033 10.449 118.517 11.4853C117.629 12.0863 116.893 13.1433 116.979 14.3246C116.979 14.366 116.979 14.4282 117.001 14.4696L129.194 54.199C129.345 54.3441 129.518 54.4892 129.713 54.5928C129.648 54.4477 129.583 54.3027 129.54 54.1576L117.477 14.967C117.044 13.537 117.954 12.1899 119.037 11.4853C120.683 10.4076 121.635 8.62526 121.57 6.71858C121.462 3.65131 118.777 1.22651 115.572 1.33014L108.295 1.53738C105.09 1.64101 102.556 4.21088 102.664 7.27815C102.729 9.18482 103.791 10.905 105.501 11.879C106.628 12.5215 107.624 13.8272 107.277 15.2779L97.7484 55.0902L97.8134 55.1109Z" fill="#444444"/>
<path d="M97.0555 56.5202C96.4925 57.1627 95.7129 57.5772 94.9332 57.6186L92.8109 57.6808C92.7676 57.515 92.7459 57.3492 92.7459 57.1834H92.7242V57.8466C92.7242 58.0331 92.7676 58.2196 92.8109 58.4062L94.9332 58.344C96.146 58.3025 97.3371 57.3699 97.7485 56.1886C97.532 56.3337 97.2937 56.458 97.0555 56.5409V56.5202Z" fill="#444444"/>
<path d="M132.507 56.5202C131.792 56.5409 131.056 56.1886 130.471 55.629C130.168 55.5669 129.865 55.4632 129.583 55.2767C130.06 56.4166 131.251 57.2663 132.42 57.2249L134.456 57.1627C134.499 56.9762 134.499 56.7896 134.499 56.6031V56.458L132.507 56.5202Z" fill="#444444"/>
<path d="M103.769 12.024C102.859 10.8842 102.296 9.47489 102.253 7.94126C102.145 4.2108 104.982 1.10208 108.62 0.998461L115.29 0.811938C118.928 0.708314 121.982 3.65123 122.09 7.38169C122.133 8.91532 121.679 10.3868 120.812 11.5681C122.112 10.2832 122.826 8.54228 122.783 6.69777C122.675 2.96731 119.405 0.0451213 115.507 0.148745L108.36 0.355993C104.462 0.480342 101.408 3.58906 101.517 7.31952C101.582 9.1433 102.383 10.822 103.747 12.024H103.769Z" fill="#E8E8E8"/>
<path d="M95.4963 56.7689C96.146 56.7689 96.8607 56.0642 97.0339 55.2974L105.956 15.5058C105.978 15.3608 105.978 15.2364 105.956 15.0914L96.4492 54.8207C96.2759 55.5876 95.5396 56.2715 94.8899 56.2922L92.7026 56.3544V56.8518L95.4963 56.7689Z" fill="#E8E8E8"/>
<rect x="24.5193" y="67.6471" width="175.962" height="110.294" fill="#D9D9D9"/>
<path d="M156.296 89.3048L153.841 89.3133L103.32 89.5212L102.58 83.6481C102.537 80.4434 100.498 77.8465 97.9772 77.8552L84.7822 77.9008C82.3599 78.076 80.5021 80.6197 80.4797 83.7245L79.7793 89.7361C70.0591 91.0049 62.6879 99.5766 62.7221 109.892L62.857 150.487C62.8929 161.27 71.0751 170.122 81.5543 170.653L157.581 170.391C167.991 169.787 176.114 160.879 176.078 150.096L175.943 109.501C175.906 98.3175 167.101 89.2675 156.329 89.3047L156.296 89.3048ZM83.2637 84.0153L83.2632 83.8484C83.2574 82.1124 84.1701 80.8741 84.8902 80.8048L98.1178 80.7591C98.9041 80.89 99.7595 82.1222 99.765 83.7914L100.176 89.2984L82.9213 89.358L83.2637 84.0153ZM173.23 150.106C173.26 159.353 166.312 166.989 157.44 167.52L81.5775 167.782C72.6702 167.345 65.6708 159.725 65.64 150.477L65.5052 109.883C65.4743 100.602 72.4557 92.9328 81.3273 92.4682L156.601 92.2082C165.703 92.2769 173.096 99.9965 173.127 109.511L173.262 150.106L173.23 150.106Z" fill="#868686"/>
<path d="M119.245 103.087C104.708 103.137 92.8953 115.23 92.9446 130.085C92.994 144.941 104.854 156.952 119.424 156.902C133.994 156.851 145.774 144.759 145.724 129.903C145.675 115.047 133.815 103.037 119.245 103.087ZM119.414 154.031C106.416 154.076 95.8045 143.329 95.7604 130.076C95.7164 116.822 106.256 106.003 119.255 105.958C132.253 105.913 142.865 116.66 142.909 129.913C142.953 143.166 132.413 153.986 119.414 154.031Z" fill="#868686"/>
<path d="M119.269 110.331C108.628 110.368 100.014 119.211 100.05 130.061C100.086 140.911 108.759 149.694 119.4 149.657C130.041 149.621 138.656 140.777 138.62 129.928C138.583 119.078 129.91 110.294 119.269 110.331ZM119.39 146.786C110.321 146.818 102.896 139.298 102.866 130.051C102.835 120.804 110.209 113.234 119.279 113.202C128.348 113.171 135.773 120.69 135.804 129.937C135.835 139.185 128.46 146.755 119.39 146.786Z" fill="#868686"/>
<path d="M162.508 96.461L151.54 96.4989L151.474 96.4991C149.314 96.6067 147.617 98.4487 147.625 100.652L147.644 106.494C147.651 108.697 149.36 110.494 151.587 110.62L162.784 110.581C164.945 110.474 166.641 108.632 166.634 106.428L166.614 100.586C166.607 98.3163 164.767 96.4532 162.541 96.4609L162.508 96.461ZM163.785 106.438C163.788 107.106 163.266 107.675 162.676 107.711L151.61 107.749C150.955 107.718 150.429 107.152 150.427 106.484L150.408 100.642C150.405 99.9747 150.927 99.4053 151.582 99.3697L162.649 99.3315C163.271 99.3961 163.796 99.9284 163.799 100.596L163.818 106.438L163.785 106.438Z" fill="#868686"/>
<g clip-path="url(#clip0_1_5212)">
<path d="M140.727 143.951C148.192 131.865 144.634 115.897 132.78 108.285C120.926 100.674 105.265 104.302 97.8001 116.388C90.3352 128.475 93.8933 144.443 105.747 152.054C117.601 159.665 133.262 156.037 140.727 143.951Z" fill="#0A4472"/>
<path d="M115.736 141.72V134.1H107.636V126.6H115.736V118.86H123.296V126.6H131.336V134.1H123.296V141.72H115.736Z" fill="white"/>
</g>
<defs>
<radialGradient id="paint0_radial_1_5212" cx="0" cy="0" r="1" gradientUnits="userSpaceOnUse" gradientTransform="translate(139.327 -97.6929) rotate(180) scale(360.189 344.694)">
<stop offset="0.96" stop-color="white"/>
<stop offset="0.98" stop-color="#FDFDFD"/>
<stop offset="0.99" stop-color="#EAEAEA"/>
<stop offset="1" stop-color="#C4C4C4"/>
</radialGradient>
<linearGradient id="paint1_linear_1_5212" x1="113.809" y1="59.8191" x2="112.61" y2="18.8207" gradientUnits="userSpaceOnUse">
<stop stop-color="#232323"/>
<stop offset="0.02" stop-color="#272727"/>
<stop offset="0.03" stop-color="#333333"/>
<stop offset="0.05" stop-color="#484848"/>
<stop offset="0.07" stop-color="#656565"/>
<stop offset="0.09" stop-color="#8A8A8A"/>
<stop offset="0.1" stop-color="#A7A7A7"/>
<stop offset="0.14" stop-color="#232423"/>
<stop offset="0.15" stop-color="#000400"/>
<stop offset="0.66"/>
<stop offset="0.76" stop-color="#030303"/>
<stop offset="0.84" stop-color="#0D0D0D"/>
<stop offset="0.91" stop-color="#1E1E1E"/>
<stop offset="0.96" stop-color="#2E2E2E"/>
<stop offset="1" stop-color="#363435"/>
</linearGradient>
<clipPath id="clip0_1_5212">
<rect width="50.7294" height="51.7241" fill="white" transform="translate(93.8992 104.31)"/>
</clipPath>
</defs>
</svg>
