<svg width="328" height="86" viewBox="0 0 328 86" fill="none" xmlns="http://www.w3.org/2000/svg">
<path d="M315.304 78H304.87C303.617 78 302.609 77.2973 302.609 76.4249C302.609 75.5526 303.617 74.8498 304.87 74.8498H315.304C316.557 74.8498 317.565 75.5526 317.565 76.4249C317.565 77.2973 316.557 78 315.304 78ZM287.478 78H277.043C275.791 78 274.783 77.2973 274.783 76.4249C274.783 75.5526 275.791 74.8498 277.043 74.8498H287.478C288.73 74.8498 289.739 75.5526 289.739 76.4249C289.739 77.2973 288.73 78 287.478 78ZM259.652 78H249.217C247.965 78 246.957 77.2973 246.957 76.4249C246.957 75.5526 247.965 74.8498 249.217 74.8498H259.652C260.904 74.8498 261.913 75.5526 261.913 76.4249C261.913 77.2973 260.904 78 259.652 78ZM231.826 78H221.391C220.139 78 219.13 77.2973 219.13 76.4249C219.13 75.5526 220.139 74.8498 221.391 74.8498H231.826C233.078 74.8498 234.087 75.5526 234.087 76.4249C234.087 77.2973 233.078 78 231.826 78ZM204 78H193.565C192.313 78 191.304 77.2973 191.304 76.4249C191.304 75.5526 192.313 74.8498 193.565 74.8498H204C205.252 74.8498 206.261 75.5526 206.261 76.4249C206.261 77.2973 205.252 78 204 78ZM176.174 78H165.739C164.487 78 163.478 77.2973 163.478 76.4249C163.478 75.5526 164.487 74.8498 165.739 74.8498H176.174C177.426 74.8498 178.435 75.5526 178.435 76.4249C178.435 77.2973 177.426 78 176.174 78ZM148.348 78H137.913C136.661 78 135.652 77.2973 135.652 76.4249C135.652 75.5526 136.661 74.8498 137.913 74.8498H148.348C149.6 74.8498 150.609 75.5526 150.609 76.4249C150.609 77.2973 149.6 78 148.348 78ZM120.522 78H110.087C108.835 78 107.826 77.2973 107.826 76.4249C107.826 75.5526 108.835 74.8498 110.087 74.8498H120.522C121.774 74.8498 122.783 75.5526 122.783 76.4249C122.783 77.2973 121.774 78 120.522 78ZM92.6956 78H82.2609C81.0087 78 80 77.2973 80 76.4249C80 75.5526 81.0087 74.8498 82.2609 74.8498H92.6956C93.9478 74.8498 94.9565 75.5526 94.9565 76.4249C94.9565 77.2973 93.9478 78 92.6956 78ZM64.8696 78H54.4348C53.1826 78 52.1739 77.2973 52.1739 76.4249C52.1739 75.5526 53.1826 74.8498 54.4348 74.8498H64.8696C66.1217 74.8498 67.1304 75.5526 67.1304 76.4249C67.1304 77.2973 66.1217 78 64.8696 78ZM37.0435 78H26.6087C25.3565 78 24.3478 77.2973 24.3478 76.4249C24.3478 75.5526 25.3565 74.8498 26.6087 74.8498H37.0435C38.2957 74.8498 39.3043 75.5526 39.3043 76.4249C39.3043 77.2973 38.2957 78 37.0435 78ZM9.21739 78H2.26087C1.0087 78 0 77.2973 0 76.4249V69.1553C0 68.2829 1.0087 67.5802 2.26087 67.5802C3.51304 67.5802 4.52174 68.2829 4.52174 69.1553V74.8498H9.21739C10.4696 74.8498 11.4783 75.5526 11.4783 76.4249C11.4783 77.2973 10.4696 78 9.21739 78ZM325.739 73.1536C324.487 73.1536 323.478 72.4509 323.478 71.5785V64.3089C323.478 63.4365 324.487 62.7338 325.739 62.7338C326.991 62.7338 328 63.4365 328 64.3089V71.5785C328 72.4509 326.991 73.1536 325.739 73.1536ZM2.26087 58.6143C1.0087 58.6143 0 57.9116 0 57.0392V49.7696C0 48.8973 1.0087 48.1945 2.26087 48.1945C3.51304 48.1945 4.52174 48.8973 4.52174 49.7696V57.0392C4.52174 57.9116 3.51304 58.6143 2.26087 58.6143ZM325.739 53.7679C324.487 53.7679 323.478 53.0652 323.478 52.1928V44.9232C323.478 44.0509 324.487 43.3481 325.739 43.3481C326.991 43.3481 328 44.0509 328 44.9232V52.1928C328 53.0652 326.991 53.7679 325.739 53.7679ZM2.26087 39.2287C1.0087 39.2287 0 38.5259 0 37.6536V30.384C0 29.5116 1.0087 28.8089 2.26087 28.8089C3.51304 28.8089 4.52174 29.5116 4.52174 30.384V37.6536C4.52174 38.5259 3.51304 39.2287 2.26087 39.2287ZM325.739 34.3823C324.487 34.3823 323.478 33.6795 323.478 32.8072V25.5375C323.478 24.6652 324.487 23.9625 325.739 23.9625C326.991 23.9625 328 24.6652 328 25.5375V32.8072C328 33.6795 326.991 34.3823 325.739 34.3823ZM2.26087 19.843C1.0087 19.843 0 19.1403 0 18.2679V10.9983C0 10.1259 1.0087 9.42321 2.26087 9.42321C3.51304 9.42321 4.52174 10.1259 4.52174 10.9983V18.2679C4.52174 19.1403 3.51304 19.843 2.26087 19.843ZM325.739 14.9966C324.487 14.9966 323.478 14.2939 323.478 13.4215V10.1502H322.261C321.009 10.1502 320 9.44744 320 8.57509C320 7.70273 321.009 7 322.261 7H325.739C326.991 7 328 7.70273 328 8.57509V13.4215C328 14.2939 326.991 14.9966 325.739 14.9966ZM304.87 10.1502H294.435C293.183 10.1502 292.174 9.44744 292.174 8.57509C292.174 7.70273 293.183 7 294.435 7H304.87C306.122 7 307.13 7.70273 307.13 8.57509C307.13 9.44744 306.122 10.1502 304.87 10.1502ZM277.043 10.1502H266.609C265.357 10.1502 264.348 9.44744 264.348 8.57509C264.348 7.70273 265.357 7 266.609 7H277.043C278.296 7 279.304 7.70273 279.304 8.57509C279.304 9.44744 278.296 10.1502 277.043 10.1502ZM249.217 10.1502H238.783C237.53 10.1502 236.522 9.44744 236.522 8.57509C236.522 7.70273 237.53 7 238.783 7H249.217C250.47 7 251.478 7.70273 251.478 8.57509C251.478 9.44744 250.47 10.1502 249.217 10.1502ZM221.391 10.1502H210.957C209.704 10.1502 208.696 9.44744 208.696 8.57509C208.696 7.70273 209.704 7 210.957 7H221.391C222.643 7 223.652 7.70273 223.652 8.57509C223.652 9.44744 222.643 10.1502 221.391 10.1502ZM193.565 10.1502H183.13C181.878 10.1502 180.87 9.44744 180.87 8.57509C180.87 7.70273 181.878 7 183.13 7H193.565C194.817 7 195.826 7.70273 195.826 8.57509C195.826 9.44744 194.817 10.1502 193.565 10.1502ZM165.739 10.1502H155.304C154.052 10.1502 153.043 9.44744 153.043 8.57509C153.043 7.70273 154.052 7 155.304 7H165.739C166.991 7 168 7.70273 168 8.57509C168 9.44744 166.991 10.1502 165.739 10.1502ZM137.913 10.1502H127.478C126.226 10.1502 125.217 9.44744 125.217 8.57509C125.217 7.70273 126.226 7 127.478 7H137.913C139.165 7 140.174 7.70273 140.174 8.57509C140.174 9.44744 139.165 10.1502 137.913 10.1502ZM110.087 10.1502H99.6522C98.4 10.1502 97.3913 9.44744 97.3913 8.57509C97.3913 7.70273 98.4 7 99.6522 7H110.087C111.339 7 112.348 7.70273 112.348 8.57509C112.348 9.44744 111.339 10.1502 110.087 10.1502ZM82.2609 10.1502H71.8261C70.5739 10.1502 69.5652 9.44744 69.5652 8.57509C69.5652 7.70273 70.5739 7 71.8261 7H82.2609C83.513 7 84.5217 7.70273 84.5217 8.57509C84.5217 9.44744 83.513 10.1502 82.2609 10.1502ZM54.4348 10.1502H44C42.7478 10.1502 41.7391 9.44744 41.7391 8.57509C41.7391 7.70273 42.7478 7 44 7H54.4348C55.687 7 56.6956 7.70273 56.6956 8.57509C56.6956 9.44744 55.687 10.1502 54.4348 10.1502ZM26.6087 10.1502H16.1739C14.9217 10.1502 13.913 9.44744 13.913 8.57509C13.913 7.70273 14.9217 7 16.1739 7H26.6087C27.8609 7 28.8696 7.70273 28.8696 8.57509C28.8696 9.44744 27.8609 10.1502 26.6087 10.1502Z" fill="white"/>
<path d="M53.9934 49V36.764H60.0164C60.9917 36.764 61.7961 36.9603 62.4294 37.353C63.0627 37.733 63.5314 38.2523 63.8354 38.911C64.1521 39.5697 64.3104 40.3107 64.3104 41.134C64.3104 41.97 64.1331 42.711 63.7784 43.357C63.4237 44.003 62.9171 44.5097 62.2584 44.877C61.6124 45.2317 60.8397 45.409 59.9404 45.409H57.0524V49H53.9934ZM57.0524 43.053H59.2564C59.9024 43.053 60.3837 42.8757 60.7004 42.521C61.0297 42.1663 61.1944 41.6977 61.1944 41.115C61.1944 40.4817 61.0424 39.994 60.7384 39.652C60.4471 39.2973 59.9847 39.12 59.3514 39.12H57.0524V43.053ZM65.5159 49V36.764H71.6339C73.0779 36.764 74.1419 37.144 74.8259 37.904C75.5099 38.664 75.8519 39.6837 75.8519 40.963C75.8519 41.7863 75.6429 42.5083 75.2249 43.129C74.8069 43.7497 74.2369 44.212 73.5149 44.516C73.6922 44.6553 73.8315 44.8137 73.9329 44.991C74.0469 45.1557 74.1672 45.39 74.2939 45.694L75.7379 49H72.5459L71.1779 45.884C71.0639 45.618 70.9182 45.428 70.7409 45.314C70.5635 45.1873 70.3102 45.124 69.9809 45.124H68.5749V49H65.5159ZM68.5749 42.768H70.8359C71.4312 42.768 71.8935 42.6223 72.2229 42.331C72.5649 42.027 72.7359 41.571 72.7359 40.963C72.7359 39.7343 72.1469 39.12 70.9689 39.12H68.5749V42.768ZM77.4094 49V36.764H86.4344V39.12H80.4684V41.685H85.7314V44.079H80.4684V46.644H86.4344V49H77.4094ZM87.8928 49V36.764H93.9158C94.8912 36.764 95.6955 36.9603 96.3288 37.353C96.9622 37.733 97.4308 38.2523 97.7348 38.911C98.0515 39.5697 98.2098 40.3107 98.2098 41.134C98.2098 41.97 98.0325 42.711 97.6778 43.357C97.3232 44.003 96.8165 44.5097 96.1578 44.877C95.5118 45.2317 94.7392 45.409 93.8398 45.409H90.9518V49H87.8928ZM90.9518 43.053H93.1558C93.8018 43.053 94.2832 42.8757 94.5998 42.521C94.9292 42.1663 95.0938 41.6977 95.0938 41.115C95.0938 40.4817 94.9418 39.994 94.6378 39.652C94.3465 39.2973 93.8842 39.12 93.2508 39.12H90.9518V43.053ZM97.5138 49L102.188 36.764H105.494L110.168 49H106.976L105.874 46.226H101.789L100.706 49H97.5138ZM102.207 43.965H105.456L103.822 39.709L102.207 43.965ZM111.717 49V36.764H117.835C119.279 36.764 120.343 37.144 121.027 37.904C121.711 38.664 122.053 39.6837 122.053 40.963C122.053 41.7863 121.844 42.5083 121.426 43.129C121.008 43.7497 120.438 44.212 119.716 44.516C119.893 44.6553 120.033 44.8137 120.134 44.991C120.248 45.1557 120.368 45.39 120.495 45.694L121.939 49H118.747L117.379 45.884C117.265 45.618 117.119 45.428 116.942 45.314C116.765 45.1873 116.511 45.124 116.182 45.124H114.776V49H111.717ZM114.776 42.768H117.037C117.632 42.768 118.095 42.6223 118.424 42.331C118.766 42.027 118.937 41.571 118.937 40.963C118.937 39.7343 118.348 39.12 117.17 39.12H114.776V42.768ZM123.611 49V36.764H132.636V39.12H126.67V41.685H131.933V44.079H126.67V46.644H132.636V49H123.611ZM137.796 49L142.47 36.764H145.776L150.45 49H147.258L146.156 46.226H142.071L140.988 49H137.796ZM142.489 43.965H145.738L144.104 39.709L142.489 43.965ZM158.912 49V39.12H155.321V36.764H165.562V39.12H161.971V49H158.912ZM166.936 49V36.764H173.054C174.498 36.764 175.562 37.144 176.246 37.904C176.93 38.664 177.272 39.6837 177.272 40.963C177.272 41.7863 177.063 42.5083 176.645 43.129C176.227 43.7497 175.657 44.212 174.935 44.516C175.112 44.6553 175.251 44.8137 175.353 44.991C175.467 45.1557 175.587 45.39 175.714 45.694L177.158 49H173.966L172.598 45.884C172.484 45.618 172.338 45.428 172.161 45.314C171.983 45.1873 171.73 45.124 171.401 45.124H169.995V49H166.936ZM169.995 42.768H172.256C172.851 42.768 173.313 42.6223 173.643 42.331C173.985 42.027 174.156 41.571 174.156 40.963C174.156 39.7343 173.567 39.12 172.389 39.12H169.995V42.768ZM177.596 49L182.27 36.764H185.576L190.25 49H187.058L185.956 46.226H181.871L180.788 49H177.596ZM182.289 43.965H185.538L183.904 39.709L182.289 43.965ZM193.904 49L189.23 36.764H192.422L195.538 45.504L198.673 36.764H201.884L197.21 49H193.904ZM203.155 49V36.764H212.18V39.12H206.214V41.685H211.477V44.079H206.214V46.644H212.18V49H203.155ZM213.638 49V36.764H216.697V46.644H222.473V49H213.638ZM227.74 49V36.764H233.763C234.738 36.764 235.542 36.9603 236.176 37.353C236.809 37.733 237.278 38.2523 237.582 38.911C237.898 39.5697 238.057 40.3107 238.057 41.134C238.057 41.97 237.879 42.711 237.525 43.357C237.17 44.003 236.663 44.5097 236.005 44.877C235.359 45.2317 234.586 45.409 233.687 45.409H230.799V49H227.74ZM230.799 43.053H233.003C233.649 43.053 234.13 42.8757 234.447 42.521C234.776 42.1663 234.941 41.6977 234.941 41.115C234.941 40.4817 234.789 39.994 234.485 39.652C234.193 39.2973 233.731 39.12 233.098 39.12H230.799V43.053ZM239.262 49V36.764H242.321V46.644H248.097V49H239.262ZM248.902 49L253.576 36.764H256.882L261.556 49H258.364L257.262 46.226H253.177L252.094 49H248.902ZM253.595 43.965H256.844L255.21 39.709L253.595 43.965ZM263.105 49V36.764H265.727L270.933 44.079V36.764H274.011V49H271.37L266.164 41.704V49H263.105Z" fill="#C2D953"/>
</svg>
