<svg width="140" height="141" viewBox="0 0 140 141" fill="none" xmlns="http://www.w3.org/2000/svg">
<path opacity="0.7" d="M91.3718 118.424C117.998 106.738 130.11 75.6793 118.424 49.0528C106.738 22.4263 75.6791 10.3147 49.0526 22.0008C22.4261 33.687 10.3145 64.7455 22.0007 91.372C33.6868 117.999 64.7453 130.11 91.3718 118.424Z" fill="#CCCCCC"/>
<path d="M70.8977 118.137C99.9695 117.53 123.045 93.471 122.438 64.3993C121.831 35.3275 97.7712 12.2523 68.6994 12.8593C39.6276 13.4664 16.5524 37.5258 17.1595 66.5976C17.7665 95.6693 41.826 118.745 70.8977 118.137Z" fill="url(#paint0_linear_79_1688)"/>
<g filter="url(#filter0_d_79_1688)">
<path d="M93.1172 58.0821H45.2345C44.6649 58.0821 44.1902 57.6193 44.1902 57.0378V56.3021C44.1902 55.7325 44.653 55.2578 45.2345 55.2578H93.1172C93.6868 55.2578 94.1615 55.7206 94.1615 56.3021V57.0378C94.1615 57.6074 93.6987 58.0821 93.1172 58.0821ZM45.2345 56.3021V57.0378H93.1172V56.3021H45.2345Z" fill="white"/>
<path d="M94.47 60.1944H43.8816C43.312 60.1944 42.8373 59.7316 42.8373 59.1501V58.0821C42.8373 57.5125 43.3001 57.0378 43.8816 57.0378H94.47C95.0396 57.0378 95.5142 57.5007 95.5142 58.0821V59.1501C95.5142 59.7197 95.0514 60.1944 94.47 60.1944ZM43.8934 58.0821V59.1501H94.4581V58.0821H43.8816H43.8934Z" fill="white"/>
<path d="M92.5238 54.5931H45.8278L45.7684 54.1422C45.626 53.0623 45.543 51.9824 45.543 50.95C45.543 37.9202 56.1401 27.3231 69.1699 27.3231C82.1997 27.3231 92.7968 37.9202 92.7968 50.95C92.7968 51.9824 92.7256 53.0623 92.5713 54.1422L92.512 54.5931H92.5238ZM46.7415 53.5488H91.6101C91.7169 52.6707 91.7644 51.7926 91.7644 50.95C91.7644 38.4898 81.6301 28.3555 69.1817 28.3555C56.7334 28.3555 46.5873 38.4898 46.5873 50.95C46.5873 51.7926 46.6347 52.6707 46.7415 53.5488Z" fill="white"/>
<path d="M69.1817 27.6436C67.3305 27.6436 65.8234 26.1365 65.8234 24.2853C65.8234 22.4341 67.3305 20.9269 69.1817 20.9269C71.0329 20.9269 72.54 22.4341 72.54 24.2853C72.54 26.1365 71.0329 27.6436 69.1817 27.6436ZM69.1817 21.9712C67.9119 21.9712 66.8676 23.0037 66.8676 24.2853C66.8676 25.5669 67.9001 26.5993 69.1817 26.5993C70.4633 26.5993 71.4957 25.5669 71.4957 24.2853C71.4957 23.0037 70.4633 21.9712 69.1817 21.9712Z" fill="white"/>
</g>
<g filter="url(#filter1_d_79_1688)">
<path d="M86.1568 70.2688L85.0212 70.2727L61.6596 70.367L61.3175 67.7034C61.2974 66.25 60.3548 65.0722 59.1889 65.0761L53.0873 65.0968C51.9672 65.1763 51.1081 66.3299 51.0977 67.738L50.7739 70.4644C46.2791 71.0399 42.8705 74.9274 42.8863 79.6058L42.9487 98.0165C42.9653 102.907 46.7489 106.921 51.5947 107.162L86.7507 107.043C91.5645 106.77 95.3208 102.73 95.3043 97.8392L95.2419 79.4284C95.2247 74.3564 91.1531 70.2519 86.1719 70.2688L86.1568 70.2688ZM52.3851 67.8699L52.3849 67.7942C52.3822 67.0069 52.8042 66.4453 53.1372 66.4139L59.254 66.3932C59.6175 66.4525 60.0131 67.0113 60.0156 67.7684L60.2058 70.2659L52.2268 70.293L52.3851 67.8699ZM93.987 97.8436C94.0012 102.038 90.788 105.5 86.6858 105.741L51.6054 105.86C47.4865 105.662 44.2498 102.206 44.2356 98.0122L44.1732 79.6014C44.159 75.3924 47.3873 71.9142 51.4897 71.7035L86.2975 71.5856C90.5067 71.6168 93.9252 75.1178 93.9398 79.4328L94.0022 97.8436L93.987 97.8436Z" fill="white"/>
<path d="M69.0236 76.5194C62.3013 76.5422 56.839 82.0265 56.8618 88.764C56.8846 95.5015 62.3688 100.949 69.1063 100.926C75.8438 100.903 81.291 95.4188 81.2682 88.6813C81.2453 81.9438 75.7611 76.4966 69.0236 76.5194ZM69.1019 99.6237C63.0911 99.6441 58.1842 94.7703 58.1639 88.7596C58.1435 82.7488 63.0173 77.8419 69.028 77.8215C75.0388 77.8012 79.9457 82.6749 79.9661 88.6857C79.9864 94.6964 75.1126 99.6034 69.1019 99.6237Z" fill="white"/>
<path d="M69.0348 79.8049C64.1141 79.8215 60.1306 83.8322 60.1473 88.7528C60.1639 93.6734 64.1746 97.657 69.0952 97.6403C74.0158 97.6236 77.9994 93.613 77.9827 88.6924C77.966 83.7717 73.9554 79.7882 69.0348 79.8049ZM69.0908 96.3382C64.8969 96.3524 61.4636 92.9423 61.4494 88.7484C61.4351 84.5545 64.8453 81.1212 69.0392 81.1069C73.2331 81.0927 76.6664 84.5029 76.6806 88.6968C76.6948 92.8907 73.2847 96.324 69.0908 96.3382Z" fill="white"/>
<path d="M89.0293 73.5144L83.9572 73.5316L83.9269 73.5317C82.9278 73.5805 82.1434 74.4159 82.1467 75.4151L82.1557 78.0647C82.1591 79.064 82.9492 79.8789 83.9789 79.936L89.1569 79.9184C90.1561 79.8696 90.9405 79.0342 90.9371 78.035L90.9282 75.3854C90.9247 74.3558 90.074 73.5108 89.0444 73.5143L89.0293 73.5144ZM89.6199 78.0394C89.621 78.3422 89.3796 78.6004 89.1071 78.6165L83.9896 78.6339C83.6868 78.6197 83.4437 78.3632 83.4426 78.0604L83.4337 75.4108C83.4326 75.108 83.674 74.8498 83.9768 74.8336L89.0942 74.8163C89.382 74.8456 89.6251 75.087 89.6261 75.3898L89.6351 78.0394L89.6199 78.0394Z" fill="white"/>
</g>
<defs>
<filter id="filter0_d_79_1688" x="42.8373" y="19.737" width="52.677" height="40.4574" filterUnits="userSpaceOnUse" color-interpolation-filters="sRGB">
<feFlood flood-opacity="0" result="BackgroundImageFix"/>
<feColorMatrix in="SourceAlpha" type="matrix" values="0 0 0 0 0 0 0 0 0 0 0 0 0 0 0 0 0 0 127 0" result="hardAlpha"/>
<feOffset dy="-1.18992"/>
<feComposite in2="hardAlpha" operator="out"/>
<feColorMatrix type="matrix" values="0 0 0 0 0 0 0 0 0 0 0 0 0 0 0 0 0 0 0.66 0"/>
<feBlend mode="normal" in2="BackgroundImageFix" result="effect1_dropShadow_79_1688"/>
<feBlend mode="normal" in="SourceGraphic" in2="effect1_dropShadow_79_1688" result="shape"/>
</filter>
<filter id="filter1_d_79_1688" x="42.8862" y="65.0761" width="52.4181" height="43.2763" filterUnits="userSpaceOnUse" color-interpolation-filters="sRGB">
<feFlood flood-opacity="0" result="BackgroundImageFix"/>
<feColorMatrix in="SourceAlpha" type="matrix" values="0 0 0 0 0 0 0 0 0 0 0 0 0 0 0 0 0 0 127 0" result="hardAlpha"/>
<feOffset dy="1.18992"/>
<feComposite in2="hardAlpha" operator="out"/>
<feColorMatrix type="matrix" values="0 0 0 0 0 0 0 0 0 0 0 0 0 0 0 0 0 0 0.66 0"/>
<feBlend mode="normal" in2="BackgroundImageFix" result="effect1_dropShadow_79_1688"/>
<feBlend mode="normal" in="SourceGraphic" in2="effect1_dropShadow_79_1688" result="shape"/>
</filter>
<linearGradient id="paint0_linear_79_1688" x1="68.6994" y1="12.8593" x2="70.8977" y2="118.137" gradientUnits="userSpaceOnUse">
<stop stop-color="#BEE0FF"/>
<stop offset="1" stop-color="#3380C5"/>
</linearGradient>
</defs>
</svg>
