<svg width="156" height="170" viewBox="0 0 156 170" fill="none" xmlns="http://www.w3.org/2000/svg">
<path d="M4.36414 23.8476C4.36414 23.8476 -1.34159 151.557 0.295056 160.647C2.18696 171.216 41.3163 170.441 79.8451 169.483C117.128 168.553 153.824 167.665 155.671 164.551C157.098 162.141 153.419 23.8476 153.419 23.8476H4.37917H4.36414Z" fill="white"/>
<path d="M4.40915 23.8756C4.40915 23.8756 -1.32661 151.529 0.38511 160.52C2.41215 171.104 41.4965 170.371 79.8751 169.441C117.143 168.539 153.794 167.608 155.626 164.494C157.038 162.084 153.389 23.8756 153.389 23.8756H4.40915Z" fill="#FEFEFE"/>
<path d="M4.43921 23.8896C4.43921 23.8896 -1.32657 151.486 0.475246 160.379C2.63742 170.977 41.6617 170.3 79.8901 169.384C117.143 168.524 153.749 167.538 155.566 164.423C156.978 161.999 153.359 23.8896 153.359 23.8896H4.43921Z" fill="#FDFDFD"/>
<path d="M4.46921 23.904C4.46921 23.904 -1.34165 151.444 0.565269 160.238C2.86258 170.864 41.8418 170.216 79.9201 169.342C117.158 168.511 153.719 167.496 155.521 164.353C156.918 161.929 153.329 23.904 153.329 23.904H4.46921Z" fill="#FCFCFC"/>
<path d="M4.49926 23.918C4.49926 23.918 -1.3266 151.402 0.655394 160.097C3.08784 170.737 42.007 170.145 79.9351 169.286C117.158 168.482 153.659 167.425 155.461 164.283C156.858 161.859 153.299 23.918 153.299 23.918H4.49926Z" fill="#FBFBFB"/>
<path d="M4.52925 23.9322C4.52925 23.9322 -1.32663 151.36 0.745459 159.956C3.31304 170.61 42.1872 170.061 79.9652 169.229C117.188 168.454 153.629 167.355 155.416 164.212C156.797 161.774 153.269 23.9322 153.269 23.9322H4.52925Z" fill="#FAFAFA"/>
<path d="M4.57441 23.9603C4.57441 23.9603 -1.31149 151.346 0.835668 159.829C3.53839 170.512 42.3674 170.004 79.9803 169.201C117.188 168.468 153.584 167.313 155.371 164.17C156.753 161.732 153.254 23.9744 153.254 23.9744H4.55943L4.57441 23.9603Z" fill="#F9F9F9"/>
<path d="M4.60443 23.9744C4.60443 23.9744 -1.29652 151.303 0.925712 159.688C3.77858 170.399 42.5326 169.92 80.0103 169.145C117.203 168.44 153.554 167.242 155.326 164.085C156.692 161.647 153.239 23.9744 153.239 23.9744H4.60443Z" fill="#F8F8F8"/>
<path d="M4.63429 23.9885C4.63429 23.9885 -1.28167 151.261 1.01564 159.548C4.00365 170.286 42.7126 169.849 80.0402 169.103C117.218 168.426 153.524 167.186 155.281 164.029C156.632 161.591 153.209 24.0026 153.209 24.0026H4.63429V23.9885Z" fill="#F7F7F7"/>
<path d="M4.66442 24.0026C4.66442 24.0026 -1.26659 151.233 1.1058 159.393C4.22894 170.159 42.8779 169.751 80.0553 169.032C117.218 168.384 153.479 167.101 155.221 163.945C156.572 161.492 153.179 24.0026 153.179 24.0026H4.66442Z" fill="#F6F6F6"/>
<path d="M4.69435 24.0308C4.69435 24.0308 -1.25165 151.205 1.19581 159.266C4.4691 170.061 43.0579 169.68 80.0852 168.99C117.233 168.384 153.449 167.045 155.176 163.888C156.512 161.436 153.149 24.0308 153.149 24.0308H4.69435Z" fill="#F5F5F5"/>
<path d="M4.7245 24.0449C4.7245 24.0449 -1.23648 151.162 1.27104 159.125C4.69448 169.948 43.2082 169.61 80.0853 168.947C117.233 168.37 153.374 166.989 155.101 163.818C156.437 161.366 153.104 24.0449 153.104 24.0449H4.70951H4.7245Z" fill="#F4F4F4"/>
<path d="M4.76959 24.059C4.76959 24.059 -1.20639 151.12 1.37621 158.984C4.9498 169.849 43.4035 169.525 80.1304 168.891C117.263 168.342 153.359 166.918 155.071 163.747C156.392 161.281 153.104 24.059 153.104 24.059H4.76959Z" fill="#F3F3F3"/>
<path d="M4.79966 24.0731C4.79966 24.0731 -1.17635 151.092 1.46631 158.843C5.17504 169.737 43.5687 169.455 80.1605 168.835C117.278 168.313 153.329 166.848 155.026 163.677C156.347 161.211 153.074 24.0731 153.074 24.0731H4.79966Z" fill="#F2F2F2"/>
<path d="M4.82949 24.0872C4.82949 24.0872 -1.14651 151.05 1.55621 158.702C5.41509 169.638 43.7486 169.37 80.1753 168.792C117.278 168.313 153.284 166.805 154.966 163.62C156.272 161.154 153.044 24.0872 153.044 24.0872H4.82949Z" fill="#F1F1F1"/>
<path d="M4.8596 24.1154C4.8596 24.1154 -1.11639 151.021 1.64639 158.575C5.65542 169.539 43.9139 169.314 80.2054 168.75C117.293 168.299 153.254 166.749 154.921 163.564C156.212 161.084 153.014 24.1154 153.014 24.1154H4.8596Z" fill="#F0F0F0"/>
<path d="M4.88969 24.1295C4.88969 24.1295 -1.08635 150.993 1.72148 158.434C5.89568 169.441 44.0791 169.229 80.2055 168.694C117.278 168.271 153.194 166.679 154.861 163.479C156.152 160.999 152.984 24.1154 152.984 24.1154H4.88969V24.1295Z" fill="#EFEFEF"/>
<path d="M4.93476 24.1435C4.93476 24.1435 -1.04126 150.951 1.82662 158.293C6.15097 169.342 44.2593 169.159 80.2505 168.652C117.323 168.257 153.164 166.622 154.831 163.423C156.107 160.943 152.984 24.1435 152.984 24.1435H4.94974H4.93476Z" fill="#EEEEEE"/>
<path d="M4.96471 24.1576C4.96471 24.1576 -1.0113 150.909 1.91665 158.152C6.39115 169.243 44.4394 169.074 80.2805 168.595C117.338 168.243 153.134 166.552 154.785 163.353C156.062 160.872 152.954 24.1576 152.954 24.1576H4.97974H4.96471Z" fill="#EDEDED"/>
<path d="M4.99465 24.1858C4.99465 24.1858 -0.966329 150.895 2.00666 158.026C6.64633 169.159 44.6045 168.947 80.2954 168.567C117.338 168.172 153.089 166.509 154.725 163.31C155.987 160.816 152.924 24.1999 152.924 24.1999H4.99465V24.1858Z" fill="#ECECEC"/>
<path d="M5.0248 24.1999C5.0248 24.1999 -0.921205 150.852 2.09683 157.871C6.90167 169.046 44.7848 168.849 80.3255 168.497C117.353 168.13 153.059 166.425 154.68 163.212C155.942 160.717 152.894 24.1858 152.894 24.1858H5.0248V24.1999Z" fill="#EBEBEB"/>
<path d="M5.05489 24.214C5.05489 24.214 -0.876052 150.81 2.17201 157.73C7.127 168.947 44.935 168.778 80.3256 168.44C117.338 168.102 152.999 166.354 154.605 163.141C155.852 160.647 152.849 24.1999 152.849 24.1999H5.03991L5.05489 24.214Z" fill="#EAEAEA"/>
<path d="M5.08491 24.2281C5.08491 24.2281 -0.831053 150.782 2.26206 157.589C7.38221 168.849 45.1151 168.694 80.3556 168.398C117.353 168.088 152.969 166.298 154.56 163.085C155.792 160.576 152.834 24.2281 152.834 24.2281H5.08491Z" fill="#E9E9E9"/>
<path d="M5.12997 24.2422C5.12997 24.2422 -0.771003 150.74 2.36715 157.448C7.65247 168.764 45.2954 168.609 80.3857 168.341C117.383 168.06 152.939 166.228 154.515 163.014C155.746 160.506 152.804 24.2422 152.804 24.2422H5.11494H5.12997Z" fill="#E8E8E8"/>
<path d="M5.15998 24.2704C5.15998 24.2704 -0.725923 150.711 2.45728 157.321C7.90776 168.68 45.4755 168.553 80.4157 168.299C117.398 168.046 152.894 166.171 154.47 162.958C155.686 160.449 152.789 24.2704 152.789 24.2704H5.15998Z" fill="#E7E7E7"/>
<path d="M5.19007 24.2845C5.19007 24.2845 -0.665794 150.669 2.54744 157.18C8.1781 168.581 45.6408 168.468 80.4458 168.257C117.413 168.031 152.864 166.129 154.425 162.888C155.641 160.365 152.759 24.2845 152.759 24.2845H5.19007Z" fill="#E6E6E6"/>
<path d="M5.21994 24.2986C5.21994 24.2986 -0.620956 150.627 2.62231 157.039C8.41814 168.482 45.8057 168.384 80.4456 168.201C117.398 168.003 152.803 166.058 154.35 162.817C155.551 160.294 152.713 24.2986 152.713 24.2986H5.20491H5.21994Z" fill="#E5E5E5"/>
<path d="M5.25004 24.3126C5.25004 24.3126 -0.56081 150.584 2.71248 156.898C8.68849 168.398 45.971 168.313 80.4757 168.144C117.413 167.975 152.773 165.988 154.32 162.747C155.521 160.224 152.713 24.3126 152.713 24.3126H5.26507H5.25004Z" fill="#E4E4E4"/>
<path d="M5.29512 24.3409C5.29512 24.3409 -0.485682 150.556 2.81764 156.771C8.95882 168.313 46.1662 168.243 80.5058 168.116C117.428 167.975 152.743 165.946 154.275 162.704C155.461 160.182 152.683 24.3549 152.683 24.3549H5.29512V24.3409Z" fill="#E3E3E3"/>
<path d="M5.32504 24.355C5.32504 24.355 -0.425724 150.514 2.90763 156.63C9.22899 168.215 46.3313 168.158 80.5357 168.06C117.458 167.947 152.713 165.875 154.23 162.62C155.401 160.083 152.668 24.355 152.668 24.355H5.34007H5.32504Z" fill="#E2E2E2"/>
<path d="M5.35521 24.369C5.35521 24.369 -0.36556 150.472 2.99782 156.475C9.49937 168.116 46.5116 167.891 80.5659 168.003C117.473 168.116 152.683 165.805 154.185 162.549C155.356 160.013 152.638 24.369 152.638 24.369H5.37019H5.35521Z" fill="#E1E1E1"/>
<path d="M5.38511 24.3831C5.38511 24.3831 -0.305629 150.43 3.07277 156.334C9.75449 168.017 46.6616 167.806 80.5658 167.947C117.458 168.102 152.608 165.734 154.11 162.479C155.266 159.942 152.593 24.3831 152.593 24.3831H5.38511Z" fill="#E0E0E0"/>
<path d="M5.4153 24.3972C5.4153 24.3972 -0.23038 150.387 3.16303 156.193C10.04 167.919 46.8419 167.721 80.5959 167.891C117.473 168.074 152.578 165.664 154.065 162.408C155.221 159.858 152.578 24.3972 152.578 24.3972H5.4153Z" fill="#DFDFDF"/>
<path d="M5.46017 24.4254C5.46017 24.4254 -0.155509 150.359 3.26793 156.067C10.325 167.834 47.037 167.665 80.6258 167.862C117.488 168.074 152.548 165.622 154.02 162.352C155.161 159.801 152.548 24.4254 152.548 24.4254H5.44514H5.46017Z" fill="#DEDEDE"/>
<path d="M5.49011 24.4395C5.49011 24.4395 -0.0805174 150.317 3.35794 155.926C10.6102 167.736 47.2021 167.58 80.6557 167.806C117.503 168.06 152.518 165.551 153.974 162.282C155.116 159.731 152.533 24.4395 152.533 24.4395H5.49011Z" fill="#DDDDDD"/>
<path d="M5.52033 24.4536C5.52033 24.4536 -0.0202485 150.274 3.44824 155.785C10.8807 167.651 47.3824 167.496 80.686 167.75C117.533 168.031 152.488 165.481 153.93 162.211C155.056 159.646 152.503 24.4536 152.503 24.4536H5.52033Z" fill="#DCDCDC"/>
<path d="M5.55039 24.4677C5.55039 24.4677 0.0548504 150.218 3.52334 155.644C11.151 167.552 47.5326 167.425 80.6859 167.707C117.518 168.031 152.428 165.438 153.855 162.155C154.966 159.59 152.458 24.4818 152.458 24.4818H5.53536L5.55039 24.4677Z" fill="#DBDBDB"/>
<path d="M5.58043 24.4959C5.58043 24.4959 0.12995 150.19 3.61345 155.517C11.4363 167.468 47.7128 167.552 80.716 167.665C117.533 167.792 152.383 165.382 153.81 162.098C154.921 159.533 152.443 24.4959 152.443 24.4959H5.58043Z" fill="#DADADA"/>
<path d="M5.6104 24.51C5.6104 24.51 0.204979 150.148 3.7035 155.376C11.7366 167.369 47.8779 167.468 80.731 167.623C117.533 167.792 152.338 165.326 153.764 162.028C154.861 159.463 152.413 24.51 152.413 24.51H5.6104Z" fill="#D9D9D9"/>
<path d="M5.65556 24.5241C5.65556 24.5241 0.295199 150.091 3.80873 155.235C12.037 167.256 48.0732 167.397 80.7761 167.566C117.563 167.764 152.323 165.255 153.735 161.957C154.831 159.378 152.413 24.5241 152.413 24.5241H5.67059H5.65556Z" fill="#D8D8D8"/>
<path d="M5.68544 24.5382C5.68544 24.5382 0.370089 150.049 3.89864 155.08C12.3371 167.144 48.2382 167.299 80.791 167.496C117.578 167.721 152.278 165.171 153.674 161.873C154.755 159.294 152.368 24.5241 152.368 24.5241H5.68544V24.5382Z" fill="#D7D7D7"/>
<path d="M5.71543 24.5663C5.71543 24.5663 0.44512 150.007 3.97367 154.953C12.6074 167.059 48.4034 167.242 80.806 167.468C117.578 167.721 152.233 165.128 153.614 161.831C154.695 159.252 152.338 24.5663 152.338 24.5663H5.71543Z" fill="#D7D7D7"/>
<path d="M5.74556 24.5804C5.74556 24.5804 0.535322 149.964 4.06387 154.812C12.9078 166.946 48.5686 167.158 80.8361 167.411C117.593 167.693 152.203 165.058 153.569 161.746C154.635 159.153 152.308 24.5663 152.308 24.5663H5.74556V24.5804Z" fill="#D6D6D6"/>
<path d="M5.77554 24.5945C5.77554 24.5945 0.610314 149.908 4.15388 154.671C13.208 166.848 48.7488 167.087 80.8511 167.355C117.593 167.679 152.158 164.987 153.509 161.676C154.575 159.082 152.278 24.5804 152.278 24.5804H5.77554V24.5945Z" fill="#D5D5D5"/>
<path d="M5.82068 24.6086C5.82068 24.6086 0.700516 149.866 4.2591 154.531C13.5384 166.735 48.929 167.003 80.8962 167.313C117.623 167.665 152.128 164.931 153.479 161.619C154.53 159.026 152.278 24.6086 152.278 24.6086H5.83571H5.82068Z" fill="#D4D4D4"/>
<path d="M5.85069 24.6227C5.85069 24.6227 0.790597 149.809 4.34918 154.39C13.8387 166.622 49.1092 166.932 80.9112 167.256C117.623 167.637 152.083 164.861 153.419 161.549C154.455 158.942 152.233 24.6227 152.233 24.6227H5.85069Z" fill="#D3D3D3"/>
<path d="M5.88063 24.6509C5.88063 24.6509 0.865584 149.767 4.42416 154.263C14.1389 166.524 49.2592 166.862 80.9261 167.214C117.638 167.623 152.038 164.804 153.359 161.492C154.395 158.885 152.203 24.6509 152.203 24.6509H5.8656H5.88063Z" fill="#D2D2D2"/>
<path d="M5.91067 24.665C5.91067 24.665 0.955701 149.711 4.51428 154.122C14.4543 166.411 49.4395 166.791 80.9562 167.172C117.653 167.623 152.008 164.762 153.314 161.422C154.335 158.815 152.173 24.665 152.173 24.665H5.89565H5.91067Z" fill="#D1D1D1"/>
<path d="M5.94076 24.6791C5.94076 24.6791 1.04586 149.668 4.60444 153.981C14.7697 166.298 49.6047 166.707 80.9713 167.115C117.653 167.595 151.963 164.691 153.269 161.351C154.29 158.744 152.158 24.6791 152.158 24.6791H5.94076Z" fill="#D0D0D0"/>
<path d="M5.97069 24.6932C5.97069 24.6932 1.13582 149.612 4.6944 153.84C15.0848 166.171 49.7848 166.636 81.0012 167.073C117.668 167.58 151.932 164.635 153.224 161.295C154.23 158.674 152.143 24.7073 152.143 24.7073H5.98567L5.97069 24.6932Z" fill="#CFCFCF"/>
<path d="M6.01591 24.7213C6.01591 24.7213 1.22609 149.57 4.79969 153.713C15.4304 166.073 49.9651 166.566 81.0314 167.031C117.683 167.58 151.903 164.579 153.179 161.239C154.185 158.617 152.113 24.7354 152.113 24.7354H6.01591V24.7213Z" fill="#CECECE"/>
<path d="M6.04582 24.7354C6.04582 24.7354 1.31607 149.513 4.87465 153.558C15.7306 165.932 50.1302 166.481 81.0463 166.96C117.698 167.538 151.843 164.494 153.119 161.14C154.11 158.519 152.083 24.7213 152.083 24.7213H6.04582V24.7354Z" fill="#CDCDCD"/>
<path d="M6.07583 24.7495C6.07583 24.7495 1.40615 149.457 4.96473 153.417C16.0609 165.791 50.2953 166.397 81.0763 166.918C117.713 167.524 151.812 164.438 153.074 161.084C154.05 158.448 152.053 24.7495 152.053 24.7495H6.07583Z" fill="#CCCCCC"/>
<path d="M6.10594 24.7636C6.10594 24.7636 1.49629 149.401 5.05487 153.276C16.3913 165.664 50.4756 166.326 81.0914 166.862C117.713 167.51 151.767 164.367 153.014 161.013C153.99 158.378 152.023 24.7636 152.023 24.7636H6.10594Z" fill="#CBCBCB"/>
<path d="M6.13596 24.7777C6.13596 24.7777 1.58638 149.33 5.14496 153.135C16.7366 165.523 50.6407 166.256 81.1214 166.805C117.728 167.482 151.737 164.297 152.969 160.943C153.93 158.307 152.008 24.7777 152.008 24.7777H6.15099H6.13596Z" fill="#CACACA"/>
<path d="M6.18082 24.8059C6.18082 24.8059 1.69131 149.288 5.24989 153.008C17.0818 165.41 50.8357 166.185 81.1512 166.777C117.743 167.482 151.707 164.255 152.923 160.886C153.884 158.237 151.978 24.8059 151.978 24.8059H6.18082Z" fill="#C9C9C9"/>
<path d="M6.21101 24.82C6.21101 24.82 1.78151 149.232 5.32508 152.868C17.4122 165.255 50.986 166.115 81.1664 166.721C117.743 167.468 151.662 164.184 152.864 160.816C153.809 158.166 151.948 24.82 151.948 24.82H6.21101Z" fill="#C8C8C8"/>
<path d="M6.24091 24.8341C6.24091 24.8341 1.87154 149.161 5.4151 152.727C17.7575 165.114 51.1661 166.03 81.1963 166.679C117.773 167.454 151.617 164.128 152.818 160.76C153.764 158.11 151.917 24.8482 151.917 24.8482H6.24091V24.8341Z" fill="#C7C7C7"/>
<path d="M6.27094 24.8482C6.27094 24.8482 1.96164 149.105 5.5052 152.586C18.1029 164.959 51.3463 165.96 81.2113 166.622C117.773 167.425 151.572 164.057 152.758 160.689C153.689 158.04 151.887 24.8623 151.887 24.8623H6.27094V24.8482Z" fill="#C6C6C6"/>
<path d="M6.3011 24.8764C6.3011 24.8764 2.05182 149.063 5.59539 152.459C18.4633 164.818 51.5116 165.903 81.2415 166.58C117.788 167.425 151.542 164.015 152.728 160.633C153.644 157.969 151.888 24.8905 151.888 24.8905H6.31608L6.3011 24.8764Z" fill="#C5C5C5"/>
<path d="M6.34612 24.8905C6.34612 24.8905 2.15688 148.992 5.70044 152.318C18.8236 164.663 51.7067 165.819 81.2715 166.538C117.803 167.411 151.512 163.959 152.683 160.562C153.599 157.899 151.858 24.8905 151.858 24.8905H6.34612Z" fill="#C4C4C4"/>
<path d="M6.37606 24.9046C6.37606 24.9046 2.26193 148.922 5.77546 152.163C19.1689 164.48 51.8568 165.734 81.2864 166.467C117.803 167.383 151.467 163.874 152.623 160.478C153.524 157.814 151.827 24.8905 151.827 24.8905H6.37606V24.9046Z" fill="#C3C3C3"/>
<path d="M6.40617 24.9186C6.40617 24.9186 2.35211 148.865 5.86564 152.022C19.5294 164.311 52.0371 165.664 81.3015 166.411C117.803 167.355 151.422 163.804 152.563 160.407C153.464 157.73 151.782 24.9046 151.782 24.9046H6.39118L6.40617 24.9186Z" fill="#C2C2C2"/>
<path d="M6.43618 24.9327C6.43618 24.9327 2.44215 148.795 5.95569 151.881C19.9047 164.128 52.2022 165.579 81.3315 166.368C117.833 167.341 151.392 163.747 152.518 160.351C153.404 157.673 151.767 24.9327 151.767 24.9327H6.43618Z" fill="#C1C1C1"/>
<path d="M6.46629 24.9609C6.46629 24.9609 2.53233 148.738 6.04586 151.754C20.2652 163.959 52.3825 165.523 81.3616 166.326C117.848 167.341 151.347 163.691 152.473 160.28C153.359 157.603 151.752 24.9468 151.752 24.9468H6.48131L6.46629 24.9609Z" fill="#C0C0C0"/>
<path d="M6.49615 24.975C6.49615 24.975 2.62227 148.668 6.1358 151.613C20.6404 163.775 52.5475 165.452 81.3765 166.27C117.848 167.313 151.302 163.62 152.413 160.21C153.284 157.518 151.707 24.961 151.707 24.961H6.49615V24.975Z" fill="#BFBFBF"/>
<path d="M6.5414 24.9891C6.5414 24.9891 2.72753 148.612 6.22605 151.472C21.0159 163.578 52.7278 165.368 81.4067 166.228C117.863 167.313 151.272 163.564 152.368 160.154C153.224 157.462 151.692 24.9891 151.692 24.9891H6.5414Z" fill="#BEBEBE"/>
<path d="M6.57135 25.0032C6.57135 25.0032 2.81755 148.541 6.31607 151.331C21.3912 163.381 52.893 165.297 81.4217 166.171C117.863 167.285 151.227 163.494 152.308 160.083C153.164 157.391 151.647 25.0032 151.647 25.0032H6.55632H6.57135Z" fill="#BDBDBD"/>
<path d="M6.60133 25.0314C6.60133 25.0314 2.9076 148.485 6.40612 151.205C21.7666 163.198 53.0731 165.297 81.4516 166.143C117.878 167.369 151.197 163.451 152.263 160.041C153.104 157.349 151.632 25.0455 151.632 25.0455H6.60133V25.0314Z" fill="#BCBCBC"/>
<path d="M6.63154 25.0455C6.63154 25.0455 3.01286 148.4 6.49636 151.064C22.1571 162.972 53.2384 165.213 81.4818 166.087C117.893 167.341 151.167 163.381 152.218 159.956C153.059 157.25 151.617 25.0455 151.617 25.0455H6.64652H6.63154Z" fill="#BBBBBB"/>
<path d="M6.66143 25.0596C6.66143 25.0596 3.10287 148.33 6.58637 150.923C22.5474 162.761 53.4185 165.142 81.4967 166.03C117.908 167.313 151.122 163.324 152.173 159.886C152.999 157.18 151.587 25.0596 151.587 25.0596H6.67646H6.66143Z" fill="#BABABA"/>
<path d="M6.70652 25.0737C6.70652 25.0737 3.20802 148.259 6.67651 150.768C22.9379 162.521 53.5837 165.044 81.5268 165.974C117.923 167.285 151.077 163.254 152.128 159.815C152.954 157.109 151.572 25.0737 151.572 25.0737H6.72155H6.70652Z" fill="#B9B9B9"/>
<path d="M6.73649 25.0878C6.73649 25.0878 3.29806 148.189 6.76655 150.627C23.3282 162.282 53.7638 164.959 81.5418 165.918C117.923 167.27 151.032 163.184 152.068 159.745C152.879 157.025 151.527 25.0878 151.527 25.0878H6.7215H6.73649Z" fill="#B8B8B8"/>
<path d="M6.76655 25.1159C6.76655 25.1159 3.38815 148.118 6.85664 150.5C23.7186 162.056 53.929 164.903 81.5718 165.875C117.938 167.256 151.002 163.127 152.023 159.674C152.818 156.954 151.512 25.1018 151.512 25.1018H6.76655V25.1159Z" fill="#B7B7B7"/>
<path d="M6.79654 25.1301C6.79654 25.1301 3.47821 148.048 6.9467 150.359C24.124 161.802 54.1092 164.818 81.6018 165.833C117.953 167.242 150.972 163.071 151.978 159.618C152.773 156.898 151.482 25.1301 151.482 25.1301H6.79654Z" fill="#B6B6B6"/>
<path d="M6.82661 25.1442C6.82661 25.1442 3.55333 147.963 7.02182 150.218C24.4994 161.549 54.2594 164.748 81.6019 165.777C117.938 167.214 150.912 163 151.903 159.548C152.683 156.814 151.437 25.1442 151.437 25.1442H6.81163H6.82661Z" fill="#B5B5B5"/>
<path d="M6.85661 25.1582C6.85661 25.1582 3.64335 147.893 7.11184 150.077C24.9047 161.281 54.4395 164.663 81.6318 165.72C117.968 167.2 150.882 162.93 151.858 159.477C152.638 156.743 151.422 25.1582 151.422 25.1582H6.85661Z" fill="#B4B4B4"/>
<path d="M6.9017 25.1864C6.9017 25.1864 3.74851 147.822 7.217 149.95C25.3252 161.027 54.6197 164.607 81.6619 165.692C117.983 167.2 150.837 162.888 151.812 159.421C152.578 156.687 151.392 25.1864 151.392 25.1864H6.88667H6.9017Z" fill="#B3B3B3"/>
<path d="M6.93176 25.2005C6.93176 25.2005 3.83865 147.752 7.30714 149.809C25.7307 160.745 54.7999 164.522 81.692 165.636C117.999 167.172 150.807 162.817 151.767 159.35C152.533 156.602 151.377 25.2005 151.377 25.2005H6.93176Z" fill="#B2B2B2"/>
<path d="M6.96178 25.2146C6.96178 25.2146 3.91368 147.667 7.39719 149.669C26.136 160.45 54.9651 164.452 81.707 165.593C117.998 167.158 150.761 162.761 151.707 159.294C152.458 156.546 151.332 25.2287 151.332 25.2287H6.94675L6.96178 25.2146Z" fill="#B1B1B1"/>
<path d="M6.99172 25.2287C6.99172 25.2287 4.00372 147.583 7.47221 149.528C26.5264 160.154 55.1301 164.367 81.7219 165.537C117.998 167.144 150.716 162.69 151.662 159.223C152.398 156.475 151.317 25.2428 151.317 25.2428H6.99172V25.2287Z" fill="#B0B0B0"/>
<path d="M7.02185 25.2428C7.02185 25.2428 4.09393 147.498 7.56242 149.387C53.5086 174.19 149.996 165.171 151.602 159.153C152.338 156.405 151.287 25.2569 151.287 25.2569H7.02185V25.2428Z" fill="#AFAFAF"/>
<path d="M4.36414 23.8476V150.725C83.6739 180.518 153.404 161.225 153.404 161.225V23.8476H4.36414Z" fill="#F1F1F1"/>
<path d="M4.36414 150.725C39.6346 164.311 68.2384 167.144 95.4458 167.369C128.914 167.651 153.404 161.225 153.404 161.225C153.404 161.225 152.353 156.348 148.404 154.361C131.077 165.283 117.143 167.059 101.121 167.115C61.5717 167.242 28.6285 147.865 17.9528 132.983C7.30708 139.367 4.37917 150.725 4.37917 150.725H4.36414Z" fill="url(#paint0_radial_1_4126)"/>
<path opacity="0.2" d="M104.965 23.8476H57.1573C57.1423 30.8517 57.2023 40.4771 57.2323 41.2945L59.4846 43.5776L104.215 42.2951L104.965 23.8476Z" fill="black"/>
<path d="M66.0612 37.3627C66.0612 37.4895 66.0912 37.6163 66.1212 37.7432L67.4876 37.7009C68.3134 37.6727 69.1092 36.9822 69.3195 36.1225L75.4306 11.0654C75.6558 10.1635 75.0102 9.34611 74.2895 8.93741C73.1933 8.31733 72.5026 7.24627 72.4726 6.04838C72.4125 4.11766 74.0342 2.49699 76.0912 2.44061L80.761 2.29969C82.818 2.24331 84.5448 3.76534 84.6048 5.69606C84.6499 6.89395 84.0342 8.00729 82.9832 8.69783C82.2775 9.14881 81.7069 9.99438 81.9772 10.8963L89.7099 35.5447C89.9802 36.3903 90.8061 37.0385 91.5868 37.0104L92.8931 36.9681C92.9082 36.8412 92.9232 36.7144 92.9232 36.5876V36.1366L91.5568 36.1789C91.2115 36.1789 90.716 35.8266 90.5508 35.3051L82.818 10.6567C82.6679 10.1635 83.0282 9.67024 83.4637 9.38838C84.77 8.54281 85.5207 7.16171 85.4757 5.68197C85.4006 3.28618 83.2685 1.41184 80.7159 1.4823L76.0462 1.62323C73.4936 1.69369 71.4966 3.69488 71.5717 6.09066C71.6168 7.57041 72.4576 8.92332 73.824 9.68433C74.2744 9.938 74.6798 10.4172 74.5597 10.9104L68.4486 35.9675C68.3284 36.4466 67.863 36.8835 67.4576 36.8976L66.0612 36.9399V37.3909V37.3627Z" fill="#5E5E5E"/>
<path d="M69.3195 36.1225C69.3045 36.2071 69.2744 36.2916 69.2444 36.3621C69.3044 36.3198 69.3795 36.2635 69.4396 36.2071L75.6258 10.7272C75.6708 10.5299 75.6709 10.3326 75.6408 10.1494C75.4757 9.61389 75.0703 9.16292 74.6198 8.89516C74.0793 8.58511 73.6588 8.14824 73.3735 7.6268C73.0732 7.16174 72.9081 6.62621 72.893 6.06249C72.863 5.31557 73.1183 4.61093 73.5687 4.04722C74.1693 3.20165 75.1453 2.63793 76.2714 2.60975L80.5808 2.48291C82.4727 2.42654 84.0643 3.8922 84.1244 5.76655C84.1694 6.92216 83.5988 8.00731 82.6228 8.65558C82.0673 9.03609 81.5868 9.69845 81.6318 10.4454C81.6318 10.4736 81.6319 10.5017 81.6469 10.544L89.4697 35.5447C89.5748 35.6434 89.6799 35.7279 89.8001 35.7984C89.755 35.7138 89.725 35.6152 89.695 35.5165L81.9622 10.8682C81.6769 9.9803 82.2625 9.12064 82.9682 8.66967C84.0193 7.99321 84.6349 6.86579 84.5898 5.6679C84.5298 3.73718 82.803 2.21515 80.746 2.27152L76.0763 2.41245C74.0192 2.46882 72.3976 4.0895 72.4576 6.02022C72.5027 7.21811 73.1784 8.30326 74.2745 8.90925C75.0102 9.31794 75.6408 10.1353 75.4156 11.0373L69.3045 36.0943L69.3195 36.1225Z" fill="#303030"/>
<path d="M73.1333 9.02198C72.5477 8.30325 72.2024 7.4154 72.1574 6.45709C72.0823 4.11768 73.9141 2.15877 76.2415 2.08831L80.5208 1.96147C82.8481 1.89101 84.8151 3.75126 84.8902 6.09067C84.9202 7.06308 84.6199 7.97911 84.0643 8.72603C84.9052 7.90865 85.3556 6.8235 85.3256 5.66789C85.2505 3.32848 83.1634 1.48231 80.6559 1.55278L76.0763 1.67961C73.5838 1.75008 71.6168 3.70898 71.6919 6.06249C71.7219 7.20401 72.2475 8.26097 73.1184 9.02198H73.1333Z" fill="#9C9C9C"/>
<path d="M57.2323 41.2946L54.6947 17.3226C54.6497 16.0402 54.7999 14.6732 55.0401 14.2645L55.4605 13.5317L101.947 12.1928C101.947 12.1928 102.157 12.517 102.413 12.8975C102.668 13.2921 102.908 14.645 102.953 15.9274L101.977 39.998L57.2473 41.2805L57.2323 41.2946Z" fill="url(#paint1_linear_1_4126)"/>
<path opacity="0.4" d="M101.827 35.7138L102.908 16.8435C88.8841 33.4448 63.1482 27.8922 58.1632 36.968L101.842 35.7138H101.827Z" fill="black"/>
<path d="M64.9049 35.2065L65.025 38.8142C65.0701 40.0544 66.1812 41.0409 67.5025 40.9986L71.3614 40.8859L71.2863 38.5324C71.2563 37.6586 71.992 36.9399 72.9079 36.9117L86.0612 36.5312C86.9921 36.503 87.7579 37.1935 87.7879 38.0532L87.863 40.4067L91.7219 40.294C93.0432 40.2517 94.0943 39.2088 94.0492 37.9687L93.9291 34.3609L64.9049 35.1924V35.2065Z" fill="#030603"/>
<path d="M65.025 38.8142C65.025 38.9551 65.0551 39.0961 65.0851 39.2229L66.5566 39.1806C67.4425 39.1524 68.3133 38.4055 68.5386 37.4754L75.1452 10.403C75.3854 9.41655 74.6948 8.54279 73.914 8.09182C72.7278 7.42946 71.9921 6.25975 71.947 4.96321C71.872 2.87747 73.6287 1.12996 75.8509 1.0595L80.896 0.918567C83.1183 0.848103 84.9801 2.49697 85.0552 4.58271C85.1002 5.87925 84.4396 7.09123 83.2984 7.82406C82.5477 8.30322 81.9171 9.23334 82.2174 10.1917L90.5807 36.8412C90.866 37.7573 91.7669 38.4619 92.6078 38.4337L94.0192 38.3914C94.0342 38.2505 94.0493 38.1237 94.0493 37.9686V37.4754L92.5778 37.5177C92.2174 37.5177 91.6769 37.1372 91.4967 36.5735L83.1333 9.92389C82.9681 9.38836 83.3735 8.85284 83.839 8.55689C85.2504 7.65495 86.0612 6.14701 86.0162 4.54043C85.9261 1.96144 83.6288 -0.0820245 80.866 0.00253254L75.8209 0.143461C73.0731 0.228018 70.8959 2.38422 70.986 4.97731C71.0311 6.58389 71.947 8.03545 73.4185 8.85284C73.914 9.1206 74.3344 9.64204 74.2143 10.1776L67.6076 37.2499C67.4875 37.7713 66.977 38.2364 66.5266 38.2505L65.01 38.2928V38.786L65.025 38.8142Z" fill="#AAAAAA"/>
<path d="M68.5386 37.4754C68.5236 37.56 68.4785 37.6586 68.4485 37.7432C68.5236 37.6868 68.5987 37.6445 68.6587 37.5741L75.3554 10.0367C75.4005 9.82526 75.4155 9.61387 75.3705 9.41657C75.2053 8.83876 74.7548 8.3596 74.2593 8.06365C73.6888 7.72543 73.2233 7.24627 72.908 6.69665C72.5927 6.18931 72.3975 5.62559 72.3824 5.0196C72.3524 4.20222 72.6377 3.45529 73.1032 2.8493C73.7488 1.93327 74.8149 1.32728 76.0311 1.285L80.6858 1.14407C82.7278 1.0877 84.4546 2.68019 84.5147 4.68137C84.5597 5.93563 83.9441 7.10534 82.893 7.80998C82.2774 8.21868 81.7669 8.93741 81.827 9.7407C81.827 9.76889 81.827 9.81117 81.842 9.83935L90.2955 36.8553C90.4006 36.954 90.5207 37.0526 90.6558 37.1231C90.6108 37.0244 90.5657 36.9258 90.5357 36.8271L82.1723 10.1776C81.872 9.20517 82.5026 8.28914 83.2534 7.80998C84.3946 7.07716 85.0552 5.86517 85.0101 4.56863C84.9351 2.48289 83.0732 0.834026 80.851 0.90449L75.8059 1.04542C73.5836 1.11588 71.8269 2.8634 71.902 4.94914C71.947 6.24568 72.6828 7.41538 73.869 8.07775C74.6497 8.51462 75.3404 9.40247 75.1002 10.389L68.4935 37.4613L68.5386 37.4754Z" fill="#444444"/>
<path d="M68.013 38.4337C67.6226 38.8706 67.0821 39.1525 66.5416 39.1807L65.0701 39.2229C65.0401 39.1102 65.025 38.9975 65.025 38.8847H65.01V39.3357C65.01 39.4625 65.0401 39.5893 65.0701 39.7162L66.5416 39.6739C67.3824 39.6457 68.2082 39.0115 68.4935 38.2083C68.3434 38.3069 68.1782 38.3915 68.013 38.4478V38.4337Z" fill="#444444"/>
<path d="M92.5927 38.4337C92.0972 38.4478 91.5867 38.2083 91.1813 37.8277C90.9711 37.7855 90.7609 37.715 90.5657 37.5882C90.896 38.3633 91.7218 38.9411 92.5326 38.9129L93.9441 38.8706C93.9741 38.7438 93.9741 38.6169 93.9741 38.4901V38.3915L92.5927 38.4337Z" fill="#444444"/>
<path d="M72.6678 8.17637C72.0372 7.40126 71.6468 6.44295 71.6168 5.40008C71.5417 2.86336 73.5087 0.749438 76.0313 0.678974L80.6559 0.552138C83.1784 0.481674 85.2956 2.48286 85.3707 5.01957C85.4007 6.06244 85.0853 7.06303 84.4847 7.86632C85.3856 6.99257 85.8811 5.80877 85.8511 4.55451C85.776 2.01779 83.5088 0.0307033 80.8061 0.101167L75.851 0.242096C73.1483 0.326653 71.0312 2.44058 71.1063 4.97729C71.1514 6.21746 71.7069 7.35898 72.6529 8.17637H72.6678Z" fill="#E8E8E8"/>
<path d="M66.932 38.6028C67.3825 38.6028 67.878 38.1237 67.9981 37.6022L74.1844 10.544C74.1994 10.4453 74.1994 10.3608 74.1844 10.2621L67.5927 37.2781C67.4726 37.7995 66.9621 38.2646 66.5116 38.2787L64.9951 38.321V38.6592L66.932 38.6028Z" fill="#E8E8E8"/>
<rect x="17" y="46" width="122" height="75" fill="#D9D9D9"/>
<defs>
<radialGradient id="paint0_radial_1_4126" cx="0" cy="0" r="1" gradientUnits="userSpaceOnUse" gradientTransform="translate(97.4128 -66.4312) rotate(-180) scale(249.731 234.392)">
<stop offset="0.96" stop-color="white"/>
<stop offset="0.98" stop-color="#FDFDFD"/>
<stop offset="0.99" stop-color="#EAEAEA"/>
<stop offset="1" stop-color="#C4C4C4"/>
</radialGradient>
<linearGradient id="paint1_linear_1_4126" x1="79.6289" y1="40.677" x2="78.8294" y2="12.7971" gradientUnits="userSpaceOnUse">
<stop stop-color="#232323"/>
<stop offset="0.02" stop-color="#272727"/>
<stop offset="0.03" stop-color="#333333"/>
<stop offset="0.05" stop-color="#484848"/>
<stop offset="0.07" stop-color="#656565"/>
<stop offset="0.09" stop-color="#8A8A8A"/>
<stop offset="0.1" stop-color="#A7A7A7"/>
<stop offset="0.14" stop-color="#232423"/>
<stop offset="0.15" stop-color="#000400"/>
<stop offset="0.66"/>
<stop offset="0.76" stop-color="#030303"/>
<stop offset="0.84" stop-color="#0D0D0D"/>
<stop offset="0.91" stop-color="#1E1E1E"/>
<stop offset="0.96" stop-color="#2E2E2E"/>
<stop offset="1" stop-color="#363435"/>
</linearGradient>
</defs>
</svg>
