<svg width="351" height="80" viewBox="0 0 351 80" fill="none" xmlns="http://www.w3.org/2000/svg">
<path d="M350 79L1 79L1 35C1.00001 16.2223 16.2223 1 35 1L316 1.00003C334.778 1.00003 350 16.2224 350 35L350 79Z" fill="white" stroke="#BBFFA3" stroke-width="2"/>
<g clip-path="url(#clip0_79_6054)">
<path d="M193.342 52.6633C199.613 42.7043 196.624 29.5469 186.665 23.2753C176.706 17.0038 163.548 19.9931 157.277 29.9521C151.005 39.9111 153.995 53.0686 163.954 59.3401C173.913 65.6116 187.07 62.6223 193.342 52.6633Z" fill="#74B0E4"/>
<path d="M180.262 43.8L190.139 46.1793V43.8L187.808 42.2437V41.2962C187.808 41.1025 187.649 40.9434 187.456 40.9434C187.262 40.9434 187.103 41.1025 187.103 41.2962V41.7734L185.505 40.7013V39.8575C185.505 39.6639 185.346 39.5048 185.152 39.5048C184.959 39.5048 184.8 39.6639 184.8 39.8575V40.231L177.669 35.4655C177.288 30.1397 176.375 26.3909 175.31 26.3909C174.245 26.3909 173.339 30.1397 172.951 35.4655L165.82 40.231V39.8575C165.82 39.6639 165.661 39.5048 165.468 39.5048C165.274 39.5048 165.115 39.6639 165.115 39.8575V40.7013L163.517 41.7734V41.2962C163.517 41.1025 163.358 40.9434 163.164 40.9434C162.971 40.9434 162.812 41.1025 162.812 41.2962V42.2437L160.481 43.8V46.1793L170.358 43.8L172.813 43.9106C172.917 46.9332 173.18 49.6237 173.553 51.6711L168.117 54.6798V56.2152L174.667 55.2608C174.874 55.5789 175.096 55.7518 175.324 55.7518C175.552 55.7518 175.773 55.5789 175.981 55.2608L182.531 56.2152V54.6798L177.094 51.6711C177.468 49.6237 177.731 46.9332 177.835 43.9106L180.29 43.8H180.262Z" fill="white"/>
</g>
<defs>
<clipPath id="clip0_79_6054">
<rect width="42.62" height="42.62" fill="white" transform="translate(154 20)"/>
</clipPath>
</defs>
</svg>
