<svg width="328" height="86" viewBox="0 0 328 86" fill="none" xmlns="http://www.w3.org/2000/svg">
<path d="M315.304 78H304.87C303.617 78 302.609 77.2973 302.609 76.4249C302.609 75.5526 303.617 74.8498 304.87 74.8498H315.304C316.557 74.8498 317.565 75.5526 317.565 76.4249C317.565 77.2973 316.557 78 315.304 78ZM287.478 78H277.043C275.791 78 274.783 77.2973 274.783 76.4249C274.783 75.5526 275.791 74.8498 277.043 74.8498H287.478C288.73 74.8498 289.739 75.5526 289.739 76.4249C289.739 77.2973 288.73 78 287.478 78ZM259.652 78H249.217C247.965 78 246.957 77.2973 246.957 76.4249C246.957 75.5526 247.965 74.8498 249.217 74.8498H259.652C260.904 74.8498 261.913 75.5526 261.913 76.4249C261.913 77.2973 260.904 78 259.652 78ZM231.826 78H221.391C220.139 78 219.13 77.2973 219.13 76.4249C219.13 75.5526 220.139 74.8498 221.391 74.8498H231.826C233.078 74.8498 234.087 75.5526 234.087 76.4249C234.087 77.2973 233.078 78 231.826 78ZM204 78H193.565C192.313 78 191.304 77.2973 191.304 76.4249C191.304 75.5526 192.313 74.8498 193.565 74.8498H204C205.252 74.8498 206.261 75.5526 206.261 76.4249C206.261 77.2973 205.252 78 204 78ZM176.174 78H165.739C164.487 78 163.478 77.2973 163.478 76.4249C163.478 75.5526 164.487 74.8498 165.739 74.8498H176.174C177.426 74.8498 178.435 75.5526 178.435 76.4249C178.435 77.2973 177.426 78 176.174 78ZM148.348 78H137.913C136.661 78 135.652 77.2973 135.652 76.4249C135.652 75.5526 136.661 74.8498 137.913 74.8498H148.348C149.6 74.8498 150.609 75.5526 150.609 76.4249C150.609 77.2973 149.6 78 148.348 78ZM120.522 78H110.087C108.835 78 107.826 77.2973 107.826 76.4249C107.826 75.5526 108.835 74.8498 110.087 74.8498H120.522C121.774 74.8498 122.783 75.5526 122.783 76.4249C122.783 77.2973 121.774 78 120.522 78ZM92.6956 78H82.2609C81.0087 78 80 77.2973 80 76.4249C80 75.5526 81.0087 74.8498 82.2609 74.8498H92.6956C93.9478 74.8498 94.9565 75.5526 94.9565 76.4249C94.9565 77.2973 93.9478 78 92.6956 78ZM64.8696 78H54.4348C53.1826 78 52.1739 77.2973 52.1739 76.4249C52.1739 75.5526 53.1826 74.8498 54.4348 74.8498H64.8696C66.1217 74.8498 67.1304 75.5526 67.1304 76.4249C67.1304 77.2973 66.1217 78 64.8696 78ZM37.0435 78H26.6087C25.3565 78 24.3478 77.2973 24.3478 76.4249C24.3478 75.5526 25.3565 74.8498 26.6087 74.8498H37.0435C38.2956 74.8498 39.3043 75.5526 39.3043 76.4249C39.3043 77.2973 38.2956 78 37.0435 78ZM9.21739 78H2.26087C1.0087 78 0 77.2973 0 76.4249V69.1553C0 68.2829 1.0087 67.5802 2.26087 67.5802C3.51304 67.5802 4.52174 68.2829 4.52174 69.1553V74.8498H9.21739C10.4696 74.8498 11.4783 75.5526 11.4783 76.4249C11.4783 77.2973 10.4696 78 9.21739 78ZM325.739 73.1536C324.487 73.1536 323.478 72.4509 323.478 71.5785V64.3089C323.478 63.4365 324.487 62.7338 325.739 62.7338C326.991 62.7338 328 63.4365 328 64.3089V71.5785C328 72.4509 326.991 73.1536 325.739 73.1536ZM2.26087 58.6143C1.0087 58.6143 0 57.9116 0 57.0392V49.7696C0 48.8973 1.0087 48.1945 2.26087 48.1945C3.51304 48.1945 4.52174 48.8973 4.52174 49.7696V57.0392C4.52174 57.9116 3.51304 58.6143 2.26087 58.6143ZM325.739 53.7679C324.487 53.7679 323.478 53.0652 323.478 52.1928V44.9232C323.478 44.0509 324.487 43.3481 325.739 43.3481C326.991 43.3481 328 44.0509 328 44.9232V52.1928C328 53.0652 326.991 53.7679 325.739 53.7679ZM2.26087 39.2287C1.0087 39.2287 0 38.5259 0 37.6536V30.384C0 29.5116 1.0087 28.8089 2.26087 28.8089C3.51304 28.8089 4.52174 29.5116 4.52174 30.384V37.6536C4.52174 38.5259 3.51304 39.2287 2.26087 39.2287ZM325.739 34.3823C324.487 34.3823 323.478 33.6795 323.478 32.8072V25.5375C323.478 24.6652 324.487 23.9625 325.739 23.9625C326.991 23.9625 328 24.6652 328 25.5375V32.8072C328 33.6795 326.991 34.3823 325.739 34.3823ZM2.26087 19.843C1.0087 19.843 0 19.1403 0 18.2679V10.9983C0 10.1259 1.0087 9.42321 2.26087 9.42321C3.51304 9.42321 4.52174 10.1259 4.52174 10.9983V18.2679C4.52174 19.1403 3.51304 19.843 2.26087 19.843ZM325.739 14.9966C324.487 14.9966 323.478 14.2939 323.478 13.4215V10.1502H322.261C321.009 10.1502 320 9.44744 320 8.57509C320 7.70273 321.009 7 322.261 7H325.739C326.991 7 328 7.70273 328 8.57509V13.4215C328 14.2939 326.991 14.9966 325.739 14.9966ZM304.87 10.1502H294.435C293.183 10.1502 292.174 9.44744 292.174 8.57509C292.174 7.70273 293.183 7 294.435 7H304.87C306.122 7 307.13 7.70273 307.13 8.57509C307.13 9.44744 306.122 10.1502 304.87 10.1502ZM277.043 10.1502H266.609C265.357 10.1502 264.348 9.44744 264.348 8.57509C264.348 7.70273 265.357 7 266.609 7H277.043C278.296 7 279.304 7.70273 279.304 8.57509C279.304 9.44744 278.296 10.1502 277.043 10.1502ZM249.217 10.1502H238.783C237.53 10.1502 236.522 9.44744 236.522 8.57509C236.522 7.70273 237.53 7 238.783 7H249.217C250.47 7 251.478 7.70273 251.478 8.57509C251.478 9.44744 250.47 10.1502 249.217 10.1502ZM221.391 10.1502H210.957C209.704 10.1502 208.696 9.44744 208.696 8.57509C208.696 7.70273 209.704 7 210.957 7H221.391C222.643 7 223.652 7.70273 223.652 8.57509C223.652 9.44744 222.643 10.1502 221.391 10.1502ZM193.565 10.1502H183.13C181.878 10.1502 180.87 9.44744 180.87 8.57509C180.87 7.70273 181.878 7 183.13 7H193.565C194.817 7 195.826 7.70273 195.826 8.57509C195.826 9.44744 194.817 10.1502 193.565 10.1502ZM165.739 10.1502H155.304C154.052 10.1502 153.043 9.44744 153.043 8.57509C153.043 7.70273 154.052 7 155.304 7H165.739C166.991 7 168 7.70273 168 8.57509C168 9.44744 166.991 10.1502 165.739 10.1502ZM137.913 10.1502H127.478C126.226 10.1502 125.217 9.44744 125.217 8.57509C125.217 7.70273 126.226 7 127.478 7H137.913C139.165 7 140.174 7.70273 140.174 8.57509C140.174 9.44744 139.165 10.1502 137.913 10.1502ZM110.087 10.1502H99.6522C98.4 10.1502 97.3913 9.44744 97.3913 8.57509C97.3913 7.70273 98.4 7 99.6522 7H110.087C111.339 7 112.348 7.70273 112.348 8.57509C112.348 9.44744 111.339 10.1502 110.087 10.1502ZM82.2609 10.1502H71.8261C70.5739 10.1502 69.5652 9.44744 69.5652 8.57509C69.5652 7.70273 70.5739 7 71.8261 7H82.2609C83.513 7 84.5217 7.70273 84.5217 8.57509C84.5217 9.44744 83.513 10.1502 82.2609 10.1502ZM54.4348 10.1502H44C42.7478 10.1502 41.7391 9.44744 41.7391 8.57509C41.7391 7.70273 42.7478 7 44 7H54.4348C55.687 7 56.6956 7.70273 56.6956 8.57509C56.6956 9.44744 55.687 10.1502 54.4348 10.1502ZM26.6087 10.1502H16.1739C14.9217 10.1502 13.913 9.44744 13.913 8.57509C13.913 7.70273 14.9217 7 16.1739 7H26.6087C27.8609 7 28.8696 7.70273 28.8696 8.57509C28.8696 9.44744 27.8609 10.1502 26.6087 10.1502Z" fill="white"/>
<path d="M22.373 49.19C20.2323 49.19 18.5983 48.6453 17.471 47.556C16.3563 46.454 15.799 44.9277 15.799 42.977C15.799 40.9377 16.3436 39.3607 17.433 38.246C18.535 37.1313 20.1753 36.574 22.354 36.574C23.1013 36.574 23.7663 36.631 24.349 36.745C24.9443 36.859 25.5143 37.011 26.059 37.201V39.88C24.957 39.424 23.798 39.196 22.582 39.196C21.3153 39.196 20.3843 39.5 19.789 40.108C19.2063 40.716 18.915 41.6723 18.915 42.977C18.915 44.2183 19.2253 45.1303 19.846 45.713C20.4666 46.2957 21.3913 46.587 22.62 46.587C23.2153 46.587 23.8043 46.5363 24.387 46.435C24.9696 46.321 25.5333 46.15 26.078 45.922V48.62C25.546 48.7973 24.9823 48.9367 24.387 49.038C23.7916 49.1393 23.1203 49.19 22.373 49.19ZM27.6272 49V36.764H33.7452C35.1892 36.764 36.2532 37.144 36.9372 37.904C37.6212 38.664 37.9632 39.6837 37.9632 40.963C37.9632 41.7863 37.7542 42.5083 37.3362 43.129C36.9182 43.7497 36.3482 44.212 35.6262 44.516C35.8035 44.6553 35.9429 44.8137 36.0442 44.991C36.1582 45.1557 36.2785 45.39 36.4052 45.694L37.8492 49H34.6572L33.2892 45.884C33.1752 45.618 33.0295 45.428 32.8522 45.314C32.6749 45.1873 32.4215 45.124 32.0922 45.124H30.6862V49H27.6272ZM30.6862 42.768H32.9472C33.5425 42.768 34.0049 42.6223 34.3342 42.331C34.6762 42.027 34.8472 41.571 34.8472 40.963C34.8472 39.7343 34.2582 39.12 33.0802 39.12H30.6862V42.768ZM39.5208 49V36.764H48.5458V39.12H42.5798V41.685H47.8428V44.079H42.5798V46.644H48.5458V49H39.5208ZM49.6242 49L54.2982 36.764H57.6042L62.2782 49H59.0862L57.9842 46.226H53.8992L52.8162 49H49.6242ZM54.3172 43.965H57.5662L55.9322 39.709L54.3172 43.965ZM65.0441 49V39.12H61.4531V36.764H71.6941V39.12H68.1031V49H65.0441ZM73.0676 49V36.764H82.0926V39.12H76.1266V41.685H81.3896V44.079H76.1266V46.644H82.0926V49H73.0676ZM87.2531 49L91.9271 36.764H95.2331L99.9071 49H96.7151L95.6131 46.226H91.5281L90.4451 49H87.2531ZM91.9461 43.965H95.1951L93.5611 39.709L91.9461 43.965ZM105.538 49V36.764H111.561C112.537 36.764 113.341 36.9603 113.974 37.353C114.608 37.733 115.076 38.2523 115.38 38.911C115.697 39.5697 115.855 40.3107 115.855 41.134C115.855 41.97 115.678 42.711 115.323 43.357C114.969 44.003 114.462 44.5097 113.803 44.877C113.157 45.2317 112.385 45.409 111.485 45.409H108.597V49H105.538ZM108.597 43.053H110.801C111.447 43.053 111.929 42.8757 112.245 42.521C112.575 42.1663 112.739 41.6977 112.739 41.115C112.739 40.4817 112.587 39.994 112.283 39.652C111.992 39.2973 111.53 39.12 110.896 39.12H108.597V43.053ZM117.061 49V36.764H120.12V46.644H125.896V49H117.061ZM126.7 49L131.374 36.764H134.68L139.354 49H136.162L135.06 46.226H130.975L129.892 49H126.7ZM131.393 43.965H134.642L133.008 39.709L131.393 43.965ZM146.059 49.19C143.918 49.19 142.284 48.6453 141.157 47.556C140.042 46.454 139.485 44.9277 139.485 42.977C139.485 40.9377 140.029 39.3607 141.119 38.246C142.221 37.1313 143.861 36.574 146.04 36.574C146.787 36.574 147.452 36.631 148.035 36.745C148.63 36.859 149.2 37.011 149.745 37.201V39.88C148.643 39.424 147.484 39.196 146.268 39.196C145.001 39.196 144.07 39.5 143.475 40.108C142.892 40.716 142.601 41.6723 142.601 42.977C142.601 44.2183 142.911 45.1303 143.532 45.713C144.152 46.2957 145.077 46.587 146.306 46.587C146.901 46.587 147.49 46.5363 148.073 46.435C148.655 46.321 149.219 46.15 149.764 45.922V48.62C149.232 48.7973 148.668 48.9367 148.073 49.038C147.477 49.1393 146.806 49.19 146.059 49.19ZM151.313 49V36.764H160.338V39.12H154.372V41.685H159.635V44.079H154.372V46.644H160.338V49H151.313ZM165.498 49L170.172 36.764H173.478L178.152 49H174.96L173.858 46.226H169.773L168.69 49H165.498ZM170.191 43.965H173.44L171.806 39.709L170.191 43.965ZM179.701 49V36.764H182.323L187.529 44.079V36.764H190.607V49H187.966L182.76 41.704V49H179.701ZM192.541 49V36.764H197.842C199.084 36.764 200.129 36.973 200.977 37.391C201.826 37.7963 202.472 38.455 202.915 39.367C203.359 40.2663 203.58 41.4633 203.58 42.958C203.58 45.0607 203.093 46.5933 202.117 47.556C201.155 48.5187 199.73 49 197.842 49H192.541ZM195.6 46.644H197.424C198.083 46.644 198.634 46.549 199.077 46.359C199.533 46.1563 199.875 45.789 200.103 45.257C200.344 44.725 200.464 43.9587 200.464 42.958C200.464 41.9447 200.357 41.1657 200.141 40.621C199.939 40.0637 199.609 39.6773 199.153 39.462C198.71 39.234 198.134 39.12 197.424 39.12H195.6V46.644ZM209.222 49V36.764H214.523C215.764 36.764 216.809 36.973 217.658 37.391C218.507 37.7963 219.153 38.455 219.596 39.367C220.039 40.2663 220.261 41.4633 220.261 42.958C220.261 45.0607 219.773 46.5933 218.798 47.556C217.835 48.5187 216.41 49 214.523 49H209.222ZM212.281 46.644H214.105C214.764 46.644 215.315 46.549 215.758 46.359C216.214 46.1563 216.556 45.789 216.784 45.257C217.025 44.725 217.145 43.9587 217.145 42.958C217.145 41.9447 217.037 41.1657 216.822 40.621C216.619 40.0637 216.29 39.6773 215.834 39.462C215.391 39.234 214.814 39.12 214.105 39.12H212.281V46.644ZM221.821 49V36.764H230.846V39.12H224.88V41.685H230.143V44.079H224.88V46.644H230.846V49H221.821ZM236.199 49.19C235.388 49.19 234.628 49.1267 233.919 49C233.222 48.886 232.621 48.715 232.114 48.487V45.884C232.671 46.1247 233.286 46.321 233.957 46.473C234.641 46.625 235.287 46.701 235.895 46.701C236.655 46.701 237.219 46.6313 237.586 46.492C237.966 46.3527 238.156 46.0487 238.156 45.58C238.156 45.2633 238.061 45.01 237.871 44.82C237.694 44.63 237.396 44.4653 236.978 44.326C236.573 44.174 236.015 43.9967 235.306 43.794C234.47 43.5407 233.805 43.262 233.311 42.958C232.817 42.6413 232.462 42.2613 232.247 41.818C232.032 41.3747 231.924 40.83 231.924 40.184C231.924 39.0187 232.342 38.1257 233.178 37.505C234.014 36.8843 235.249 36.574 236.883 36.574C237.592 36.574 238.283 36.631 238.954 36.745C239.625 36.8463 240.17 36.9667 240.588 37.106V39.728C240.043 39.5127 239.492 39.3543 238.935 39.253C238.39 39.1517 237.858 39.101 237.339 39.101C236.655 39.101 236.098 39.1643 235.667 39.291C235.249 39.4177 235.04 39.709 235.04 40.165C235.04 40.431 235.116 40.6463 235.268 40.811C235.42 40.963 235.68 41.1023 236.047 41.229C236.427 41.3557 236.94 41.5077 237.586 41.685C238.587 41.951 239.353 42.274 239.885 42.654C240.417 43.0213 240.784 43.452 240.987 43.946C241.19 44.4273 241.291 44.972 241.291 45.58C241.291 46.6567 240.873 47.5307 240.037 48.202C239.201 48.8607 237.922 49.19 236.199 49.19ZM249.037 49.19C246.896 49.19 245.262 48.6453 244.135 47.556C243.02 46.454 242.463 44.9277 242.463 42.977C242.463 40.9377 243.008 39.3607 244.097 38.246C245.199 37.1313 246.839 36.574 249.018 36.574C249.765 36.574 250.43 36.631 251.013 36.745C251.608 36.859 252.178 37.011 252.723 37.201V39.88C251.621 39.424 250.462 39.196 249.246 39.196C247.979 39.196 247.048 39.5 246.453 40.108C245.87 40.716 245.579 41.6723 245.579 42.977C245.579 44.2183 245.889 45.1303 246.51 45.713C247.131 46.2957 248.055 46.587 249.284 46.587C249.879 46.587 250.468 46.5363 251.051 46.435C251.634 46.321 252.197 46.15 252.742 45.922V48.62C252.21 48.7973 251.646 48.9367 251.051 49.038C250.456 49.1393 249.784 49.19 249.037 49.19ZM254.291 49V36.764H260.409C261.853 36.764 262.917 37.144 263.601 37.904C264.285 38.664 264.627 39.6837 264.627 40.963C264.627 41.7863 264.418 42.5083 264 43.129C263.582 43.7497 263.012 44.212 262.29 44.516C262.468 44.6553 262.607 44.8137 262.708 44.991C262.822 45.1557 262.943 45.39 263.069 45.694L264.513 49H261.321L259.953 45.884C259.839 45.618 259.694 45.428 259.516 45.314C259.339 45.1873 259.086 45.124 258.756 45.124H257.35V49H254.291ZM257.35 42.768H259.611C260.207 42.768 260.669 42.6223 260.998 42.331C261.34 42.027 261.511 41.571 261.511 40.963C261.511 39.7343 260.922 39.12 259.744 39.12H257.35V42.768ZM266.185 49V36.764H269.244V49H266.185ZM271.176 49V36.764H277.636C278.865 36.764 279.789 37.0553 280.41 37.638C281.043 38.2207 281.36 39.044 281.36 40.108C281.36 40.754 281.233 41.2987 280.98 41.742C280.739 42.1727 280.416 42.5083 280.011 42.749C280.568 42.9517 281.005 43.2493 281.322 43.642C281.639 44.0347 281.797 44.6237 281.797 45.409C281.797 46.5743 281.455 47.4673 280.771 48.088C280.087 48.696 279.105 49 277.826 49H271.176ZM274.235 41.742H276.724C277.256 41.742 277.642 41.6217 277.883 41.381C278.124 41.1403 278.244 40.8047 278.244 40.374C278.244 39.9053 278.124 39.557 277.883 39.329C277.642 39.0883 277.205 38.968 276.572 38.968H274.235V41.742ZM274.235 46.815H277.028C277.585 46.815 277.997 46.701 278.263 46.473C278.542 46.245 278.681 45.8397 278.681 45.257C278.681 44.7883 278.548 44.44 278.282 44.212C278.016 43.9713 277.56 43.851 276.914 43.851H274.235V46.815ZM283.348 49V36.764H292.373V39.12H286.407V41.685H291.67V44.079H286.407V46.644H292.373V49H283.348ZM297.913 49V36.764H300.972V49H297.913ZM305.736 49V39.12H302.145V36.764H312.386V39.12H308.795V49H305.736Z" fill="#C2D953"/>
</svg>
