<svg width="141" height="141" viewBox="0 0 141 141" fill="none" xmlns="http://www.w3.org/2000/svg">
<path opacity="0.7" d="M88.3414 119.05C115.22 109.131 128.968 79.3008 119.05 52.4223C109.131 25.5438 79.3007 11.7952 52.4222 21.714C25.5437 31.6329 11.7952 61.463 21.714 88.3415C31.6328 115.22 61.4629 128.968 88.3414 119.05Z" fill="#CCCCCC"/>
<path d="M68.2218 117.557C96.8501 118.679 120.968 96.3811 122.09 67.7529C123.212 39.1246 100.914 15.0071 72.2855 13.8849C43.6573 12.7628 19.5398 35.0609 18.4176 63.6891C17.2954 92.3174 39.5936 116.435 68.2218 117.557Z" fill="url(#paint0_linear_79_1703)"/>
<g filter="url(#filter0_d_79_1703)">
<path d="M45.4775 85.0722H44V35.9501C44 34.3857 45.2515 32.9083 46.7812 32.6649L86.4473 26.0423C87.2295 25.9032 88.0117 26.1118 88.5853 26.5985C89.1589 27.0852 89.4892 27.8153 89.4892 28.6149V33.76H88.0117V28.6149C88.0117 28.2498 87.8727 27.937 87.6293 27.7284C87.386 27.5198 87.0557 27.4329 86.6907 27.5024L47.0245 34.1076C46.1728 34.2467 45.4601 35.0984 45.4601 35.9501V85.0896L45.4775 85.0722Z" fill="white"/>
<path d="M92.8787 98.5261H46.9376C45.321 98.5261 44 97.205 44 95.5885V35.9502C44 34.3336 45.321 33.0126 46.9376 33.0126H92.8787C94.4953 33.0126 95.8163 34.3336 95.8163 35.9502V95.5885C95.8163 97.205 94.4953 98.5261 92.8787 98.5261ZM46.9376 34.4727C46.1206 34.4727 45.4601 35.1332 45.4601 35.9502V95.5885C45.4601 96.4054 46.1206 97.066 46.9376 97.066H92.8787C93.6957 97.066 94.3562 96.4054 94.3562 95.5885V35.9502C94.3562 35.1332 93.6957 34.4727 92.8787 34.4727H46.9376Z" fill="white"/>
<path d="M70.3813 82.7625C60.2364 82.7625 52 74.5261 52 64.3813C52 54.2364 60.2364 46 70.3813 46C80.5261 46 88.7626 54.2364 88.7626 64.3813C88.7626 74.5261 80.5261 82.7625 70.3813 82.7625ZM70.3813 47.7075C61.1806 47.7075 53.7075 55.1806 53.7075 64.3813C53.7075 73.582 61.2007 81.055 70.3813 81.055C79.5619 81.055 87.055 73.582 87.055 64.3813C87.055 55.1806 79.5619 47.7075 70.3813 47.7075Z" fill="white"/>
<path d="M70.3814 57.6113C65.5801 57.6113 60.9195 55.944 57.2031 52.9105L56.5 52.328L57.1428 51.665C60.6383 48.029 65.3391 46.0201 70.3814 46.0201C75.4237 46.0201 80.1245 48.029 83.6199 51.665L84.2628 52.328L83.5596 52.9105C79.8633 55.944 75.1826 57.6113 70.3814 57.6113ZM59.0312 52.1673C62.3057 54.5779 66.2833 55.9038 70.3814 55.9038C74.4795 55.9038 78.4571 54.5779 81.7316 52.1673C78.6379 49.2946 74.6402 47.7075 70.3814 47.7075C66.1225 47.7075 62.1249 49.2745 59.0312 52.1673Z" fill="white"/>
<path d="M70.3813 82.7625C60.2364 82.7625 52 74.5261 52 64.3813C52 54.2364 60.2364 46 70.3813 46C80.5261 46 88.7626 54.2364 88.7626 64.3813C88.7626 74.5261 80.5261 82.7625 70.3813 82.7625ZM70.3813 47.7075C61.1806 47.7075 53.7075 55.1806 53.7075 64.3813C53.7075 73.582 61.2007 81.055 70.3813 81.055C79.5619 81.055 87.055 73.582 87.055 64.3813C87.055 55.1806 79.5619 47.7075 70.3813 47.7075Z" fill="white"/>
<path d="M70.3814 82.7626C65.3391 82.7626 60.6383 80.7537 57.1428 77.1176L56.5 76.4547L57.2031 75.8721C60.8995 72.8387 65.5801 71.1713 70.3814 71.1713C75.1826 71.1713 79.8432 72.8387 83.5596 75.8721L84.2628 76.4547L83.6199 77.1176C80.1245 80.7537 75.4237 82.7626 70.3814 82.7626ZM59.0312 76.5953C62.1249 79.468 66.1225 81.055 70.3814 81.055C74.6402 81.055 78.6379 79.4881 81.7316 76.5953C78.4571 74.1847 74.4594 72.8588 70.3814 72.8588C66.3033 72.8588 62.3057 74.1847 59.0312 76.5953Z" fill="white"/>
<path d="M88.0394 63.5375H52.8438V65.245H88.0394V63.5375Z" fill="white"/>
</g>
<defs>
<filter id="filter0_d_79_1703" x="44" y="26" width="51.8164" height="74.5261" filterUnits="userSpaceOnUse" color-interpolation-filters="sRGB">
<feFlood flood-opacity="0" result="BackgroundImageFix"/>
<feColorMatrix in="SourceAlpha" type="matrix" values="0 0 0 0 0 0 0 0 0 0 0 0 0 0 0 0 0 0 127 0" result="hardAlpha"/>
<feOffset dy="2"/>
<feComposite in2="hardAlpha" operator="out"/>
<feColorMatrix type="matrix" values="0 0 0 0 0 0 0 0 0 0 0 0 0 0 0 0 0 0 0.66 0"/>
<feBlend mode="normal" in2="BackgroundImageFix" result="effect1_dropShadow_79_1703"/>
<feBlend mode="normal" in="SourceGraphic" in2="effect1_dropShadow_79_1703" result="shape"/>
</filter>
<linearGradient id="paint0_linear_79_1703" x1="72.2855" y1="13.8849" x2="68.2218" y2="117.557" gradientUnits="userSpaceOnUse">
<stop stop-color="#BEE0FF"/>
<stop offset="1" stop-color="#3380C5"/>
</linearGradient>
</defs>
</svg>
