<svg width="267" height="361" viewBox="0 0 267 361" fill="none" xmlns="http://www.w3.org/2000/svg">
<path d="M7.44471 38.7491C7.44471 38.7491 -2.28859 320.335 0.503332 340.377C3.7307 363.682 70.4807 361.973 136.206 359.86C199.806 357.809 262.406 355.852 265.557 348.985C267.99 343.671 261.715 38.7491 261.715 38.7491H7.47034H7.44471Z" fill="white"/>
<path d="M7.52142 38.8109C7.52142 38.8109 -2.26312 320.272 0.656881 340.097C4.11477 363.433 70.788 361.817 136.257 359.767C199.831 357.778 262.355 355.727 265.48 348.86C267.888 343.546 261.664 38.8109 261.664 38.8109H7.52142Z" fill="#FEFEFE"/>
<path d="M7.57286 38.8418C7.57286 38.8418 -2.26288 320.179 0.810801 339.786C4.49922 363.154 71.07 361.662 136.283 359.642C199.832 357.747 262.279 355.572 265.378 348.704C267.786 343.36 261.613 38.8418 261.613 38.8418H7.57286Z" fill="#FDFDFD"/>
<path d="M7.6242 38.8735C7.6242 38.8735 -2.28843 320.087 0.964549 339.476C4.88349 362.905 71.3774 361.476 136.335 359.55C199.857 357.716 262.227 355.479 265.301 348.55C267.683 343.205 261.561 38.8735 261.561 38.8735H7.6242Z" fill="#FCFCFC"/>
<path d="M7.67523 38.9045C7.67523 38.9045 -2.26299 319.993 1.11805 339.165C5.26752 362.626 71.659 361.321 136.36 359.425C199.857 357.654 262.125 355.323 265.198 348.394C267.581 343.05 261.51 38.9045 261.51 38.9045H7.67523Z" fill="#FBFBFB"/>
<path d="M7.72646 38.9355C7.72646 38.9355 -2.26297 319.9 1.27176 338.855C5.65175 362.346 71.9664 361.134 136.411 359.301C199.908 357.592 262.074 355.168 265.122 348.239C267.478 342.863 261.459 38.9355 261.459 38.9355H7.72646Z" fill="#FAFAFA"/>
<path d="M7.80341 38.9977C7.80341 38.9977 -2.23726 319.869 1.42554 338.575C6.03607 362.129 72.2739 361.01 136.437 359.239C199.908 357.623 261.997 355.075 265.045 348.146C267.401 342.77 261.433 39.0287 261.433 39.0287H7.77785L7.80341 38.9977Z" fill="#F9F9F9"/>
<path d="M7.8545 39.0288C7.8545 39.0288 -2.21184 319.776 1.57903 338.264C6.44569 361.88 72.5555 360.823 136.488 359.114C199.934 357.561 261.945 354.92 264.968 347.959C267.299 342.583 261.408 39.0288 261.408 39.0288H7.8545Z" fill="#F8F8F8"/>
<path d="M7.90558 39.0598C7.90558 39.0598 -2.18634 319.682 1.7326 337.954C6.82979 361.631 72.8627 360.668 136.539 359.021C199.959 357.53 261.894 354.795 264.891 347.835C267.196 342.459 261.356 39.0909 261.356 39.0909H7.90558V39.0598Z" fill="#F7F7F7"/>
<path d="M7.95679 39.091C7.95679 39.091 -2.16081 319.62 1.8862 337.612C7.21392 361.352 73.1444 360.451 136.565 358.866C199.959 357.437 261.817 354.609 264.788 347.648C267.094 342.242 261.305 39.091 261.305 39.091H7.95679Z" fill="#F6F6F6"/>
<path d="M8.00842 39.1531C8.00842 39.1531 -2.13476 319.558 2.04032 337.332C7.62417 361.134 73.4522 360.295 136.616 358.773C199.985 357.437 261.766 354.485 264.712 347.524C266.992 342.117 261.254 39.1531 261.254 39.1531H8.00842Z" fill="#F5F5F5"/>
<path d="M8.05929 39.1841C8.05929 39.1841 -2.10944 319.465 2.1681 337.021C8.00809 360.886 73.708 360.14 136.616 358.679C199.985 357.405 261.638 354.36 264.584 347.369C266.863 341.962 261.177 39.1841 261.177 39.1841H8.03373H8.05929Z" fill="#F4F4F4"/>
<path d="M8.13607 39.2152C8.13607 39.2152 -2.05825 319.372 2.34735 336.711C8.44349 360.668 74.0409 359.953 136.693 358.555C200.036 357.343 261.612 354.205 264.532 347.213C266.786 341.776 261.177 39.2152 261.177 39.2152H8.13607Z" fill="#F3F3F3"/>
<path d="M8.1879 39.2463C8.1879 39.2463 -2.00648 319.31 2.50159 336.4C8.82824 360.42 74.3233 359.798 136.745 358.431C200.062 357.281 261.562 354.049 264.456 347.058C266.71 341.62 261.126 39.2463 261.126 39.2463H8.1879Z" fill="#F2F2F2"/>
<path d="M8.2384 39.2774C8.2384 39.2774 -1.95596 319.216 2.65456 336.089C9.23736 360.202 74.6299 359.612 136.769 358.338C200.062 357.281 261.484 353.956 264.353 346.934C266.581 341.496 261.074 39.2774 261.074 39.2774H8.2384Z" fill="#F1F1F1"/>
<path d="M8.29007 39.3395C8.29007 39.3395 -1.90426 319.154 2.80871 335.81C9.64765 359.985 74.9122 359.487 136.821 358.244C200.088 357.25 261.433 353.832 264.276 346.809C266.479 341.341 261.023 39.3395 261.023 39.3395H8.29007Z" fill="#F0F0F0"/>
<path d="M8.34144 39.3706C8.34144 39.3706 -1.85297 319.092 2.93684 335.499C10.0575 359.767 75.194 359.301 136.821 358.12C200.062 357.188 261.331 353.677 264.174 346.623C266.377 341.154 260.972 39.3395 260.972 39.3395H8.34144V39.3706Z" fill="#EFEFEF"/>
<path d="M8.41821 39.4016C8.41821 39.4016 -1.77618 318.999 3.11609 335.188C10.4929 359.549 75.5013 359.145 136.898 358.027C200.139 357.157 261.28 353.552 264.123 346.499C266.3 341.03 260.972 39.4016 260.972 39.4016H8.44377H8.41821Z" fill="#EEEEEE"/>
<path d="M8.46926 39.4328C8.46926 39.4328 -1.72511 318.906 3.26962 334.877C10.9026 359.332 75.8085 358.959 136.949 357.903C200.164 357.126 261.228 353.397 264.046 346.343C266.223 340.874 260.921 39.4328 260.921 39.4328H8.4949H8.46926Z" fill="#EDEDED"/>
<path d="M8.5204 39.4949C8.5204 39.4949 -1.64833 318.875 3.42324 334.598C11.338 359.145 76.0902 358.679 136.975 357.84C200.164 356.97 261.151 353.304 263.943 346.25C266.095 340.75 260.87 39.526 260.87 39.526H8.5204V39.4949Z" fill="#ECECEC"/>
<path d="M8.57162 39.526C8.57162 39.526 -1.57156 318.781 3.57685 334.256C11.7733 358.897 76.3975 358.462 137.026 357.685C200.19 356.877 261.1 353.117 263.866 346.033C266.018 340.533 260.818 39.4949 260.818 39.4949H8.57162V39.526Z" fill="#EBEBEB"/>
<path d="M8.62289 39.557C8.62289 39.557 -1.4946 318.688 3.70504 333.945C12.1577 358.679 76.6537 358.307 137.026 357.561C200.164 356.815 260.998 352.962 263.738 345.877C265.864 340.377 260.742 39.526 260.742 39.526H8.59733L8.62289 39.557Z" fill="#EAEAEA"/>
<path d="M8.67444 39.5881C8.67444 39.5881 -1.41749 318.626 3.85899 333.634C12.5934 358.462 76.9613 358.12 137.077 357.468C200.19 356.784 260.947 352.838 263.662 345.753C265.762 340.222 260.716 39.5881 260.716 39.5881H8.67444Z" fill="#E9E9E9"/>
<path d="M8.75137 39.6192C8.75137 39.6192 -1.315 318.533 4.03832 333.324C13.0545 358.275 77.2688 357.934 137.129 357.343C200.242 356.722 260.896 352.682 263.585 345.598C265.685 340.066 260.665 39.6192 260.665 39.6192H8.72573H8.75137Z" fill="#E8E8E8"/>
<path d="M8.80276 39.6813C8.80276 39.6813 -1.2379 318.471 4.19227 333.044C13.4902 358.089 77.5763 357.809 137.18 357.25C200.267 356.691 260.819 352.558 263.508 345.473C265.583 339.942 260.64 39.6813 260.64 39.6813H8.80276Z" fill="#E7E7E7"/>
<path d="M8.85377 39.7124C8.85377 39.7124 -1.13564 318.377 4.34576 332.733C13.951 357.872 77.8579 357.623 137.231 357.157C200.293 356.66 260.768 352.465 263.431 345.318C265.506 339.756 260.588 39.7124 260.588 39.7124H8.85377Z" fill="#E6E6E6"/>
<path d="M8.9043 39.7435C8.9043 39.7435 -1.05957 318.284 4.47305 332.423C14.3601 357.654 78.1389 357.437 137.23 357.033C200.266 356.598 260.664 352.309 263.303 345.163C265.352 339.6 260.511 39.7435 260.511 39.7435H8.87866H8.9043Z" fill="#E5E5E5"/>
<path d="M8.95597 39.7745C8.95597 39.7745 -0.956654 318.191 4.6272 332.112C14.8216 357.468 78.4212 357.281 137.282 356.908C200.293 356.535 260.614 352.154 263.252 345.007C265.301 339.445 260.511 39.7745 260.511 39.7745H8.98161H8.95597Z" fill="#E4E4E4"/>
<path d="M9.0329 39.8367C9.0329 39.8367 -0.828473 318.129 4.80661 331.832C15.2827 357.281 78.7542 357.126 137.333 356.846C200.318 356.535 260.562 352.061 263.175 344.914C265.199 339.352 260.46 39.8678 260.46 39.8678H9.0329V39.8367Z" fill="#E3E3E3"/>
<path d="M9.08383 39.8678C9.08383 39.8678 -0.7263 318.036 4.96001 331.521C15.7435 357.064 79.0357 356.939 137.384 356.722C200.369 356.473 260.511 351.905 263.098 344.728C265.096 339.134 260.434 39.8678 260.434 39.8678H9.10947H9.08383Z" fill="#E2E2E2"/>
<path d="M9.13518 39.8988C9.13518 39.8988 -0.623774 317.942 5.11376 331.18C16.2046 356.846 79.3432 356.349 137.436 356.597C200.395 356.846 260.46 351.75 263.021 344.572C265.019 338.979 260.383 39.8988 260.383 39.8988H9.16074H9.13518Z" fill="#E1E1E1"/>
<path d="M9.18637 39.9299C9.18637 39.9299 -0.521359 317.849 5.24179 330.869C16.64 356.629 79.5993 356.162 137.436 356.473C200.369 356.815 260.332 351.595 262.893 344.417C264.865 338.824 260.306 39.9299 260.306 39.9299H9.18637Z" fill="#E0E0E0"/>
<path d="M9.23802 39.9609C9.23802 39.9609 -0.392844 317.756 5.39592 330.558C17.1271 356.411 79.907 355.976 137.487 356.349C200.395 356.753 260.281 351.439 262.817 344.261C264.789 338.637 260.281 39.9609 260.281 39.9609H9.23802Z" fill="#DFDFDF"/>
<path d="M9.31423 40.0231C9.31423 40.0231 -0.26546 317.694 5.57453 330.278C17.6131 356.225 80.2394 355.852 137.538 356.287C200.42 356.753 260.229 351.346 262.739 344.137C264.686 338.513 260.229 40.0231 260.229 40.0231H9.2886H9.31423Z" fill="#DEDEDE"/>
<path d="M9.36551 40.0542C9.36551 40.0542 -0.137317 317.601 5.72829 329.968C18.0999 356.007 80.5212 355.665 137.589 356.163C200.446 356.722 260.178 351.191 262.662 343.982C264.609 338.358 260.203 40.0542 260.203 40.0542H9.36551Z" fill="#DDDDDD"/>
<path d="M9.41745 40.0853C9.41745 40.0853 -0.0341322 317.507 5.8827 329.657C18.5616 355.821 80.8293 355.479 137.641 356.038C200.498 356.66 260.127 351.035 262.586 343.826C264.507 338.171 260.153 40.0853 260.153 40.0853H9.41745Z" fill="#DCDCDC"/>
<path d="M9.4679 40.1163C9.4679 40.1163 0.0931594 317.383 6.00999 329.346C19.0219 355.603 81.0846 355.324 137.64 355.945C200.471 356.66 260.024 350.942 262.457 343.702C264.353 338.047 260.075 40.1474 260.075 40.1474H9.44226L9.4679 40.1163Z" fill="#DBDBDB"/>
<path d="M9.5195 40.1785C9.5195 40.1785 0.221621 317.321 6.16407 329.067C19.509 355.417 81.3924 355.603 137.692 355.852C200.498 356.131 259.948 350.818 262.381 343.578C264.276 337.922 260.05 40.1785 260.05 40.1785H9.5195Z" fill="#DADADA"/>
<path d="M9.57042 40.2096C9.57042 40.2096 0.349405 317.228 6.31747 328.756C20.021 355.199 81.6738 355.417 137.717 355.759C200.497 356.131 259.87 350.694 262.304 343.422C264.174 337.767 259.999 40.2096 259.999 40.2096H9.57042Z" fill="#D9D9D9"/>
<path d="M9.64752 40.2407C9.64752 40.2407 0.503367 317.103 6.49704 328.445C20.5335 354.951 82.0071 355.261 137.794 355.634C200.549 356.069 259.845 350.538 262.253 343.267C264.123 337.581 259.999 40.2407 259.999 40.2407H9.67316H9.64752Z" fill="#D8D8D8"/>
<path d="M9.69862 40.2718C9.69862 40.2718 0.631256 317.01 6.65055 328.103C21.0456 354.702 82.2887 355.044 137.82 355.479C200.574 355.976 259.768 350.352 262.15 343.081C263.994 337.394 259.922 40.2407 259.922 40.2407H9.69862V40.2718Z" fill="#D7D7D7"/>
<path d="M9.75 40.3339C9.75 40.3339 0.759473 316.917 6.77876 327.824C21.5068 354.516 82.5706 354.92 137.846 355.417C200.574 355.976 259.691 350.259 262.048 342.987C263.892 337.301 259.871 40.3339 259.871 40.3339H9.75Z" fill="#D7D7D7"/>
<path d="M9.80144 40.365C9.80144 40.365 0.913398 316.824 6.93269 327.513C22.0193 354.267 82.8526 354.733 137.897 355.292C200.6 355.914 259.64 350.103 261.971 342.801C263.79 337.084 259.82 40.3339 259.82 40.3339H9.80144V40.365Z" fill="#D6D6D6"/>
<path d="M9.85237 40.396C9.85237 40.396 1.04111 316.699 7.08601 327.202C22.5313 354.049 83.1597 354.578 137.922 355.168C200.6 355.883 259.563 349.948 261.869 342.646C263.687 336.928 259.768 40.3649 259.768 40.3649H9.85237V40.396Z" fill="#D5D5D5"/>
<path d="M9.92943 40.4271C9.92943 40.4271 1.19503 316.606 7.26555 326.892C23.095 353.801 83.4672 354.391 137.999 355.075C200.651 355.852 259.512 349.824 261.818 342.521C263.611 336.804 259.768 40.4271 259.768 40.4271H9.95507H9.92943Z" fill="#D4D4D4"/>
<path d="M9.98074 40.4581C9.98074 40.4581 1.34882 316.482 7.41933 326.581C23.6074 353.552 83.7747 354.236 138.025 354.951C200.651 355.79 259.436 349.668 261.715 342.366C263.483 336.617 259.692 40.4581 259.692 40.4581H9.98074Z" fill="#D3D3D3"/>
<path d="M10.0321 40.5204C10.0321 40.5204 1.47702 316.389 7.54754 326.301C24.1198 353.335 84.0309 354.081 138.051 354.857C200.677 355.759 259.359 349.544 261.613 342.242C263.38 336.493 259.641 40.5204 259.641 40.5204H10.0065H10.0321Z" fill="#D2D2D2"/>
<path d="M10.0829 40.5514C10.0829 40.5514 1.63031 316.264 7.70082 325.99C24.6573 353.086 84.3379 353.925 138.102 354.764C200.702 355.759 259.307 349.451 261.536 342.086C263.277 336.338 259.589 40.5514 259.589 40.5514H10.0573H10.0829Z" fill="#D1D1D1"/>
<path d="M10.1345 40.5825C10.1345 40.5825 1.78436 316.171 7.85488 325.68C25.1956 352.838 84.62 353.739 138.128 354.64C200.703 355.696 259.231 349.295 261.459 341.931C263.201 336.182 259.564 40.5825 259.564 40.5825H10.1345Z" fill="#D0D0D0"/>
<path d="M10.1854 40.6135C10.1854 40.6135 1.93771 316.047 8.00823 325.369C25.7331 352.558 84.9271 353.583 138.179 354.547C200.728 355.665 259.179 349.171 261.382 341.807C263.098 336.027 259.538 40.6446 259.538 40.6446H10.211L10.1854 40.6135Z" fill="#CFCFCF"/>
<path d="M10.2623 40.6756C10.2623 40.6756 2.09148 315.954 8.18761 325.089C26.3223 352.34 85.2345 353.428 138.23 354.453C200.754 355.665 259.128 349.047 261.305 341.682C263.021 335.903 259.487 40.7067 259.487 40.7067H10.2623V40.6756Z" fill="#CECECE"/>
<path d="M10.3134 40.7067C10.3134 40.7067 2.24502 315.829 8.31554 324.747C26.8345 352.03 85.5162 353.242 138.255 354.298C200.779 355.572 259.025 348.86 261.203 341.465C262.893 335.685 259.435 40.6756 259.435 40.6756H10.3134V40.7067Z" fill="#CDCDCD"/>
<path d="M10.3647 40.7377C10.3647 40.7377 2.39873 315.705 8.46925 324.437C27.398 351.719 85.7979 353.055 138.307 354.205C200.805 355.541 258.974 348.736 261.126 341.34C262.791 335.53 259.384 40.7377 259.384 40.7377H10.3647Z" fill="#CCCCCC"/>
<path d="M10.4163 40.7689C10.4163 40.7689 2.55274 315.581 8.62326 324.126C27.9618 351.439 86.1057 352.9 138.333 354.081C200.805 355.51 258.898 348.581 261.024 341.185C262.689 335.375 259.333 40.7689 259.333 40.7689H10.4163Z" fill="#CBCBCB"/>
<path d="M10.4672 40.8C10.4672 40.8 2.70611 315.425 8.77662 323.815C28.5506 351.129 86.3871 352.744 138.383 353.956C200.83 355.448 258.846 348.425 260.947 341.03C262.586 335.219 259.307 40.8 259.307 40.8H10.4928H10.4672Z" fill="#CACACA"/>
<path d="M10.5438 40.8621C10.5438 40.8621 2.8852 315.332 8.95572 323.536C29.1396 350.88 86.7198 352.589 138.434 353.894C200.856 355.448 258.795 348.332 260.869 340.905C262.509 335.064 259.256 40.8621 259.256 40.8621H10.5438Z" fill="#C9C9C9"/>
<path d="M10.5955 40.8932C10.5955 40.8932 3.03926 315.208 9.08416 323.225C29.7034 350.538 86.9764 352.434 138.461 353.77C200.856 355.417 258.718 348.177 260.767 340.75C262.381 334.908 259.205 40.8932 259.205 40.8932H10.5955Z" fill="#C8C8C8"/>
<path d="M10.6462 40.9243C10.6462 40.9243 3.19258 315.053 9.23748 322.914C30.2922 350.228 87.2833 352.247 138.511 353.677C200.907 355.386 258.641 348.052 260.69 340.626C262.304 334.784 259.153 40.9554 259.153 40.9554H10.6462V40.9243Z" fill="#C7C7C7"/>
<path d="M10.6974 40.9553C10.6974 40.9553 3.34624 314.928 9.39114 322.603C30.8813 349.886 87.5907 352.092 138.537 353.552C200.907 355.323 258.564 347.897 260.588 340.47C262.176 334.629 259.102 40.9864 259.102 40.9864H10.6974V40.9553Z" fill="#C6C6C6"/>
<path d="M10.7485 41.0175C10.7485 41.0175 3.49976 314.835 9.54466 322.324C31.4959 349.575 87.8723 351.968 138.588 353.459C200.933 355.324 258.513 347.804 260.536 340.346C262.099 334.473 259.102 41.0486 259.102 41.0486H10.7741L10.7485 41.0175Z" fill="#C5C5C5"/>
<path d="M10.8259 41.0485C10.8259 41.0485 3.67953 314.68 9.72444 322.013C32.1111 349.233 88.2058 351.781 138.64 353.366C200.959 355.292 258.462 347.679 260.46 340.191C262.022 334.318 259.051 41.0485 259.051 41.0485H10.8259Z" fill="#C4C4C4"/>
<path d="M10.8766 41.0796C10.8766 41.0796 3.85842 314.524 9.8521 321.671C32.6998 348.829 88.4615 351.595 138.665 353.21C200.958 355.23 258.385 347.493 260.357 340.004C261.894 334.131 258.999 41.0485 258.999 41.0485H10.8766V41.0796Z" fill="#C3C3C3"/>
<path d="M10.9282 41.1107C10.9282 41.1107 4.01249 314.4 10.0062 321.36C33.3149 348.456 88.7692 351.439 138.691 353.086C200.959 355.168 258.308 347.338 260.255 339.849C261.792 333.945 258.923 41.0797 258.923 41.0797H10.9027L10.9282 41.1107Z" fill="#C2C2C2"/>
<path d="M10.9798 41.1417C10.9798 41.1417 4.16646 314.245 10.1601 321.05C33.9555 348.052 89.0513 351.253 138.742 352.993C201.01 355.137 258.257 347.213 260.178 339.725C261.69 333.821 258.898 41.1417 258.898 41.1417H10.9798Z" fill="#C1C1C1"/>
<path d="M11.0308 41.2039C11.0308 41.2039 4.31989 314.12 10.3136 320.77C34.57 347.679 89.3584 351.129 138.793 352.9C201.035 355.137 258.18 347.089 260.101 339.569C261.613 333.665 258.872 41.1729 258.872 41.1729H11.0564L11.0308 41.2039Z" fill="#C0C0C0"/>
<path d="M11.0821 41.235C11.0821 41.235 4.47375 313.965 10.4674 320.459C35.2105 347.276 89.6403 350.973 138.819 352.776C201.036 355.075 258.104 346.934 259.999 339.414C261.485 333.479 258.795 41.2039 258.795 41.2039H11.0821V41.235Z" fill="#BFBFBF"/>
<path d="M11.1589 41.266C11.1589 41.266 4.65286 313.841 10.6209 320.149C35.8507 346.84 89.9475 350.787 138.87 352.682C201.061 355.075 258.052 346.809 259.922 339.29C261.382 333.355 258.769 41.266 258.769 41.266H11.1589Z" fill="#BEBEBE"/>
<path d="M11.21 41.2972C11.21 41.2972 4.8065 313.685 10.7746 319.838C36.491 346.406 90.2293 350.631 138.896 352.558C201.061 355.013 257.975 346.654 259.82 339.134C261.28 333.199 258.693 41.2972 258.693 41.2972H11.1844H11.21Z" fill="#BDBDBD"/>
<path d="M11.2612 41.3593C11.2612 41.3593 4.96012 313.561 10.9282 319.558C37.1313 346.001 90.5365 350.631 138.947 352.496C201.087 355.199 257.924 346.561 259.743 339.041C261.177 333.106 258.667 41.3904 258.667 41.3904H11.2612V41.3593Z" fill="#BCBCBC"/>
<path d="M11.3127 41.3904C11.3127 41.3904 5.13967 313.375 11.0821 319.247C37.7975 345.504 90.8185 350.445 138.998 352.372C201.112 355.137 257.873 346.405 259.666 338.855C261.1 332.889 258.642 41.3904 258.642 41.3904H11.3383H11.3127Z" fill="#BBBBBB"/>
<path d="M11.3638 41.4215C11.3638 41.4215 5.29329 313.219 11.2357 318.937C38.4634 345.038 91.1258 350.29 139.024 352.247C201.138 355.075 257.796 346.281 259.589 338.699C260.998 332.733 258.59 41.4215 258.59 41.4215H11.3894H11.3638Z" fill="#BABABA"/>
<path d="M11.4402 41.4525C11.4402 41.4525 5.47212 313.064 11.389 318.595C39.1289 344.51 91.407 350.072 139.075 352.123C201.163 355.013 257.719 346.126 259.512 338.544C260.921 332.578 258.564 41.4525 258.564 41.4525H11.4658H11.4402Z" fill="#B9B9B9"/>
<path d="M11.4917 41.4836C11.4917 41.4836 5.62613 312.909 11.543 318.284C39.7952 343.982 91.7148 349.886 139.101 351.999C201.163 354.982 257.642 345.97 259.41 338.389C260.793 332.391 258.488 41.4836 258.488 41.4836H11.4661H11.4917Z" fill="#B8B8B8"/>
<path d="M11.5433 41.5456C11.5433 41.5456 5.78017 312.753 11.697 318.004C40.4615 343.485 91.9969 349.761 139.152 351.905C201.189 354.951 257.591 345.846 259.333 338.233C260.691 332.236 258.462 41.5146 258.462 41.5146H11.5433V41.5456Z" fill="#B7B7B7"/>
<path d="M11.594 41.5768C11.594 41.5768 5.93331 312.598 11.8501 317.694C41.1526 342.925 92.3037 349.575 139.203 351.812C201.214 354.92 257.54 345.722 259.256 338.109C260.613 332.112 258.411 41.5768 258.411 41.5768H11.594Z" fill="#B6B6B6"/>
<path d="M11.6452 41.6079C11.6452 41.6079 6.06134 312.411 11.9782 317.383C41.7929 342.366 92.5599 349.42 139.203 351.688C201.189 354.857 257.437 345.567 259.128 337.954C260.46 331.925 258.334 41.6079 258.334 41.6079H11.6196H11.6452Z" fill="#B5B5B5"/>
<path d="M11.6964 41.6389C11.6964 41.6389 6.21498 312.256 12.1318 317.072C42.4844 341.776 92.8672 349.233 139.254 351.564C201.24 354.826 257.386 345.411 259.051 337.798C260.383 331.77 258.308 41.6389 258.308 41.6389H11.6964Z" fill="#B4B4B4"/>
<path d="M11.7736 41.7011C11.7736 41.7011 6.39461 312.101 12.3114 316.793C43.2019 341.216 93.1749 349.109 139.306 351.502C201.266 354.826 257.309 345.318 258.974 337.674C260.281 331.646 258.257 41.7011 258.257 41.7011H11.7479H11.7736Z" fill="#B3B3B3"/>
<path d="M11.825 41.7321C11.825 41.7321 6.5485 311.945 12.4653 316.482C43.8937 340.595 93.4825 348.922 139.357 351.377C201.292 354.764 257.258 345.162 258.898 337.518C260.204 331.459 258.232 41.7321 258.232 41.7321H11.825Z" fill="#B2B2B2"/>
<path d="M11.8762 41.7632C11.8762 41.7632 6.67649 311.759 12.6189 316.171C44.5852 339.942 93.7642 348.767 139.383 351.284C201.292 354.733 257.182 345.038 258.795 337.394C260.076 331.335 258.155 41.7943 258.155 41.7943H11.8505L11.8762 41.7632Z" fill="#B1B1B1"/>
<path d="M11.927 41.7943C11.927 41.7943 6.82983 311.572 12.7467 315.86C45.2508 339.29 94.0455 348.581 139.408 351.16C201.291 354.702 257.104 344.883 258.718 337.239C259.973 331.18 258.129 41.8254 258.129 41.8254H11.927V41.7943Z" fill="#B0B0B0"/>
<path d="M11.9787 41.8253C11.9787 41.8253 6.98403 311.386 12.9009 315.55C91.2797 370.239 255.875 350.352 258.616 337.083C259.871 331.024 258.078 41.8564 258.078 41.8564H11.9787V41.8253Z" fill="#AFAFAF"/>
<path d="M6 38.7491V318.502C141.293 384.191 260.245 341.651 260.245 341.651V38.7491H6Z" fill="#F1F1F1"/>
<path d="M6 318.502C66.1673 348.456 114.962 354.702 161.375 355.199C218.468 355.821 260.245 341.651 260.245 341.651C260.245 341.651 258.452 330.9 251.715 326.519C222.157 350.6 198.387 354.516 171.057 354.64C103.589 354.92 47.3922 312.194 29.1806 279.38C11.0203 293.457 6.02564 318.502 6.02564 318.502H6Z" fill="url(#paint0_radial_1_5407)"/>
<path opacity="0.2" d="M178 38.9977H96.0041C95.9783 48.4082 96.0813 61.3407 96.1328 62.4389L99.9957 65.5063L176.712 63.7833L178 38.9977Z" fill="black"/>
<path d="M111.403 60.7093C111.403 60.9154 111.455 61.1215 111.506 61.3276L113.837 61.2589C115.245 61.2131 116.603 60.091 116.962 58.6942L127.386 17.9798C127.771 16.5143 126.669 15.1862 125.44 14.5221C123.57 13.5145 122.392 11.7742 122.34 9.82781C122.238 6.69066 125.004 4.05728 128.513 3.96568L136.479 3.73669C139.989 3.64509 142.934 6.11818 143.037 9.25534C143.113 11.2017 142.063 13.0108 140.27 14.1328C139.066 14.8656 138.093 16.2395 138.554 17.705L151.745 57.7553C152.206 59.1292 153.615 60.1826 154.947 60.1368L157.176 60.0681C157.201 59.862 157.227 59.6559 157.227 59.4498V58.7171L154.896 58.7858C154.307 58.7858 153.462 58.2133 153.18 57.366L139.989 17.3158C139.732 16.5143 140.347 15.7128 141.09 15.2549C143.318 13.8809 144.599 11.6368 144.522 9.23244C144.394 5.33962 140.757 2.29406 136.403 2.40855L128.437 2.63754C124.082 2.75204 120.676 6.00369 120.804 9.89651C120.881 12.3009 122.315 14.4992 124.646 15.7357C125.414 16.1479 126.106 16.9265 125.901 17.7279L115.476 58.4423C115.271 59.2208 114.477 59.9307 113.785 59.9536L111.403 60.0223V60.7551V60.7093Z" fill="#5E5E5E"/>
<path d="M116.962 58.6942C116.936 58.8316 116.885 58.969 116.833 59.0835C116.936 59.0148 117.064 58.9232 117.166 58.8316L127.719 17.4303C127.796 17.1097 127.796 16.7891 127.745 16.4914C127.463 15.6213 126.772 14.8885 126.003 14.4534C125.081 13.9496 124.364 13.2398 123.877 12.3925C123.365 11.6368 123.083 10.7667 123.058 9.85071C123.006 8.63707 123.442 7.49212 124.21 6.57616C125.235 5.20223 126.9 4.28627 128.821 4.24047L136.172 4.03438C139.399 3.94278 142.115 6.32427 142.217 9.36983C142.294 11.2475 141.32 13.0108 139.656 14.0641C138.708 14.6824 137.888 15.7586 137.965 16.9723C137.965 17.0181 137.965 17.0639 137.991 17.1326L151.336 57.7553C151.515 57.9156 151.694 58.053 151.899 58.1675C151.822 58.0301 151.771 57.8698 151.72 57.7095L138.529 17.6593C138.042 16.2166 139.041 14.8198 140.245 14.087C142.038 12.9879 143.088 11.156 143.011 9.20954C142.909 6.07239 139.963 3.5993 136.454 3.6909L128.488 3.91988C124.979 4.01148 122.212 6.64486 122.315 9.78202C122.392 11.7284 123.544 13.4916 125.414 14.4763C126.669 15.1404 127.745 16.4685 127.361 17.934L116.936 58.6484L116.962 58.6942Z" fill="#303030"/>
<path d="M123.468 14.6595C122.469 13.4916 121.88 12.049 121.803 10.4919C121.675 6.69065 124.8 3.50769 128.77 3.3932L136.07 3.18711C140.04 3.07261 143.396 6.09528 143.524 9.8965C143.575 11.4765 143.063 12.965 142.115 14.1786C143.549 12.8505 144.318 11.0872 144.266 9.20953C144.138 5.40831 140.578 2.40854 136.3 2.52304L128.488 2.72913C124.236 2.84362 120.881 6.02658 121.009 9.8507C121.06 11.7055 121.957 13.4229 123.442 14.6595H123.468Z" fill="#9C9C9C"/>
<path d="M96.3424 67.0981L92.0136 28.1469C91.9367 26.0631 92.1929 23.8419 92.6027 23.1779L93.3199 21.9871L172.621 19.8117C172.621 19.8117 172.979 20.3384 173.415 20.9567C173.85 21.5978 174.26 23.7961 174.337 25.8799L172.672 64.9914L96.368 67.0752L96.3424 67.0981Z" fill="url(#paint1_linear_1_5407)"/>
<path opacity="0.4" d="M172.416 58.03L174.26 27.3683C150.337 54.3433 106.435 45.3211 97.9307 60.068L172.442 58.03H172.416Z" fill="black"/>
<path d="M109.431 57.2058L109.636 63.0679C109.713 65.083 111.608 66.6859 113.862 66.6172L120.445 66.434L120.317 62.6099C120.266 61.1902 121.521 60.0223 123.083 59.9765L145.521 59.3583C147.109 59.3125 148.416 60.4345 148.467 61.8313L148.595 65.6555L155.178 65.4723C157.432 65.4036 159.225 63.7091 159.148 61.6939L158.943 55.8318L109.431 57.1829V57.2058Z" fill="#030603"/>
<path d="M109.636 63.0678C109.636 63.2968 109.687 63.5258 109.738 63.7319L112.248 63.6632C113.76 63.6174 115.245 62.4038 115.63 60.8924L126.9 16.9035C127.31 15.3006 126.131 13.8809 124.799 13.1481C122.776 12.0719 121.521 10.1713 121.444 8.06455C121.316 4.6755 124.313 1.83603 128.104 1.72154L136.71 1.49255C140.501 1.37805 143.677 4.05723 143.805 7.44627C143.882 9.55298 142.755 11.5223 140.808 12.713C139.527 13.4916 138.452 15.0029 138.964 16.5601L153.231 59.862C153.718 61.3504 155.254 62.4954 156.689 62.4496L159.097 62.3809C159.122 62.1519 159.148 61.9458 159.148 61.6939V60.8924L156.638 60.9611C156.023 60.9611 155.101 60.3429 154.793 59.4269L140.526 16.125C140.245 15.2548 140.936 14.3847 141.73 13.9038C144.138 12.4382 145.521 9.98806 145.444 7.37758C145.291 3.18707 141.372 -0.133279 136.659 0.00411504L128.052 0.233105C123.365 0.370498 119.651 3.87404 119.805 8.08745C119.881 10.6979 121.444 13.0565 123.954 14.3847C124.799 14.8197 125.517 15.667 125.312 16.5372L114.041 60.526C113.837 61.3733 112.966 62.129 112.197 62.1519L109.61 62.2206V63.022L109.636 63.0678Z" fill="#AAAAAA"/>
<path d="M115.63 60.8925C115.604 61.0299 115.527 61.1901 115.476 61.3275C115.604 61.2359 115.732 61.1672 115.835 61.0527L127.259 16.3082C127.335 15.9647 127.361 15.6212 127.284 15.3006C127.002 14.3618 126.234 13.5832 125.389 13.1023C124.415 12.5528 123.621 11.7742 123.083 10.8811C122.546 10.0568 122.213 9.14083 122.187 8.15617C122.136 6.82803 122.622 5.61439 123.416 4.62973C124.518 3.1413 126.336 2.15665 128.411 2.08795L136.351 1.85896C139.835 1.76736 142.781 4.35495 142.883 7.6066C142.96 9.6446 141.91 11.5452 140.117 12.6902C139.067 13.3542 138.196 14.5221 138.298 15.8273C138.298 15.8731 138.298 15.9418 138.324 15.9876L152.744 59.8849C152.924 60.0452 153.129 60.2055 153.359 60.32C153.282 60.1597 153.205 59.9994 153.154 59.8391L138.887 16.5372C138.375 14.9572 139.451 13.4687 140.732 12.6902C142.678 11.4994 143.805 9.53011 143.728 7.42341C143.6 4.03436 140.424 1.35518 136.633 1.46968L128.027 1.69867C124.236 1.81316 121.239 4.65263 121.367 8.04168C121.444 10.1484 122.699 12.049 124.723 13.1252C126.055 13.8351 127.233 15.2777 126.823 16.8807L115.553 60.8696L115.63 60.8925Z" fill="#444444"/>
<path d="M114.733 62.4496C114.067 63.1594 113.145 63.6174 112.223 63.6632L109.713 63.7319C109.662 63.5487 109.636 63.3655 109.636 63.1823H109.61V63.9151C109.61 64.1212 109.662 64.3273 109.713 64.5334L112.223 64.4647C113.657 64.4189 115.066 63.3884 115.553 62.0832C115.297 62.2435 115.015 62.3809 114.733 62.4725V62.4496Z" fill="#444444"/>
<path d="M156.663 62.4496C155.818 62.4725 154.947 62.0832 154.256 61.4649C153.897 61.3962 153.539 61.2817 153.206 61.0756C153.769 62.3351 155.178 63.2739 156.561 63.2281L158.969 63.1594C159.02 62.9534 159.02 62.7473 159.02 62.5412V62.3809L156.663 62.4496Z" fill="#444444"/>
<path d="M122.673 13.2855C121.598 12.026 120.932 10.4689 120.881 8.77438C120.752 4.65257 124.108 1.21773 128.411 1.10323L136.3 0.897142C140.603 0.782648 144.215 4.0343 144.343 8.15611C144.394 9.85063 143.856 11.4765 142.832 12.7817C144.369 11.362 145.214 9.43845 145.163 7.40044C145.034 3.27863 141.167 0.0498812 136.556 0.164376L128.104 0.393365C123.493 0.530759 119.882 3.9656 120.01 8.08741C120.086 10.1025 121.034 11.9573 122.648 13.2855H122.673Z" fill="#E8E8E8"/>
<path d="M112.889 62.7243C113.658 62.7243 114.503 61.9458 114.708 61.0985L125.261 17.1325C125.286 16.9722 125.286 16.8348 125.261 16.6745L114.016 60.5718C113.811 61.4191 112.94 62.1747 112.172 62.1976L109.585 62.2663V62.8159L112.889 62.7243Z" fill="#E8E8E8"/>
<defs>
<radialGradient id="paint0_radial_1_5407" cx="0" cy="0" r="1" gradientUnits="userSpaceOnUse" gradientTransform="translate(164.73 -160.306) rotate(180) scale(426.012 516.81)">
<stop offset="0.96" stop-color="white"/>
<stop offset="0.98" stop-color="#FDFDFD"/>
<stop offset="0.99" stop-color="#EAEAEA"/>
<stop offset="1" stop-color="#C4C4C4"/>
</radialGradient>
<linearGradient id="paint1_linear_1_5407" x1="134.548" y1="66.0946" x2="133.311" y2="20.7902" gradientUnits="userSpaceOnUse">
<stop stop-color="#232323"/>
<stop offset="0.02" stop-color="#272727"/>
<stop offset="0.03" stop-color="#333333"/>
<stop offset="0.05" stop-color="#484848"/>
<stop offset="0.07" stop-color="#656565"/>
<stop offset="0.09" stop-color="#8A8A8A"/>
<stop offset="0.1" stop-color="#A7A7A7"/>
<stop offset="0.14" stop-color="#232423"/>
<stop offset="0.15" stop-color="#000400"/>
<stop offset="0.66"/>
<stop offset="0.76" stop-color="#030303"/>
<stop offset="0.84" stop-color="#0D0D0D"/>
<stop offset="0.91" stop-color="#1E1E1E"/>
<stop offset="0.96" stop-color="#2E2E2E"/>
<stop offset="1" stop-color="#363435"/>
</linearGradient>
</defs>
</svg>
