<svg width="42" height="39" viewBox="0 0 42 39" fill="none" xmlns="http://www.w3.org/2000/svg">
<path d="M15.2777 11.1169L20.9837 1.70917L26.6897 11.1169C26.9454 11.5384 27.3684 11.8312 27.8529 11.922L39.1361 14.0377L31.4196 21.838C31.0458 22.2159 30.8659 22.7443 30.9315 23.2717L32.248 33.8577L21.6624 29.3555C21.2287 29.171 20.7386 29.171 20.305 29.3555L9.71934 33.8577L11.0359 23.2717C11.1015 22.7443 10.9216 22.2159 10.5478 21.838L2.83126 14.0377L14.1145 11.922C14.599 11.8312 15.022 11.5384 15.2777 11.1169ZM32.2563 33.9244C32.2563 33.9244 32.2563 33.9243 32.2563 33.9241L32.2563 33.9244Z" stroke="#FFC700" stroke-width="1.77273"/>
<path d="M19.2682 21.7897V21.4031C19.2682 20.8605 19.3767 20.4061 19.5937 20.0398C19.8243 19.6736 20.1296 19.3141 20.5094 18.9614C20.8621 18.6223 21.208 18.3306 21.5471 18.0864C21.8863 17.8423 22.1643 17.5845 22.3814 17.3132C22.5984 17.0419 22.7069 16.7231 22.7069 16.3569C22.7069 15.8278 22.517 15.4548 22.1372 15.2377C21.7709 15.0071 21.1537 14.8918 20.2856 14.8918C19.7158 14.8918 19.1529 14.9664 18.5967 15.1156C18.0405 15.2513 17.5657 15.4276 17.1723 15.6447V12.8977C17.6743 12.6536 18.2643 12.4569 18.9426 12.3076C19.6344 12.1584 20.3873 12.0838 21.2012 12.0838C22.7748 12.0838 23.9753 12.4297 24.8028 13.1216C25.6303 13.7998 26.044 14.7358 26.044 15.9296C26.044 16.6892 25.888 17.3064 25.576 17.7812C25.264 18.2424 24.8096 18.7172 24.2127 19.2056C23.7108 19.6261 23.2903 19.9923 22.9511 20.3043C22.612 20.6028 22.4424 21.0097 22.4424 21.5252V21.7897H19.2682ZM19.1257 25.3913V23.031H22.5645V25.3913H19.1257Z" fill="#565353"/>
</svg>
