<svg width="49" height="49" viewBox="0 0 49 49" fill="none" xmlns="http://www.w3.org/2000/svg">
<g clip-path="url(#clip0_1_6161)">
<path d="M45.2074 37.4072C52.3898 26.0018 48.9664 10.9334 37.5609 3.75105C26.1555 -3.43133 11.0871 -0.00787968 3.90475 11.3975C-3.27763 22.803 0.145824 37.8714 11.5512 45.0537C22.9567 52.2361 38.0251 48.8127 45.2074 37.4072Z" fill="#74B0E4"/>
<path fill-rule="evenodd" clip-rule="evenodd" d="M27.0637 38.3121C26.2011 38.4685 25.3125 38.5501 24.4048 38.5501C16.2225 38.5501 9.58954 31.9171 9.58954 23.7349C9.58954 15.5527 16.2225 8.91968 24.4048 8.91968C32.587 8.91968 39.22 15.5527 39.22 23.7349C39.22 25.1859 39.0114 26.5883 38.6225 27.9135H42.5479C42.856 26.5703 43.0187 25.1716 43.0187 23.7349C43.0187 13.4547 34.685 5.12091 24.4048 5.12091C14.1245 5.12091 5.79077 13.4547 5.79077 23.7349C5.79077 34.0151 14.1245 42.3489 24.4048 42.3489C25.3075 42.3489 26.1953 42.2846 27.0637 42.1604V38.3121Z" fill="white"/>
<path d="M22.4157 26.7755V15.0919H26.3163V23.8002H31.3235V26.7755H22.4157Z" fill="white"/>
<path d="M30.1025 37.0306L33.5214 40.4495L42.2586 31.7123" stroke="#313131" stroke-width="3.03902"/>
</g>
<defs>
<clipPath id="clip0_1_6161">
<rect width="48.81" height="48.81" fill="white"/>
</clipPath>
</defs>
</svg>
