<svg width="350" height="254" viewBox="0 0 350 254" fill="none" xmlns="http://www.w3.org/2000/svg">
<rect width="350" height="254" fill="#74B0E4"/>
<path d="M349 56L1 56L0.999995 1L349 0.99997L349 56Z" fill="#C2D953" stroke="white" stroke-width="2"/>
<path d="M20.2377 38V25.12H25.6377C27.571 25.12 29.0243 25.62 29.9977 26.62C30.9843 27.6067 31.4777 29.2733 31.4777 31.62C31.4777 33.8333 30.991 35.4533 30.0177 36.48C29.0577 37.4933 27.5977 38 25.6377 38H20.2377ZM22.9377 35.92H25.2577C26.0177 35.92 26.6577 35.8067 27.1777 35.58C27.6977 35.34 28.0843 34.9133 28.3377 34.3C28.6043 33.6733 28.7377 32.78 28.7377 31.62C28.7377 30.46 28.6177 29.5733 28.3777 28.96C28.1377 28.3467 27.7643 27.9267 27.2577 27.7C26.751 27.4733 26.0843 27.36 25.2577 27.36H22.9377V35.92ZM36.0497 38.2C35.4497 38.2 34.8897 38.0933 34.3697 37.88C33.863 37.6533 33.4497 37.3267 33.1297 36.9C32.823 36.46 32.6697 35.9133 32.6697 35.26C32.6697 34.3267 32.9964 33.58 33.6497 33.02C34.3164 32.46 35.2964 32.18 36.5897 32.18H39.3897V31.92C39.3897 31.3333 39.223 30.92 38.8897 30.68C38.5697 30.44 37.9164 30.32 36.9297 30.32C35.8497 30.32 34.8097 30.4867 33.8097 30.82V28.92C34.2497 28.7467 34.783 28.6067 35.4097 28.5C36.0497 28.38 36.743 28.32 37.4897 28.32C38.9164 28.32 40.0164 28.6133 40.7897 29.2C41.5764 29.7733 41.9697 30.7 41.9697 31.98V38H39.6297L39.4897 37.14C39.1164 37.4733 38.6564 37.7333 38.1097 37.92C37.563 38.1067 36.8764 38.2 36.0497 38.2ZM36.7897 36.42C37.3897 36.42 37.9097 36.32 38.3497 36.12C38.7897 35.92 39.1364 35.6667 39.3897 35.36V33.86H36.6497C35.5964 33.86 35.0697 34.2933 35.0697 35.16C35.0697 36 35.643 36.42 36.7897 36.42ZM47.9039 38.2C46.8106 38.2 45.9972 37.9133 45.4639 37.34C44.9439 36.7667 44.6839 35.9867 44.6839 35V30.6H43.3439V28.52H44.6839V26.48L47.3839 25.68V28.52H49.7839L49.6239 30.6H47.3839V34.82C47.3839 35.34 47.5039 35.7 47.7439 35.9C47.9839 36.0867 48.3572 36.18 48.8639 36.18C49.2372 36.18 49.6239 36.1133 50.0239 35.98V37.84C49.7306 37.96 49.4106 38.0467 49.0639 38.1C48.7172 38.1667 48.3306 38.2 47.9039 38.2ZM56.3495 38.2C54.7095 38.2 53.4095 37.7933 52.4495 36.98C51.4895 36.1533 51.0095 34.9067 51.0095 33.24C51.0095 31.7333 51.4095 30.54 52.2095 29.66C53.0229 28.7667 54.2295 28.32 55.8295 28.32C57.2962 28.32 58.4162 28.7067 59.1895 29.48C59.9762 30.24 60.3695 31.24 60.3695 32.48V34.2H53.5095C53.6562 34.96 54.0029 35.48 54.5495 35.76C55.1095 36.04 55.8962 36.18 56.9095 36.18C57.4162 36.18 57.9295 36.1333 58.4495 36.04C58.9829 35.9467 59.4362 35.8267 59.8095 35.68V37.6C59.3695 37.8 58.8562 37.9467 58.2695 38.04C57.6829 38.1467 57.0429 38.2 56.3495 38.2ZM53.5095 32.54H58.0095V32.02C58.0095 31.4733 57.8495 31.0467 57.5295 30.74C57.2095 30.42 56.6695 30.26 55.9095 30.26C55.0162 30.26 54.3895 30.44 54.0295 30.8C53.6829 31.16 53.5095 31.74 53.5095 32.54ZM61.8494 38L66.5294 24.76H69.2894L64.6094 38H61.8494ZM74.3352 38V27.2H70.3752V25.12H80.9752V27.2H77.0352V38H74.3352ZM82.1281 26.78V24.66H85.0681V26.78H82.1281ZM82.3481 38V30.52H80.9281L81.1681 28.52H85.0481V38H82.3481ZM87.347 38V28.52H89.847L89.947 29.44C90.4004 29.0933 90.8937 28.82 91.427 28.62C91.9737 28.42 92.5604 28.32 93.187 28.32C93.8537 28.32 94.367 28.42 94.727 28.62C95.1004 28.82 95.387 29.1067 95.587 29.48C96.027 29.1333 96.527 28.8533 97.087 28.64C97.6604 28.4267 98.3337 28.32 99.107 28.32C100.2 28.32 101.007 28.6067 101.527 29.18C102.047 29.74 102.307 30.6 102.307 31.76V38H99.647V32.06C99.647 31.4333 99.5137 30.9867 99.247 30.72C98.9804 30.44 98.5537 30.3 97.967 30.3C97.167 30.3 96.5004 30.5867 95.967 31.16C96.0337 31.3867 96.067 31.66 96.067 31.98V38H93.547V32.06C93.547 31.4733 93.447 31.0333 93.247 30.74C93.047 30.4467 92.6604 30.3 92.087 30.3C91.687 30.3 91.307 30.4067 90.947 30.62C90.6004 30.82 90.287 31.0533 90.007 31.32V38H87.347ZM109.143 38.2C107.503 38.2 106.203 37.7933 105.243 36.98C104.283 36.1533 103.803 34.9067 103.803 33.24C103.803 31.7333 104.203 30.54 105.003 29.66C105.816 28.7667 107.023 28.32 108.623 28.32C110.089 28.32 111.209 28.7067 111.983 29.48C112.769 30.24 113.162 31.24 113.162 32.48V34.2H106.303C106.449 34.96 106.796 35.48 107.343 35.76C107.903 36.04 108.689 36.18 109.703 36.18C110.209 36.18 110.723 36.1333 111.243 36.04C111.776 35.9467 112.229 35.8267 112.603 35.68V37.6C112.163 37.8 111.649 37.9467 111.063 38.04C110.476 38.1467 109.836 38.2 109.143 38.2ZM106.303 32.54H110.803V32.02C110.803 31.4733 110.643 31.0467 110.323 30.74C110.003 30.42 109.463 30.26 108.703 30.26C107.809 30.26 107.183 30.44 106.823 30.8C106.476 31.16 106.303 31.74 106.303 32.54Z" fill="#0A4472"/>
<path d="M110 239C108.895 239 108 238.105 108 237L108 78C108 76.8954 108.895 76 110 76C111.105 76 112 76.8954 112 78L112 237C112 238.105 111.105 239 110 239Z" fill="white"/>
<path d="M223.533 38V25.12H226.233V38H223.533ZM228.513 38V28.52H231.013L231.113 29.42C231.5 29.1267 231.986 28.8733 232.573 28.66C233.173 28.4333 233.8 28.32 234.453 28.32C235.706 28.32 236.62 28.6133 237.193 29.2C237.766 29.7867 238.053 30.6933 238.053 31.92V38H235.353V32.06C235.353 31.42 235.22 30.9667 234.953 30.7C234.7 30.4333 234.22 30.3 233.513 30.3C233.1 30.3 232.68 30.3933 232.253 30.58C231.84 30.7667 231.493 31 231.213 31.28V38H228.513ZM240.751 38V30.6H239.431V28.52H240.751V27.56C240.751 26.5733 241.031 25.7667 241.591 25.14C242.151 24.5133 242.978 24.2 244.071 24.2C244.511 24.2 244.905 24.2333 245.251 24.3C245.598 24.3667 245.918 24.46 246.211 24.58V26.44C246.011 26.3733 245.818 26.32 245.631 26.28C245.445 26.24 245.238 26.22 245.011 26.22C244.438 26.22 244.031 26.3267 243.791 26.54C243.565 26.74 243.451 27.0933 243.451 27.6V28.52H245.851L245.731 30.6H243.451V38H240.751ZM251.71 38.2C249.937 38.2 248.637 37.7733 247.81 36.92C246.983 36.0533 246.57 34.8333 246.57 33.26C246.57 31.6867 246.983 30.4733 247.81 29.62C248.65 28.7533 249.95 28.32 251.71 28.32C253.483 28.32 254.783 28.7533 255.61 29.62C256.45 30.4733 256.87 31.6867 256.87 33.26C256.87 34.8333 256.457 36.0533 255.63 36.92C254.803 37.7733 253.497 38.2 251.71 38.2ZM251.71 35.9C252.577 35.9 253.197 35.7067 253.57 35.32C253.943 34.92 254.13 34.2333 254.13 33.26C254.13 32.2867 253.943 31.6067 253.57 31.22C253.197 30.82 252.577 30.62 251.71 30.62C250.857 30.62 250.243 30.82 249.87 31.22C249.497 31.6067 249.31 32.2867 249.31 33.26C249.31 34.2333 249.497 34.92 249.87 35.32C250.243 35.7067 250.857 35.9 251.71 35.9Z" fill="#0A4472"/>
</svg>
