<svg width="49" height="49" viewBox="0 0 49 49" fill="none" xmlns="http://www.w3.org/2000/svg">
<g clip-path="url(#clip0_1_5991)">
<path d="M45.2074 37.4072C52.3898 26.0018 48.9664 10.9334 37.5609 3.75105C26.1555 -3.43133 11.0871 -0.00787968 3.90475 11.3975C-3.27763 22.803 0.145824 37.8714 11.5512 45.0537C22.9567 52.2361 38.0251 48.8127 45.2074 37.4072Z" fill="#74B0E4"/>
<path d="M9.92749 16.7029C9.92749 15.3323 11.0387 14.2211 12.4094 14.2211H36.4007C37.7714 14.2211 38.8826 15.3323 38.8826 16.7029C38.8826 18.0736 37.7714 19.1848 36.4007 19.1848H12.4094C11.0387 19.1848 9.92749 18.0736 9.92749 16.7029Z" fill="white"/>
<path d="M9.92749 24.1485C9.92749 22.7778 11.0387 21.6667 12.4094 21.6667H36.4007C37.7714 21.6667 38.8826 22.7778 38.8826 24.1485C38.8826 25.5192 37.7714 26.6304 36.4007 26.6304H12.4094C11.0387 26.6304 9.92749 25.5192 9.92749 24.1485Z" fill="white"/>
<path d="M9.92749 31.5941C9.92749 30.2234 11.0387 29.1123 12.4094 29.1123H36.4007C37.7714 29.1123 38.8826 30.2234 38.8826 31.5941C38.8826 32.9648 37.7714 34.076 36.4007 34.076H12.4094C11.0387 34.076 9.92749 32.9648 9.92749 31.5941Z" fill="white"/>
</g>
<defs>
<clipPath id="clip0_1_5991">
<rect width="48.81" height="48.81" fill="white"/>
</clipPath>
</defs>
</svg>
