<svg width="154" height="153" viewBox="0 0 154 153" fill="none" xmlns="http://www.w3.org/2000/svg">
<g style="mix-blend-mode:multiply">
<path d="M153.908 146.669C153.608 155.935 0 150.538 0 150.538V0L153.159 1.52777C153.159 1.52777 154.331 133.533 153.908 146.686V146.669Z" fill="white"/>
<path d="M153.89 146.569C153.591 155.819 0.00866699 150.538 0.00866699 150.538V0.0498199L153.15 1.5444C153.15 2.00938 154.322 133.4 153.89 146.569Z" fill="#FEFEFE"/>
<path d="M153.882 146.453C153.582 155.686 0.0179443 150.522 0.0179443 150.522L0.0443724 0.0830078L153.142 1.56102C153.159 2.49098 154.314 133.284 153.882 146.453Z" fill="#FDFDFD"/>
<path d="M153.872 146.337C153.573 155.537 0.026123 150.505 0.026123 150.505L0.0613604 0.132828L153.132 1.59421C153.159 2.98916 154.304 133.168 153.872 146.354V146.337Z" fill="#FCFCFC"/>
<path d="M153.864 146.221C153.556 155.404 0.0439453 150.472 0.0439453 150.472L0.087992 0.149445L153.133 1.59421C153.159 3.45414 154.313 133.035 153.864 146.221Z" fill="#FBFBFB"/>
<path d="M153.855 146.104C153.547 155.271 0.0529785 150.455 0.0529785 150.455L0.114644 0.182648L153.124 1.61084C153.159 3.93575 154.305 132.919 153.855 146.104Z" fill="#FAFAFA"/>
<path d="M153.838 145.988C153.529 155.138 0.0529785 150.439 0.0529785 150.439L0.123453 0.232468L153.106 1.62741C153.15 4.40071 154.287 132.786 153.829 145.988H153.838Z" fill="#F9F9F9"/>
<path d="M153.829 145.888C153.52 155.005 0.0704346 150.439 0.0704346 150.439L0.149719 0.282288L153.106 1.66066C153.159 4.89894 154.287 132.686 153.829 145.888Z" fill="#F8F8F8"/>
<path d="M153.82 145.772C153.512 154.873 0.0793457 150.422 0.0793457 150.422L0.176248 0.315521L153.106 1.67722C153.168 5.38048 154.287 132.553 153.82 145.772Z" fill="#F7F7F7"/>
<path d="M153.811 145.656C153.503 154.74 0.0880127 150.405 0.0880127 150.405L0.193725 0.348724L153.089 1.69385C153.159 5.8621 154.269 132.437 153.802 145.656H153.811Z" fill="#F6F6F6"/>
<path d="M153.793 145.54C153.485 154.607 0.0969238 150.372 0.0969238 150.372L0.220255 0.381927L153.089 1.71048C153.168 6.34371 154.269 132.304 153.802 145.54H153.793Z" fill="#F5F5F5"/>
<path d="M153.785 145.424C153.476 154.474 0.105713 150.356 0.105713 150.356L0.237853 0.415161L153.08 1.71047C153.159 6.80868 154.26 132.172 153.785 145.407V145.424Z" fill="#F4F4F4"/>
<path d="M153.776 145.324C153.467 154.341 0.114502 150.356 0.114502 150.356L0.255451 0.464981L153.071 1.74367C153.159 7.30686 154.252 132.072 153.776 145.307V145.324Z" fill="#F3F3F3"/>
<path d="M153.767 145.208C153.45 154.208 0.132202 150.339 0.132202 150.339L0.29077 0.514801L153.071 1.77686C153.168 7.80504 154.252 131.956 153.767 145.208Z" fill="#F2F2F2"/>
<path d="M153.749 145.091C153.432 154.076 0.132202 150.322 0.132202 150.322L0.29958 0.548004L153.054 1.7935C153.159 8.28666 154.234 131.839 153.749 145.091Z" fill="#F1F1F1"/>
<path d="M153.741 144.975C153.423 153.943 0.140991 150.306 0.140991 150.306L0.317178 0.581177L153.045 1.8101C153.159 8.76824 154.225 131.707 153.732 144.992L153.741 144.975Z" fill="#F0F0F0"/>
<path d="M153.732 144.859C153.415 153.81 0.158691 150.289 0.158691 150.289L0.352497 0.614441L153.054 1.81011C153.177 9.21664 154.234 131.574 153.741 144.859H153.732Z" fill="#EFEFEF"/>
<path d="M153.723 144.743C153.406 153.66 0.167358 150.256 0.167358 150.256L0.369973 0.647644L153.036 1.8267C153.159 9.6982 154.216 131.441 153.723 144.743Z" fill="#EEEEEE"/>
<path d="M153.714 144.643C153.397 153.544 0.185059 150.256 0.185059 150.256L0.396483 0.697449L153.036 1.85993C153.168 10.1964 154.216 131.341 153.714 144.643Z" fill="#EDEDED"/>
<path d="M153.697 144.527C153.379 153.411 0.185059 150.239 0.185059 150.239L0.414101 0.730682L153.027 1.87654C153.168 10.678 154.208 131.208 153.705 144.527H153.697Z" fill="#ECECEC"/>
<path d="M153.688 144.411C153.362 153.278 0.193848 150.223 0.193848 150.223L0.4317 0.780518L153.018 1.90975C153.168 11.1762 154.181 131.109 153.688 144.427V144.411Z" fill="#EBEBEB"/>
<path d="M153.679 144.294C153.344 153.129 0.211304 150.206 0.211304 150.206L0.457965 0.81369L153.009 1.90973C153.168 11.6412 154.172 130.959 153.679 144.294Z" fill="#EAEAEA"/>
<path d="M153.67 144.178C153.335 152.996 0.220215 150.19 0.220215 150.19L0.484495 0.846893L153.009 1.92636C153.177 12.1228 154.172 130.843 153.67 144.178Z" fill="#E9E9E9"/>
<path d="M153.652 144.078C153.318 152.88 0.220215 150.173 0.220215 150.173L0.493304 0.896729L152.992 1.95957C153.168 12.621 154.155 130.743 153.652 144.078Z" fill="#E8E8E8"/>
<path d="M153.644 143.962C153.309 152.747 0.238037 150.156 0.238037 150.156L0.519936 0.929962L152.983 1.97618C153.159 13.1026 154.146 130.611 153.644 143.962Z" fill="#E7E7E7"/>
<path d="M153.635 143.846C153.3 152.614 0.246704 150.14 0.246704 150.14L0.546222 0.963165L152.983 1.99276C153.168 13.5841 154.146 130.494 153.635 143.846Z" fill="#E6E6E6"/>
<path d="M153.626 143.73C153.291 152.465 0.255615 150.123 0.255615 150.123L0.563942 0.996353L152.974 1.99276C153.168 14.0491 154.137 130.345 153.626 143.713V143.73Z" fill="#E5E5E5"/>
<path d="M153.608 143.613C153.274 152.332 0.264282 150.107 0.264282 150.107L0.581418 1.04622L152.965 2.026C153.168 14.5307 154.128 130.245 153.608 143.613Z" fill="#E4E4E4"/>
<path d="M153.6 143.497C153.256 152.199 0.273071 150.09 0.273071 150.09L0.607826 1.07941L152.957 2.04256C153.168 15.0123 154.119 130.112 153.6 143.497Z" fill="#E3E3E3"/>
<path d="M153.591 143.398C153.247 152.083 0.281738 150.09 0.281738 150.09L0.625303 1.12924L152.948 2.07583C153.168 15.5105 154.11 130.013 153.582 143.398H153.591Z" fill="#E2E2E2"/>
<path d="M153.582 143.281C153.239 151.95 0.299561 150.057 0.299561 150.057L0.660743 1.16243L152.957 2.09239C153.186 15.9921 154.119 129.896 153.591 143.281H153.582Z" fill="#E1E1E1"/>
<path d="M153.573 143.165C153.23 151.8 0.30835 150.04 0.30835 150.04L0.678342 1.19568L152.948 2.0924C153.177 16.4571 154.111 129.747 153.582 143.165H153.573Z" fill="#E0E0E0"/>
<path d="M153.556 143.049C153.212 151.668 0.30835 150.024 0.30835 150.024L0.687151 1.22887L152.921 2.10901C153.159 16.9387 154.084 129.631 153.547 143.049H153.556Z" fill="#DFDFDF"/>
<path d="M153.547 142.933C153.203 151.535 0.32605 150.007 0.32605 150.007L0.72247 1.26205L152.93 2.12563C153.177 17.4203 154.093 129.498 153.556 142.933H153.547Z" fill="#DEDEDE"/>
<path d="M153.538 142.833C153.195 151.418 0.334961 150.007 0.334961 150.007L0.740191 1.32851L152.922 2.17546C153.177 17.9351 154.084 129.415 153.538 142.85V142.833Z" fill="#DDDDDD"/>
<path d="M153.529 142.717C153.177 151.269 0.343628 149.99 0.343628 149.99L0.757667 1.36169L152.913 2.19202C153.177 18.4166 154.075 129.282 153.529 142.733V142.717Z" fill="#DCDCDC"/>
<path d="M153.512 142.6C153.159 151.136 0.352417 149.957 0.352417 149.957L0.784075 1.37833L152.904 2.17546C153.177 18.865 154.067 129.133 153.512 142.584V142.6Z" fill="#DBDBDB"/>
<path d="M153.503 142.484C153.151 151.003 0.361328 149.94 0.361328 149.94L0.801795 1.42813L152.895 2.20864C153.177 19.3466 154.058 129.016 153.503 142.484Z" fill="#DADADA"/>
<path d="M153.494 142.368C153.142 150.87 0.369995 149.924 0.369995 149.924L0.819271 1.4614L152.886 2.22528C153.168 19.8282 154.049 128.9 153.485 142.368H153.494Z" fill="#D9D9D9"/>
<path d="M153.485 142.252C153.133 150.738 0.387451 149.907 0.387451 149.907L0.854346 1.49457L152.895 2.24183C153.185 20.3098 154.058 128.784 153.494 142.252H153.485Z" fill="#D8D8D8"/>
<path d="M153.467 142.152C153.115 150.605 0.387451 149.907 0.387451 149.907L0.863156 1.5444L152.868 2.2751C153.168 20.808 154.031 128.668 153.467 142.152Z" fill="#D7D7D7"/>
<path d="M153.459 142.036C153.106 150.472 0.39624 149.891 0.39624 149.891L0.880754 1.59421L152.859 2.29171C153.168 21.2896 154.022 128.551 153.45 142.036H153.459Z" fill="#D6D6D6"/>
<path d="M153.45 141.92C153.097 150.339 0.41394 149.857 0.41394 149.857L0.916073 1.61084L152.868 2.29171C153.186 21.7546 154.031 128.402 153.459 141.903L153.45 141.92Z" fill="#D5D5D5"/>
<path d="M153.441 141.803C153.08 150.206 0.422974 149.841 0.422974 149.841L0.933915 1.64403L152.851 2.30828C153.177 22.2361 154.014 128.286 153.432 141.787L153.441 141.803Z" fill="#D4D4D4"/>
<path d="M153.432 141.687C153.071 150.073 0.431763 149.824 0.431763 149.824L0.951514 1.69385L152.842 2.34153C153.168 22.7344 154.005 128.169 153.424 141.687H153.432Z" fill="#D3D3D3"/>
<path d="M153.415 141.571C153.054 149.924 0.440552 149.808 0.440552 149.808L0.977922 1.72705L152.842 2.35811C153.177 23.2159 154.005 128.053 153.415 141.571Z" fill="#D2D2D2"/>
<path d="M153.406 141.471C153.045 149.808 0.449341 149.808 0.449341 149.808L0.99552 1.77686L152.833 2.37472C153.177 23.6975 153.996 127.92 153.406 141.471Z" fill="#D1D1D1"/>
<path d="M153.397 141.355C153.036 149.675 0.458252 149.791 0.458252 149.791L1.02205 1.8101L152.825 2.39134C153.177 24.1625 153.987 127.804 153.397 141.355Z" fill="#D0D0D0"/>
<path d="M153.388 141.239C153.027 149.542 0.475708 149.774 0.475708 149.774L1.04832 1.85992L152.824 2.42454C153.186 24.6607 153.987 127.704 153.388 141.255V141.239Z" fill="#CFCFCF"/>
<path d="M153.371 141.122C153.009 149.409 0.475708 149.741 0.475708 149.741L1.05712 1.87656L152.807 2.42455C153.177 25.1257 153.97 127.555 153.371 141.122Z" fill="#CECECE"/>
<path d="M153.362 141.006C152.992 149.26 0.484619 149.725 0.484619 149.725L1.08365 1.90974L152.807 2.44117C153.186 25.6073 153.97 127.439 153.362 141.006Z" fill="#CDCDCD"/>
<path d="M153.353 140.907C152.983 149.143 0.502075 149.725 0.502075 149.725L1.10992 1.97618L152.798 2.47436C153.177 26.1055 153.961 127.322 153.353 140.907Z" fill="#CCCCCC"/>
<path d="M153.344 140.79C152.974 149.011 0.510986 149.708 0.510986 149.708L1.12764 2.00938L152.789 2.49099C153.177 26.5871 153.952 127.206 153.335 140.79H153.344Z" fill="#CBCBCB"/>
<path d="M153.327 140.674C152.957 148.878 0.510986 149.691 0.510986 149.691L1.14526 2.04257L152.78 2.50755C153.177 27.0686 153.943 127.073 153.327 140.674Z" fill="#CACACA"/>
<path d="M153.318 140.558C152.948 148.728 0.528564 149.675 0.528564 149.675L1.17165 2.07582L152.78 2.52418C153.186 27.5503 153.943 126.957 153.327 140.558H153.318Z" fill="#C9C9C9"/>
<path d="M153.309 140.442C152.939 148.595 0.537231 149.642 0.537231 149.642L1.18912 2.10901L152.763 2.5408C153.177 28.0318 153.925 126.824 153.3 140.442H153.309Z" fill="#C8C8C8"/>
<path d="M153.3 140.325C152.93 148.463 0.554932 149.625 0.554932 149.625L1.22444 2.14221L152.772 2.5408C153.194 28.4968 153.934 126.691 153.309 140.309L153.3 140.325Z" fill="#C7C7C7"/>
<path d="M153.291 140.226C152.921 148.346 0.563965 149.625 0.563965 149.625L1.24228 2.19202L152.763 2.57399C153.195 28.9784 153.926 126.592 153.291 140.209V140.226Z" fill="#C6C6C6"/>
<path d="M153.274 140.109C152.895 148.213 0.563965 149.608 0.563965 149.608L1.25109 2.24185L152.745 2.6072C153.177 29.4766 153.908 126.475 153.274 140.109Z" fill="#C5C5C5"/>
<path d="M153.265 139.993C152.886 148.064 0.581543 149.592 0.581543 149.592L1.28629 2.27509L152.745 2.62381C153.186 29.9582 153.908 126.359 153.265 139.993Z" fill="#C4C4C4"/>
<path d="M153.256 139.877C152.877 147.931 0.59021 149.575 0.59021 149.575L1.30377 2.30829L152.736 2.64044C153.186 30.4398 153.899 126.226 153.256 139.877Z" fill="#C3C3C3"/>
<path d="M153.247 139.761C152.869 147.798 0.599121 149.559 0.599121 149.559L1.32149 2.35809L152.728 2.657C153.186 30.9213 153.89 126.11 153.247 139.777V139.761Z" fill="#C2C2C2"/>
<path d="M153.23 139.661C152.851 147.682 0.60791 149.542 0.60791 149.542L1.34789 2.39134L152.728 2.67363C153.194 31.403 153.882 125.977 153.239 139.661H153.23Z" fill="#C1C1C1"/>
<path d="M153.221 139.545C152.842 147.549 0.616577 149.525 0.616577 149.525L1.36537 2.42455L152.71 2.69026C153.186 31.8846 153.864 125.861 153.221 139.545Z" fill="#C0C0C0"/>
<path d="M153.212 139.429C152.833 147.4 0.625366 149.509 0.625366 149.509L1.38297 2.45773L152.701 2.70687C153.186 32.3662 153.855 125.728 153.203 139.429H153.212Z" fill="#BFBFBF"/>
<path d="M153.203 139.312C152.824 147.267 0.642944 149.492 0.642944 149.492L1.41817 2.50755L152.71 2.74007C153.194 32.8644 153.873 125.629 153.212 139.329L153.203 139.312Z" fill="#BEBEBE"/>
<path d="M153.185 139.196C152.807 147.134 0.642944 149.476 0.642944 149.476L1.42698 2.5408L152.683 2.74007C153.177 33.3293 153.846 125.496 153.177 139.196H153.185Z" fill="#BDBDBD"/>
<path d="M153.177 139.08C152.789 147.001 0.651855 149.459 0.651855 149.459L1.45351 2.57401L152.683 2.7567C153.186 33.811 153.846 125.363 153.177 139.08Z" fill="#BCBCBC"/>
<path d="M153.168 138.98C152.78 146.885 0.669434 149.442 0.669434 149.442L1.47989 2.62381L152.683 2.78989C153.194 34.2925 153.846 125.263 153.177 138.98H153.168Z" fill="#BBBBBB"/>
<path d="M153.159 138.864C152.771 146.735 0.678223 149.426 0.678223 149.426L1.49749 2.65701L152.675 2.80652C153.194 34.7741 153.837 125.13 153.159 138.864Z" fill="#BABABA"/>
<path d="M153.15 138.748C152.763 146.603 0.687012 149.409 0.687012 149.409L1.5239 2.69025L152.666 2.82308C153.194 35.2557 153.829 125.014 153.15 138.748Z" fill="#B9B9B9"/>
<path d="M153.133 138.631C152.745 146.47 0.696045 149.393 0.696045 149.393L1.54174 2.72345L152.657 2.82308C153.186 35.7207 153.82 124.865 153.133 138.615V138.631Z" fill="#B8B8B8"/>
<path d="M153.124 138.515C152.737 146.337 0.704956 149.376 0.704956 149.376L1.55946 2.77325L152.648 2.85632C153.186 36.2189 153.811 124.765 153.124 138.515Z" fill="#B7B7B7"/>
<path d="M153.115 138.416C152.728 146.204 0.713745 149.376 0.713745 149.376L1.58587 2.82309L152.648 2.88953C153.195 36.7171 153.811 124.665 153.115 138.416Z" fill="#B6B6B6"/>
<path d="M153.106 138.299C152.719 146.071 0.731201 149.359 0.731201 149.359L1.61214 2.85632L152.639 2.90614C153.194 37.1987 153.802 124.533 153.106 138.299Z" fill="#B5B5B5"/>
<path d="M153.089 138.183C152.692 145.938 0.731201 149.326 0.731201 149.326L1.62094 2.88953L152.622 2.92272C153.186 37.6802 153.785 124.416 153.089 138.183Z" fill="#B4B4B4"/>
<path d="M153.08 138.067C152.683 145.805 0.739868 149.309 0.739868 149.309L1.64723 2.92273H152.622C153.194 38.1452 153.785 124.283 153.08 138.067Z" fill="#B3B3B3"/>
<path d="M153.071 137.951C152.675 145.673 0.757568 149.293 0.757568 149.293L1.67374 2.95596H152.613C153.194 38.6268 153.776 124.151 153.071 137.951Z" fill="#B2B2B2"/>
<path d="M153.062 137.834C152.666 145.523 0.766235 149.276 0.766235 149.276L1.69122 2.98916L152.604 2.95596C153.185 39.0918 153.767 124.018 153.053 137.834H153.062Z" fill="#B1B1B1"/>
<path d="M153.044 137.735C152.648 145.407 0.766235 149.276 0.766235 149.276L1.70883 3.0556L152.595 3.00578C153.185 39.6066 153.758 123.935 153.044 137.751V137.735Z" fill="#B0B0B0"/>
<path d="M153.036 137.618C152.639 145.274 0.784058 149.26 0.784058 149.26L1.73547 3.08879L152.595 3.02235C153.194 40.0882 153.758 123.802 153.036 137.635V137.618Z" fill="#AFAFAF"/>
<path d="M153.027 137.502C152.631 145.141 0.792847 149.226 0.792847 149.226L1.75306 3.10542L152.587 3.00578C153.194 40.5366 153.749 123.652 153.027 137.486V137.502Z" fill="#AEAEAE"/>
<path d="M153.018 137.386C152.622 145.008 0.801636 149.21 0.801636 149.21L1.77947 3.15523L152.578 3.03897C153.194 41.0348 153.741 123.553 153.009 137.386H153.018Z" fill="#ADADAD"/>
<path d="M153.009 137.27C152.613 144.859 0.819214 149.193 0.819214 149.193L1.80586 3.18843L152.578 3.0556C153.203 41.5164 153.741 123.42 153.009 137.27Z" fill="#ACACAC"/>
<path d="M152.992 137.17C152.595 144.743 0.819214 149.193 0.819214 149.193L1.82348 3.23826L152.569 3.08881C153.203 42.0146 153.732 123.32 153.001 137.17H152.992Z" fill="#ABABAB"/>
<path d="M152.983 137.054C152.578 144.61 0.828003 149.177 0.828003 149.177L1.84108 3.27148L152.551 3.10541C153.186 42.4961 153.714 123.187 152.974 137.054H152.983Z" fill="#AAAAAA"/>
<path d="M152.974 136.938C152.569 144.477 0.845581 149.16 0.845581 149.16L1.86746 3.32131L152.551 3.12204C153.194 42.9778 153.714 123.071 152.974 136.938Z" fill="#A9A9A9"/>
<path d="M152.965 136.821C152.56 144.328 0.854492 149.143 0.854492 149.143L1.89399 3.3545L152.551 3.13861C153.203 43.4593 153.714 122.938 152.965 136.821Z" fill="#A8A8A8"/>
<path d="M152.948 136.705C152.543 144.195 0.854492 149.11 0.854492 149.11L1.9028 3.37113L152.534 3.13861C153.194 43.9243 153.697 122.805 152.948 136.689V136.705Z" fill="#A7A7A7"/>
<path d="M152.939 136.589C152.534 144.062 0.872192 149.094 0.872192 149.094L1.92931 3.42095L152.525 3.17186C153.194 44.4059 153.688 122.689 152.93 136.589H152.939Z" fill="#A6A6A6"/>
<path d="M152.93 136.489C152.525 143.946 0.880981 149.094 0.880981 149.094L1.95572 3.47076L152.525 3.20505C153.203 44.9041 153.688 122.59 152.93 136.489Z" fill="#A5A5A5"/>
<path d="M152.921 136.373C152.516 143.813 0.89856 149.077 0.89856 149.077L1.98211 3.50395L152.525 3.20505C153.212 45.3691 153.688 122.457 152.93 136.356L152.921 136.373Z" fill="#A4A4A4"/>
<path d="M152.913 136.257C152.507 143.663 0.907349 149.06 0.907349 149.06L1.99971 3.55378L152.516 3.23825C153.203 45.8673 153.679 122.34 152.913 136.273V136.257Z" fill="#A3A3A3"/>
<path d="M152.895 136.14C152.49 143.53 0.907349 149.044 0.907349 149.044L2.01733 3.58703L152.498 3.25488C153.194 46.3489 153.661 122.224 152.895 136.157V136.14Z" fill="#A2A2A2"/>
<path d="M152.886 136.024C152.481 143.398 0.924927 149.011 0.924927 149.011L2.04371 3.60361L152.498 3.25488C153.203 46.8139 153.661 122.075 152.886 136.024Z" fill="#A1A1A1"/>
<path d="M152.877 135.925C152.463 143.281 0.933838 149.011 0.933838 149.011L2.06143 3.6534L152.49 3.28806C153.203 47.312 153.653 121.975 152.877 135.925Z" fill="#A0A0A0"/>
<path d="M152.868 135.808C152.454 143.148 0.942505 148.994 0.942505 148.994L2.08772 3.70323L152.49 3.30469C153.212 47.7936 153.652 121.842 152.868 135.808Z" fill="#9F9F9F"/>
<path d="M152.851 135.692C152.437 142.999 0.951294 148.977 0.951294 148.977L2.10532 3.73648L152.472 3.32132C153.203 48.2753 153.635 121.726 152.851 135.692Z" fill="#9E9E9E"/>
<path d="M152.842 135.576C152.428 142.866 0.960327 148.961 0.960327 148.961L2.12316 3.76968L152.463 3.33789C153.195 48.7568 153.626 121.61 152.842 135.576Z" fill="#9D9D9D"/>
<path d="M152.833 135.46C152.419 142.733 0.968994 148.944 0.968994 148.944L2.14945 3.81948L152.463 3.37112C153.203 49.2384 153.626 121.493 152.833 135.476V135.46Z" fill="#9C9C9C"/>
<path d="M152.824 135.343C152.41 142.6 0.986694 148.928 0.986694 148.928L2.17596 3.85268L152.463 3.3877C153.212 49.72 153.626 121.377 152.833 135.36L152.824 135.343Z" fill="#9B9B9B"/>
<path d="M152.807 135.244C152.393 142.484 0.986694 148.911 0.986694 148.911L2.18476 3.88592L152.437 3.3877C153.194 50.185 153.6 121.228 152.798 135.227L152.807 135.244Z" fill="#9A9A9A"/>
<path d="M152.798 135.128C152.384 142.335 0.995483 148.894 0.995483 148.894L2.21117 3.91913L152.437 3.40433C153.203 50.6666 153.6 121.112 152.798 135.111V135.128Z" fill="#999999"/>
<path d="M152.789 135.011C152.375 142.202 1.01294 148.878 1.01294 148.878L2.23744 3.96894L152.437 3.43752C153.212 51.1647 153.608 120.995 152.789 135.011Z" fill="#989898"/>
<path d="M152.78 134.895C152.366 142.069 1.02185 148.861 1.02185 148.861L2.26397 4.00218L152.437 3.45413C153.221 51.6463 153.608 120.879 152.789 134.895H152.78Z" fill="#979797"/>
<path d="M152.772 134.779C152.357 141.936 1.03064 148.845 1.03064 148.845L2.28157 4.03538L152.419 3.47076C153.203 52.128 153.591 120.746 152.772 134.779Z" fill="#969696"/>
<path d="M152.754 134.679C152.331 141.82 1.03943 148.845 1.03943 148.845L2.29916 4.10183L152.41 3.50397C153.203 52.6261 153.582 120.647 152.754 134.679Z" fill="#959595"/>
<path d="M152.745 134.563C152.322 141.67 1.04822 148.811 1.04822 148.811L2.32557 4.1184L152.41 3.50397C153.212 53.0911 153.582 120.514 152.754 134.563H152.745Z" fill="#949494"/>
<path d="M152.736 134.447C152.314 141.538 1.05725 148.795 1.05725 148.795L2.34341 4.15163L152.393 3.52057C153.203 53.5727 153.565 120.381 152.728 134.447H152.736Z" fill="#939393"/>
<path d="M152.728 134.33C152.305 141.405 1.07483 148.778 1.07483 148.778L2.3698 4.18483L152.393 3.5372C153.212 54.0377 153.564 120.265 152.728 134.33Z" fill="#929292"/>
<path d="M152.71 134.214C152.287 141.272 1.07483 148.761 1.07483 148.761L2.38742 4.23466L152.384 3.5704C153.212 54.5359 153.556 120.148 152.71 134.231V134.214Z" fill="#919191"/>
<path d="M152.701 134.098C152.278 141.139 1.08362 148.745 1.08362 148.745L2.40502 4.26785L152.375 3.5704C153.212 55.0009 153.547 120.016 152.701 134.098Z" fill="#909090"/>
<path d="M152.692 133.998C152.269 141.006 1.1012 148.745 1.1012 148.745L2.43141 4.31766L152.366 3.60359C153.203 55.4991 153.538 119.899 152.692 133.998Z" fill="#8F8F8F"/>
<path d="M152.683 133.882C152.261 140.873 1.10999 148.728 1.10999 148.728L2.45781 4.36753L152.366 3.63684C153.212 55.9973 153.538 119.8 152.683 133.899V133.882Z" fill="#8E8E8E"/>
<path d="M152.666 133.766C152.243 140.741 1.10999 148.695 1.10999 148.695L2.46662 4.38411L152.349 3.63684C153.203 56.4623 153.52 119.667 152.666 133.766Z" fill="#8D8D8D"/>
<path d="M152.657 133.649C152.234 140.608 1.12756 148.678 1.12756 148.678L2.49301 4.41735L152.349 3.65341C153.212 56.9438 153.52 119.534 152.657 133.649Z" fill="#8C8C8C"/>
<path d="M152.648 133.533C152.225 140.458 1.13647 148.662 1.13647 148.662L2.51954 4.45054L152.34 3.65341C153.212 57.4088 153.512 119.401 152.648 133.517V133.533Z" fill="#8B8B8B"/>
<path d="M152.639 133.434C152.217 140.342 1.14526 148.662 1.14526 148.662L2.53714 4.51699L152.331 3.70323C153.212 57.9236 153.503 119.301 152.631 133.434H152.639Z" fill="#8A8A8A"/>
<path d="M152.631 133.317C152.199 140.209 1.16296 148.645 1.16296 148.645L2.56365 4.55018L152.331 3.71985C153.221 58.4052 153.503 119.185 152.631 133.317Z" fill="#898989"/>
<path d="M152.613 133.201C152.181 140.076 1.16296 148.629 1.16296 148.629L2.58127 4.58338L152.322 3.73648C153.212 58.8868 153.503 119.052 152.622 133.201H152.613Z" fill="#888888"/>
<path d="M152.604 133.085C152.173 139.943 1.17163 148.595 1.17163 148.595L2.59874 4.61662L152.305 3.75305C153.203 59.3518 153.485 118.936 152.595 133.085H152.604Z" fill="#878787"/>
<path d="M152.595 132.969C152.164 139.794 1.18921 148.579 1.18921 148.579L2.63394 4.64982L152.313 3.75305C153.221 59.8168 153.494 118.803 152.604 132.952L152.595 132.969Z" fill="#868686"/>
<path d="M152.587 132.852C152.155 139.661 1.19812 148.562 1.19812 148.562L2.65166 4.68301L152.305 3.76967C153.221 60.2984 153.485 118.67 152.587 132.836V132.852Z" fill="#858585"/>
<path d="M152.569 132.753C152.137 139.545 1.19812 148.562 1.19812 148.562L2.66047 4.73282L152.287 3.80286C153.212 60.7965 153.468 118.571 152.569 132.753Z" fill="#848484"/>
<path d="M152.56 132.637C152.128 139.412 1.21558 148.546 1.21558 148.546L2.69555 4.78271L152.287 3.83612C153.221 61.2948 153.467 118.455 152.56 132.653V132.637Z" fill="#838383"/>
<path d="M152.551 132.52C152.12 139.279 1.22449 148.529 1.22449 148.529L2.71327 4.81588L152.278 3.85268C153.212 61.7763 153.459 118.338 152.551 132.537V132.52Z" fill="#828282"/>
<path d="M152.543 132.404C152.111 139.13 1.24219 148.512 1.24219 148.512L2.73978 4.84908L152.278 3.85268C153.221 62.2413 153.459 118.189 152.543 132.404Z" fill="#818181"/>
<path d="M152.525 132.288C152.093 138.997 1.24219 148.479 1.24219 148.479L2.75739 4.88233L152.261 3.86931C153.212 62.7229 153.441 118.073 152.525 132.288Z" fill="#808080"/>
<path d="M152.516 132.188C152.085 138.881 1.25098 148.479 1.25098 148.479L2.77499 4.93215L152.252 3.9025C153.212 63.2211 153.432 117.973 152.516 132.188Z" fill="#7F7F7F"/>
<path d="M152.507 132.072C152.076 138.748 1.26855 148.463 1.26855 148.463L2.80138 4.96535L152.252 3.91913C153.221 63.7027 153.432 117.84 152.507 132.072Z" fill="#7E7E7E"/>
<path d="M152.499 131.956C152.067 138.615 1.27747 148.446 1.27747 148.446L2.82791 5.01515L152.252 3.95236C153.23 64.1843 153.441 117.74 152.507 131.972L152.499 131.956Z" fill="#7D7D7D"/>
<path d="M152.49 131.839C152.058 138.465 1.28625 148.429 1.28625 148.429L2.84551 5.04835L152.234 3.95236C153.221 64.6493 153.424 117.591 152.481 131.839H152.49Z" fill="#7C7C7C"/>
<path d="M152.472 131.723C152.032 138.333 1.29492 148.413 1.29492 148.413L2.86298 5.08159L152.225 3.96893C153.212 65.1309 153.415 117.475 152.472 131.723Z" fill="#7B7B7B"/>
<path d="M152.463 131.607C152.023 138.2 1.30383 148.379 1.30383 148.379L2.88951 5.09817L152.225 3.96893C153.221 65.5958 153.415 117.325 152.463 131.59V131.607Z" fill="#7A7A7A"/>
<path d="M152.454 131.507C152.014 138.083 1.3125 148.379 1.3125 148.379L2.90699 5.16461L152.216 4.01875C153.221 66.1106 153.406 117.242 152.454 131.507Z" fill="#797979"/>
<path d="M152.446 131.391C152.005 137.951 1.33032 148.363 1.33032 148.363L2.93362 5.19785L152.208 4.03537C153.221 66.5922 153.397 117.126 152.446 131.391Z" fill="#787878"/>
<path d="M152.428 131.275C151.988 137.801 1.33032 148.346 1.33032 148.346L2.95124 5.23104L152.199 4.03537C153.221 67.0572 153.388 116.976 152.428 131.258V131.275Z" fill="#777777"/>
<path d="M152.419 131.158C151.979 137.668 1.33923 148.33 1.33923 148.33L2.96896 5.28087L152.19 4.06857C153.221 67.5554 153.38 116.877 152.419 131.158Z" fill="#767676"/>
<path d="M152.41 131.042C151.97 137.535 1.35669 148.313 1.35669 148.313L2.99523 5.31407L152.19 4.08521C153.23 68.037 153.379 116.744 152.41 131.059V131.042Z" fill="#757575"/>
<path d="M152.402 130.926C151.961 137.403 1.36548 148.296 1.36548 148.296L3.02163 5.34731L152.181 4.10182C153.221 68.5186 153.371 116.628 152.402 130.943V130.926Z" fill="#747474"/>
<path d="M152.384 130.826C151.944 137.286 1.36548 148.28 1.36548 148.28L3.03044 5.38051L152.164 4.11839C153.212 69.0002 153.362 116.495 152.375 130.826H152.384Z" fill="#737373"/>
<path d="M152.375 130.71C151.935 137.137 1.38293 148.263 1.38293 148.263L3.06552 5.43032L152.172 4.13501C153.23 69.4652 153.37 116.379 152.384 130.71H152.375Z" fill="#727272"/>
<path d="M152.366 130.594C151.926 137.004 1.39172 148.247 1.39172 148.247L3.08312 5.46352L152.164 4.15164C153.23 69.9468 153.362 116.262 152.375 130.594H152.366Z" fill="#717171"/>
<path d="M152.358 130.478C151.917 136.871 1.40076 148.23 1.40076 148.23L3.10096 5.49677L152.146 4.16821C153.221 70.4284 153.344 116.13 152.349 130.478H152.358Z" fill="#707070"/>
<path d="M152.349 130.361C151.908 136.738 1.41833 148.213 1.41833 148.213L3.13616 5.54657L152.155 4.20145C153.238 70.9266 153.353 116.03 152.358 130.378L152.349 130.361Z" fill="#6F6F6F"/>
<path d="M152.331 130.262C151.891 136.622 1.41833 148.213 1.41833 148.213L3.14497 5.5964L152.137 4.23465C153.23 71.4248 153.335 115.914 152.331 130.278V130.262Z" fill="#6E6E6E"/>
<path d="M152.322 130.146C151.882 136.473 1.42725 148.18 1.42725 148.18L3.16269 5.61303L152.12 4.21803C153.212 71.8731 153.318 115.764 152.314 130.129L152.322 130.146Z" fill="#6D6D6D"/>
<path d="M152.314 130.029C151.873 136.34 1.44482 148.164 1.44482 148.164L3.19788 5.64622L152.129 4.23465C153.23 72.3547 153.344 115.648 152.314 130.013V130.029Z" fill="#6C6C6C"/>
<path d="M152.305 129.913C151.864 136.207 1.45361 148.147 1.45361 148.147L3.21548 5.69604L152.12 4.26785C153.23 72.8529 153.335 115.532 152.305 129.913Z" fill="#6B6B6B"/>
<path d="M152.287 129.797C151.847 136.074 1.45361 148.13 1.45361 148.13L3.22429 5.72923L152.102 4.28447C153.221 73.3345 153.318 115.416 152.287 129.797Z" fill="#6A6A6A"/>
<path d="M152.278 129.681C151.838 135.941 1.47119 148.114 1.47119 148.114L3.25949 5.76247L152.102 4.30109C153.23 73.8161 153.318 115.283 152.278 129.681Z" fill="#696969"/>
<path d="M152.27 129.581C151.829 135.808 1.4801 148.114 1.4801 148.114L3.27721 5.82887L152.093 4.33429C153.23 74.2977 153.309 115.183 152.27 129.581Z" fill="#686868"/>
<path d="M152.26 129.465C151.82 135.675 1.48853 148.097 1.48853 148.097L3.29444 5.86211L152.084 4.35091C153.221 74.7793 153.3 115.05 152.252 129.465H152.26Z" fill="#676767"/>
<path d="M152.243 129.348C151.802 135.543 1.49744 148.064 1.49744 148.064L3.32097 5.87868L152.084 4.35091C153.229 75.2443 153.3 114.917 152.252 129.348H152.243Z" fill="#666666"/>
<path d="M152.234 129.232C151.785 135.41 1.50635 148.047 1.50635 148.047L3.33869 5.91192L152.067 4.36752C153.221 75.7259 153.282 114.801 152.225 129.232H152.234Z" fill="#656565"/>
<path d="M152.225 129.116C151.776 135.277 1.51514 148.031 1.51514 148.031L3.35629 5.96175L152.058 4.40073C153.221 76.2241 153.274 114.685 152.216 129.133L152.225 129.116Z" fill="#646464"/>
<path d="M152.217 129.016C151.767 135.144 1.53284 148.031 1.53284 148.031L3.39161 6.01156L152.067 4.41734C153.238 76.7057 153.283 114.569 152.225 129.016H152.217Z" fill="#636363"/>
<path d="M152.208 128.9C151.759 135.011 1.54175 148.014 1.54175 148.014L3.40933 6.04477L152.058 4.43393C153.239 77.1872 153.274 114.436 152.208 128.9Z" fill="#626262"/>
<path d="M152.19 128.784C151.741 134.878 1.54175 147.998 1.54175 147.998L3.42695 6.09457L152.04 4.46716C153.23 77.6854 153.256 114.336 152.19 128.8V128.784Z" fill="#616161"/>
<path d="M152.181 128.668C151.732 134.746 1.55933 147.964 1.55933 147.964L3.45333 6.1112L152.04 4.46716C153.23 78.1504 153.256 114.187 152.181 128.668Z" fill="#606060"/>
<path d="M152.173 128.551C151.723 134.596 1.56812 147.948 1.56812 147.948L3.47093 6.14439L152.032 4.48373C153.23 78.632 153.256 114.07 152.173 128.551Z" fill="#5F5F5F"/>
<path d="M152.164 128.435C151.714 134.463 1.5769 147.931 1.5769 147.931L3.49734 6.19422L152.032 4.50037C153.239 79.097 153.256 113.954 152.164 128.435Z" fill="#5E5E5E"/>
</g>
<path d="M153.247 134.912C132.722 148.463 0 150.538 0 150.538V0H153.247V134.912Z" fill="url(#paint0_radial_1_4233)"/>
<path d="M153.247 134.912C125.885 154.64 28.1545 149.774 28.1545 149.774C28.1545 149.774 101.748 152.016 149.38 120.464C152.146 124.499 153.247 134.928 153.247 134.928V134.912Z" fill="url(#paint1_radial_1_4233)"/>
<rect x="17" y="11" width="122" height="75" fill="#D9D9D9"/>
<defs>
<radialGradient id="paint0_radial_1_4233" cx="0" cy="0" r="1" gradientUnits="userSpaceOnUse" gradientTransform="translate(76.6236 75.2775) scale(61.0928 115.166)">
<stop stop-color="#F5DBA4"/>
<stop offset="1" stop-color="#FADEAF"/>
</radialGradient>
<radialGradient id="paint1_radial_1_4233" cx="0" cy="0" r="1" gradientUnits="userSpaceOnUse" gradientTransform="translate(57.0051 -802.812) scale(507.444 956.588)">
<stop offset="0.99" stop-color="#FFF2D2"/>
<stop offset="1" stop-color="#B29A6D"/>
</radialGradient>
</defs>
</svg>
