<svg width="92" height="37" viewBox="0 0 92 37" fill="none" xmlns="http://www.w3.org/2000/svg">
<path d="M88.1787 37H85.2605C84.9103 37 84.6282 36.6338 84.6282 36.1792C84.6282 35.7246 84.9103 35.3584 85.2605 35.3584H88.1787C88.5289 35.3584 88.811 35.7246 88.811 36.1792C88.811 36.6338 88.5289 37 88.1787 37ZM80.3968 37H77.4786C77.1284 37 76.8463 36.6338 76.8463 36.1792C76.8463 35.7246 77.1284 35.3584 77.4786 35.3584H80.3968C80.747 35.3584 81.0291 35.7246 81.0291 36.1792C81.0291 36.6338 80.747 37 80.3968 37ZM72.6149 37H69.6967C69.3465 37 69.0644 36.6338 69.0644 36.1792C69.0644 35.7246 69.3465 35.3584 69.6967 35.3584H72.6149C72.9651 35.3584 73.2471 35.7246 73.2471 36.1792C73.2471 36.6338 72.9651 37 72.6149 37ZM64.833 37H61.9148C61.5646 37 61.2825 36.6338 61.2825 36.1792C61.2825 35.7246 61.5646 35.3584 61.9148 35.3584H64.833C65.1832 35.3584 65.4652 35.7246 65.4652 36.1792C65.4652 36.6338 65.1832 37 64.833 37ZM57.0511 37H54.1329C53.7827 37 53.5006 36.6338 53.5006 36.1792C53.5006 35.7246 53.7827 35.3584 54.1329 35.3584H57.0511C57.4013 35.3584 57.6833 35.7246 57.6833 36.1792C57.6833 36.6338 57.4013 37 57.0511 37ZM49.2692 37H46.351C46.0008 37 45.7187 36.6338 45.7187 36.1792C45.7187 35.7246 46.0008 35.3584 46.351 35.3584H49.2692C49.6194 35.3584 49.9014 35.7246 49.9014 36.1792C49.9014 36.6338 49.6194 37 49.2692 37ZM41.4873 37H38.5691C38.2189 37 37.9368 36.6338 37.9368 36.1792C37.9368 35.7246 38.2189 35.3584 38.5691 35.3584H41.4873C41.8374 35.3584 42.1195 35.7246 42.1195 36.1792C42.1195 36.6338 41.8374 37 41.4873 37ZM33.7054 37H30.7871C30.437 37 30.1549 36.6338 30.1549 36.1792C30.1549 35.7246 30.437 35.3584 30.7871 35.3584H33.7054C34.0555 35.3584 34.3376 35.7246 34.3376 36.1792C34.3376 36.6338 34.0555 37 33.7054 37ZM25.9235 37H23.0052C22.6551 37 22.373 36.6338 22.373 36.1792C22.373 35.7246 22.6551 35.3584 23.0052 35.3584H25.9235C26.2736 35.3584 26.5557 35.7246 26.5557 36.1792C26.5557 36.6338 26.2736 37 25.9235 37ZM18.1416 37H15.2233C14.8732 37 14.5911 36.6338 14.5911 36.1792C14.5911 35.7246 14.8732 35.3584 15.2233 35.3584H18.1416C18.4917 35.3584 18.7738 35.7246 18.7738 36.1792C18.7738 36.6338 18.4917 37 18.1416 37ZM10.3597 37H7.44144C7.09126 37 6.80916 36.6338 6.80916 36.1792C6.80916 35.7246 7.09126 35.3584 7.44144 35.3584H10.3597C10.7098 35.3584 10.9919 35.7246 10.9919 36.1792C10.9919 36.6338 10.7098 37 10.3597 37ZM2.57775 37H0.632279C0.282094 37 0 36.6338 0 36.1792V32.3908C0 31.9362 0.282094 31.57 0.632279 31.57C0.982465 31.57 1.26456 31.9362 1.26456 32.3908V35.3584H2.57775C2.92794 35.3584 3.21003 35.7246 3.21003 36.1792C3.21003 36.6338 2.92794 37 2.57775 37ZM91.0969 34.4744C90.7467 34.4744 90.4646 34.1082 90.4646 33.6536V29.8652C90.4646 29.4106 90.7467 29.0444 91.0969 29.0444C91.4471 29.0444 91.7292 29.4106 91.7292 29.8652V33.6536C91.7292 34.1082 91.4471 34.4744 91.0969 34.4744ZM0.632279 26.8976C0.282094 26.8976 0 26.5314 0 26.0768V22.2884C0 21.8338 0.282094 21.4676 0.632279 21.4676C0.982465 21.4676 1.26456 21.8338 1.26456 22.2884V26.0768C1.26456 26.5314 0.982465 26.8976 0.632279 26.8976ZM91.0969 24.372C90.7467 24.372 90.4646 24.0058 90.4646 23.5512V19.7628C90.4646 19.3082 90.7467 18.942 91.0969 18.942C91.4471 18.942 91.7292 19.3082 91.7292 19.7628V23.5512C91.7292 24.0058 91.4471 24.372 91.0969 24.372ZM0.632279 16.7952C0.282094 16.7952 0 16.429 0 15.9744V12.186C0 11.7314 0.282094 11.3652 0.632279 11.3652C0.982465 11.3652 1.26456 11.7314 1.26456 12.186V15.9744C1.26456 16.429 0.982465 16.7952 0.632279 16.7952ZM91.0969 14.2696C90.7467 14.2696 90.4646 13.9034 90.4646 13.4488V9.66041C90.4646 9.2058 90.7467 8.83959 91.0969 8.83959C91.4471 8.83959 91.7292 9.2058 91.7292 9.66041V13.4488C91.7292 13.9034 91.4471 14.2696 91.0969 14.2696ZM0.632279 6.69283C0.282094 6.69283 0 6.32662 0 5.87201V2.08362C0 1.62901 0.282094 1.2628 0.632279 1.2628C0.982465 1.2628 1.26456 1.62901 1.26456 2.08362V5.87201C1.26456 6.32662 0.982465 6.69283 0.632279 6.69283ZM91.0969 4.16724C90.7467 4.16724 90.4646 3.80102 90.4646 3.34642V1.64164H90.1241C89.774 1.64164 89.4919 1.27543 89.4919 0.820819C89.4919 0.366212 89.774 0 90.1241 0H91.0969C91.4471 0 91.7292 0.366212 91.7292 0.820819V3.34642C91.7292 3.80102 91.4471 4.16724 91.0969 4.16724ZM85.2605 1.64164H82.3422C81.9921 1.64164 81.71 1.27543 81.71 0.820819C81.71 0.366212 81.9921 0 82.3422 0H85.2605C85.6106 0 85.8927 0.366212 85.8927 0.820819C85.8927 1.27543 85.6106 1.64164 85.2605 1.64164ZM77.4786 1.64164H74.5603C74.2102 1.64164 73.9281 1.27543 73.9281 0.820819C73.9281 0.366212 74.2102 0 74.5603 0H77.4786C77.8287 0 78.1108 0.366212 78.1108 0.820819C78.1108 1.27543 77.8287 1.64164 77.4786 1.64164ZM69.6967 1.64164H66.7784C66.4283 1.64164 66.1462 1.27543 66.1462 0.820819C66.1462 0.366212 66.4283 0 66.7784 0H69.6967C70.0468 0 70.3289 0.366212 70.3289 0.820819C70.3289 1.27543 70.0468 1.64164 69.6967 1.64164ZM61.9148 1.64164H58.9965C58.6464 1.64164 58.3643 1.27543 58.3643 0.820819C58.3643 0.366212 58.6464 0 58.9965 0H61.9148C62.2649 0 62.547 0.366212 62.547 0.820819C62.547 1.27543 62.2649 1.64164 61.9148 1.64164ZM54.1329 1.64164H51.2146C50.8645 1.64164 50.5824 1.27543 50.5824 0.820819C50.5824 0.366212 50.8645 0 51.2146 0H54.1329C54.483 0 54.7651 0.366212 54.7651 0.820819C54.7651 1.27543 54.483 1.64164 54.1329 1.64164ZM46.351 1.64164H43.4327C43.0826 1.64164 42.8005 1.27543 42.8005 0.820819C42.8005 0.366212 43.0826 0 43.4327 0H46.351C46.7011 0 46.9832 0.366212 46.9832 0.820819C46.9832 1.27543 46.7011 1.64164 46.351 1.64164ZM38.5691 1.64164H35.6508C35.3007 1.64164 35.0186 1.27543 35.0186 0.820819C35.0186 0.366212 35.3007 0 35.6508 0H38.5691C38.9192 0 39.2013 0.366212 39.2013 0.820819C39.2013 1.27543 38.9192 1.64164 38.5691 1.64164ZM30.7871 1.64164H27.8689C27.5187 1.64164 27.2367 1.27543 27.2367 0.820819C27.2367 0.366212 27.5187 0 27.8689 0H30.7871C31.1373 0 31.4194 0.366212 31.4194 0.820819C31.4194 1.27543 31.1373 1.64164 30.7871 1.64164ZM23.0052 1.64164H20.087C19.7368 1.64164 19.4548 1.27543 19.4548 0.820819C19.4548 0.366212 19.7368 0 20.087 0H23.0052C23.3554 0 23.6375 0.366212 23.6375 0.820819C23.6375 1.27543 23.3554 1.64164 23.0052 1.64164ZM15.2233 1.64164H12.3051C11.9549 1.64164 11.6729 1.27543 11.6729 0.820819C11.6729 0.366212 11.9549 0 12.3051 0H15.2233C15.5735 0 15.8556 0.366212 15.8556 0.820819C15.8556 1.27543 15.5735 1.64164 15.2233 1.64164ZM7.44144 1.64164H4.52323C4.17304 1.64164 3.89095 1.27543 3.89095 0.820819C3.89095 0.366212 4.17304 0 4.52323 0H7.44144C7.79163 0 8.07372 0.366212 8.07372 0.820819C8.07372 1.27543 7.79163 1.64164 7.44144 1.64164Z" fill="white"/>
<path d="M30.2587 27V21.075L24.4837 10.9H28.6837L32.2837 17.575L35.8837 10.9H40.0837L34.3087 21.075V27H30.2587ZM41.1093 27V10.9H52.9843V14H45.1343V17.375H52.0593V20.525H45.1343V23.9H52.9843V27H41.1093ZM60.0283 27.25C58.9616 27.25 57.9616 27.1667 57.0283 27C56.1116 26.85 55.3199 26.625 54.6533 26.325V22.9C55.3866 23.2167 56.1949 23.475 57.0783 23.675C57.9783 23.875 58.8283 23.975 59.6283 23.975C60.6283 23.975 61.3699 23.8833 61.8533 23.7C62.3533 23.5167 62.6033 23.1167 62.6033 22.5C62.6033 22.0833 62.4783 21.75 62.2283 21.5C61.9949 21.25 61.6033 21.0333 61.0533 20.85C60.5199 20.65 59.7866 20.4167 58.8533 20.15C57.7533 19.8167 56.8783 19.45 56.2283 19.05C55.5783 18.6333 55.1116 18.1333 54.8283 17.55C54.5449 16.9667 54.4033 16.25 54.4033 15.4C54.4033 13.8667 54.9533 12.6917 56.0533 11.875C57.1533 11.0583 58.7783 10.65 60.9283 10.65C61.8616 10.65 62.7699 10.725 63.6533 10.875C64.5366 11.0083 65.2533 11.1667 65.8033 11.35V14.8C65.0866 14.5167 64.3616 14.3083 63.6283 14.175C62.9116 14.0417 62.2116 13.975 61.5283 13.975C60.6283 13.975 59.8949 14.0583 59.3283 14.225C58.7783 14.3917 58.5033 14.775 58.5033 15.375C58.5033 15.725 58.6033 16.0083 58.8033 16.225C59.0033 16.425 59.3449 16.6083 59.8283 16.775C60.3283 16.9417 61.0033 17.1417 61.8533 17.375C63.1699 17.725 64.1783 18.15 64.8783 18.65C65.5783 19.1333 66.0616 19.7 66.3283 20.35C66.5949 20.9833 66.7283 21.7 66.7283 22.5C66.7283 23.9167 66.1783 25.0667 65.0783 25.95C63.9783 26.8167 62.2949 27.25 60.0283 27.25Z" fill="#0A4472"/>
</svg>
