<svg width="33" height="33" viewBox="0 0 33 33" fill="none" xmlns="http://www.w3.org/2000/svg">
<g clip-path="url(#clip0_1_5591)">
<path d="M30.3449 25.124C35.159 17.4793 32.8644 7.3794 25.2196 2.56526C17.5749 -2.24888 7.475 0.0457658 2.66086 7.69049C-2.15328 15.3352 0.141364 25.4351 7.78609 30.2493C15.4308 35.0634 25.5307 32.7688 30.3449 25.124Z" fill="#0A4472"/>
<path d="M23.2191 8.03957H9.79004V24.0361C9.79004 25.7611 11.1879 26.4239 12.9129 26.4239H20.0963C21.8212 26.4239 23.2191 25.7611 23.2191 24.0361V8.03957ZM14.3987 7.61469V5.91519H18.6474V7.61469" fill="#9B9B9A"/>
<path d="M22.8961 16.5371V25.2984L21.7489 26.3092H15.2483L22.8961 16.5371Z" fill="#9B9B9A"/>
<path d="M8.4502 7.6147H24.5955V9.3142H8.4502V7.6147Z" fill="#969696"/>
<path d="M14.3985 7.61468V5.91518H18.6472V7.61468M22.896 11.4386V24.6097C22.896 25.0605 22.7169 25.4927 22.3982 25.8114C22.0795 26.1302 21.6472 26.3092 21.1965 26.3092H11.8492C11.3985 26.3092 10.9662 26.1302 10.6475 25.8114C10.3288 25.4927 10.1497 25.0605 10.1497 24.6097V11.4386M18.6472 12.8194V24.1848M14.3985 12.8194V24.1848M8.4502 7.61468H24.5955V9.31418H8.4502V7.61468Z" stroke="black" stroke-width="0.849752" stroke-miterlimit="10" stroke-linecap="round" stroke-linejoin="round"/>
</g>
<defs>
<clipPath id="clip0_1_5591">
<rect width="32.7159" height="32.7159" fill="white"/>
</clipPath>
</defs>
</svg>
